<svg version="1.2" xmlns="http://www.w3.org/2000/svg" viewBox="0 0 438 437" width="50" height="50"><style>.a{fill:#fdfdfd}.b{fill:#b5b0b1}.c{fill:#686868}.d{fill:#6b6b6b}.e{fill:#cf747c}.f{fill:#c24d4e}.g{fill:#161616}.h{fill:#171717}.i{fill:#737373}.j{fill:#666}.k{fill:#686869}.l{fill:#101010}.m{fill:#313131}.n{fill:#141414}.o{fill:#5c5c5d}.p{fill:#656565}.q{fill:#1b1b1b}.r{fill:#131313}.s{fill:#151515}.t{fill:#5e5e5e}.u{fill:#696969}.v{fill:#b92a2e}.w{fill:#e73532}.x{fill:#ededed}.y{fill:#121212}.z{fill:#ba2f2b}.A{fill:#dbdadb}.B{fill:#e8e8e8}.C{fill:#636363}.D{fill:#a7a7a8}.E{fill:#b3aeae}.F{fill:#f0ebec}.G{fill:#ba2e33}.H{fill:#e63936}</style><path fill-rule="evenodd" class="a" d="m59 157c0-52.3 0-104.2 0-156q161 0 322 0 0 218.5 0 437-161 0-322 0c0-93.5 0-187 0-281zm71.8 253.6c0 0 0.3 0.3 0.5 1 5.4 2.8 7.3 1.8 7.3-4.2 0-8.8 0-17.6 0-26.5 0-2.3 0.5-5.1-3-5.1-3.8 0.1-2.5 3.3-2.6 5.3-0.1 6.2 0 12.4 0 18.6q-0.7 0.1-1.3 0.2c-0.9-1.5-1.7-3.1-2.6-4.6-1-1.4-2.1-2.8-3.1-4.2 0 0-0.1 0 0-0.8-2.3-4.1-4.7-8.1-7.4-12.6-0.2-0.2-0.4-0.4-0.6-1.4-7.2-1.7-7.9-1.2-7.9 5.8 0 7.8-0.2 15.6 0.1 23.4 0.1 2.5-2.2 7.2 2.7 7 4.5-0.1 2.6-4.6 2.7-7.2 0.3-6.3 0.1-12.6 0.1-19q0.6-0.1 1.2-0.1c2.6 4 5.2 8 7.9 12.8 0.8 1.3 1.6 2.6 2.6 4.4 0.1 0.2 0.3 0.5 0.6 1.3 0.4 0.8 0.7 1.5 1.1 2.9 0.6 0.9 1.1 1.7 1.7 3zm27.7-29.9c1.2-0.3 2.4-0.5 3.9-0.3 1.2-0.2 2.4-0.4 4.3-0.3 0.6 0.1 1.3 0.2 2.3 0.8 1.5 0.8 2.9 1.8 4.5 2.2 1.5 0.4 3.1 0.2 4.7 0.3-0.6-2-0.7-4.8-2-5.8-6.9-4.7-19.2-3.7-25.3 1.7-6 5.3-7.8 16.4-4.3 24.5 5 11.3 21.5 12.1 30 6.8 0.9-0.6 1.6-1.7 1.9-2.7 2.8-11.3-1-15.8-12.3-14.4-1.3 0.2-2.4 1.6-3.6 2.5 1.1 1.1 2.2 2.4 3.5 3.3 0.7 0.4 2.2-0.2 2.9 0.2 1.2 0.7 2.9 1.8 3 2.8 0.1 1.5-0.6 3.9-1.7 4.5-7.1 3.8-16.8-0.6-18-8.5-0.6-4.3 0.7-9 1.7-13.9 0.6-0.6 1.2-1.3 2.4-1.7 0.5-0.6 1-1.2 2.1-2zm106.6-4.4c-1.1 0-2.1 0-3.8-0.2-0.7 0.1-1.4 0.3-2.7 0.3-0.1 0.5-0.3 1.1-0.8 2 0 0 0 0.4-0.4 0.9-0.8 1.6-1.8 3.2-2.4 4.9-2.5 6.6-4.9 13.3-7.4 20-0.4 1.1-1.5 3-2.2 2.9-6.1-0.2-12.1-0.8-18.1-2.3-0.2-9.2-0.3-18.5-0.4-28.4q-2 0.3-4 0.6c0 0 0-0.1-0.7 0.1-0.2 10.9-0.5 21.9-0.3 32.8 0 1.1 2.9 3.1 4.5 3.2 6.9 0.4 13.9 0.4 20.9 0 1.8-0.1 4.6-2 5-3.5 1.4-5.5 4.6-6.4 9.8-6.6 5.2-0.2 8.3 0.7 9.1 6.2 0.2 1 0.9 2.5 1.7 2.9 1.4 0.6 3.1 0.4 4.6 0.5-0.1-1.4-0.1-2.8-0.1-4.6-0.3-0.4-0.5-0.7-1-1.8-0.7-2-1.5-4-1.9-6.6-2.5-6.2-5-12.4-7.7-19.2-0.5-1.2-1.1-2.3-1.7-4.1zm-56.1 0.7c0 0 0 0-0.8 0-0.2 1.6-0.5 3.3-0.6 4.9 0 5.9 0.1 11.9-0.1 17.9-0.1 5.3-3 8-8.1 8-5.2-0.1-7.9-2.5-8-8-0.2-6.8 0.1-13.6-0.2-20.4-0.1-1.3-2.2-2.5-3.4-3.8-1 1.2-2.8 2.3-2.9 3.6-0.3 2.9 0.3 5.8 0.4 9.5 0 1.1 0.1 2.2-0.4 3.7 0.2 0.8 0.3 1.7 0.4 3.3 0.1 1 0.2 2.1-0.2 3.9 0.3 8.6 4.7 13.6 12.7 14.2 9.1 0.7 15-3.5 15.9-12.4 0.7-7.3 0.6-14.8 0.5-22.3-0.1-3.3-2.2-4.3-5.2-2.1zm87.9 23.7c0.7 0.7 1.5 1.3 2.7 2.5 3.1 3 6.2 6 9.4 9.6 1.6-0.4 3.3-0.9 5.5-0.7 8.2 4.1 18.5-1 17.3-10.9-0.8-6.6-0.4-13.3-0.1-19.9 0.3-4.5-1.4-6.1-5.7-5.7-1.1 0.1-2.4-0.2-3.4 0.1-1.5 0.5-2.9 1.4-4.3 2.2 1.3 0.9 2.5 2.5 3.8 2.6 2.9 0.3 4.1 1.4 4 4.4-0.1 5.3 0.1 10.6 0 15.9-0.2 5.5-2.1 7-7.5 6.9-1.8 0-3.7 1.3-6.1 1.2-0.8-0.3-1.6-0.7-2.7-1.4-0.1-0.3-0.4-0.5-0.6-1.3-0.8-0.6-1.6-1.3-2.7-2.5-1.4-1.6-2.9-3.2-4.1-5.5-0.1-0.6-0.1-1.2 0.4-2.1 4.8-2.9 6-7.4 5.2-12.5-0.8-4.6-4.2-7.3-8.6-7.8-4.3-0.5-8.7-0.5-12.9-0.2-1.3 0.1-3.3 2.1-3.3 3.2q-0.4 15.5 0 30.9c0 1.2 2.1 2.3 3.2 3.5 1.1-1.3 2.5-2.3 3.1-3.8 0.6-1 0.1-2.6 0.1-3.9 0.1-7.2 0.4-7.4 7.4-5.5 0 0 0 0-0.1 0.7zm-203.9-22.4c-0.4-0.4-0.7-0.8-1.2-1.9-2.1 0.3-4.2 0.5-6.6 1.3 0 0.1-0.1 0.3-0.8 0.6-1.7 4.9-3.3 9.8-5.4 15.2 0 0.5-0.1 0.9-0.8 1.5-1.7 4.3-3.6 8.6-5 13-0.5 1.4 0.3 3.2 0.5 4.8 1.7-0.7 3.8-1 5-2.1 1.1-1 0.9-3.2 1.8-4.5 1-1.4 2.7-3.2 3.9-3.1 5.7 0.3 13-2.1 14.2 7.2 0.1 0.8 0.8 1.7 1.5 2 1.1 0.4 2.7 0.8 3.6 0.3 0.8-0.4 1.6-2.3 1.3-3.1-1.4-3.7-3.2-7.2-4.9-11.4-0.2-0.6-0.5-1.2-0.5-2.6-2.1-5.5-4.3-11.1-6.6-17.2zm0.5-159.2c1.9 15.9 3.5 31.9 5.6 47.9 0.4 2.4 2 5.6 4 6.8 15.2 9.2 30.7 17.9 46.1 26.8 22.8 13.2 45.7 26.4 68.5 39.7 3.2 1.9 5.9 1.9 8.9 0.3q15.9-8.8 31.8-17.6c18.7-10.4 37.4-20.9 56.1-31.3 10.8-5.9 21.7-11.7 32.3-17.8 2.1-1.2 4.8-3.3 5.1-5.4 2.3-14.8 4.3-29.8 6-44.8 1.7-13.8 2.8-27.7 4.4-41.5 1.7-15.1 3.8-30.2 5.7-45.4q2-16.2 3.9-32.5c1.1-9.7 2.3-19.5 2.9-29.2 0.2-1.7-1.6-4.4-3.2-5.1-7-3-14.2-5.4-21.4-7.9-18.4-6.5-36.9-12.7-55.3-19.2-20.4-7.2-40.6-14.6-61-21.7-3.5-1.2-7.6-2.4-11-1.7-6.1 1.3-11.9 4-17.8 6.1-16.3 6.1-32.6 12.3-49 18.2-25.6 9.2-51.3 18.1-76.8 27.4-1.3 0.5-2.7 3.3-2.6 4.8 0.4 6.3 1.5 12.5 2.2 18.8 2.2 19.2 4.1 38.5 6.3 57.8 2.6 21.9 5.4 43.7 8.3 66.5zm262.9 172.1c-2.3-0.5-4.7-0.5-6.8-1.5-1.6-0.7-4-2.9-3.7-3.7 0.6-1.9 2.5-4.6 4-4.7 3.7-0.2 7.4 1 11.1 1.3 1.7 0.2 3.4-0.3 5.1-0.4-0.8-2-1.1-5.2-2.4-5.7-6.3-2.3-12.9-3.5-19.3 0-4.3 2.4-6.8 5.7-6.2 10.9 0.6 5 3.9 7.2 8.1 8.5 2.8 0.9 6 0.8 8.6 2 2.3 1.1 4 3.4 5.9 5.1-2 1.5-4 4-6.1 4.1-3.6 0.2-7.4-1.2-11.1-1.6-1.8-0.2-3.6 0.3-5.4 0.4 1 2 1.6 5.3 3.1 5.8 4.4 1.3 9.2 2.5 13.6 1.8 3.9-0.6 8.5-2.9 10.8-6 5-6.6 1-13.5-9.3-16.3z"/><path fill-rule="evenodd" class="b" d="m93.4 218.6c-2.8-22.3-5.6-44.1-8.2-66-2.2-19.3-4.1-38.6-6.3-57.8-0.7-6.3-1.8-12.5-2.2-18.8-0.1-1.5 1.3-4.3 2.6-4.8 25.5-9.3 51.2-18.2 76.8-27.4 16.4-5.9 32.7-12.1 49-18.2 5.9-2.1 11.7-4.8 17.8-6.1 3.4-0.7 7.5 0.5 11 1.7 20.4 7.1 40.6 14.5 61 21.7 18.4 6.5 36.9 12.7 55.3 19.2 7.2 2.5 14.4 4.9 21.4 7.9 1.6 0.7 3.4 3.4 3.2 5.1-0.6 9.7-1.8 19.5-2.9 29.2q-1.9 16.3-3.9 32.5c-1.9 15.2-4 30.3-5.7 45.4-1.6 13.8-2.7 27.7-4.4 41.5-1.7 15-3.7 30-6 44.8-0.3 2.1-3 4.2-5.1 5.4-10.6 6.1-21.5 11.9-32.3 17.8-18.7 10.4-37.4 20.9-56.1 31.3q-15.9 8.8-31.8 17.6c-3 1.6-5.7 1.6-8.9-0.3-22.8-13.3-45.7-26.5-68.5-39.7-15.4-8.9-30.9-17.6-46.1-26.8-2-1.2-3.6-4.4-4-6.8-2.1-16-3.7-32-5.7-48.4zm127.8-182.8c-2.1 0.6-4.2 1-6.2 1.7-39.9 14.5-79.7 29.1-119.5 43.4-4.4 1.5-6.1 3.4-5.5 8.1 2.2 18.3 4 36.7 6.1 55 2.9 25.2 5.9 50.4 8.9 75.7 1.5 13.3 3.1 26.6 4.9 40 0.2 1.6 1.5 3.8 2.9 4.6 33.4 19 66.8 37.9 100.3 56.7 2.8 1.6 5.9 2.7 9.6 4.1 3.2-1.5 6.4-2.8 9.4-4.5 33.7-19 67.5-38 101.1-57.2 1.9-1.1 3.4-4 3.8-6.2 1.4-9.2 2.3-18.4 3.5-27.7 2.5-19.7 5.1-39.5 7.5-59.2 2.3-18.3 4.5-36.6 6.7-54.9q1.7-14.1 3.4-28.2c0.3-2.7 0.3-5.1-3.2-6.2-16.1-5.4-32-11-48-16.6-21-7.3-42-14.7-63.1-21.9-7.1-2.5-14.5-4.4-22.6-6.7z"/><path class="c" d="m153.4 384.8c-0.4 4.5-1.7 9.2-1.1 13.5 1.2 7.9 10.9 12.3 18 8.5 1.1-0.6 1.8-3 1.7-4.5-0.1-1-1.8-2.1-3-2.8-0.7-0.4-2.2 0.2-2.9-0.2-1.3-0.9-2.4-2.2-3.5-3.3 1.2-0.9 2.3-2.3 3.6-2.5 11.3-1.4 15.1 3.1 12.3 14.4-0.3 1-1 2.1-1.9 2.7-8.5 5.3-25 4.5-30-6.8-3.5-8.1-1.7-19.2 4.3-24.5 6.1-5.4 18.4-6.4 25.3-1.7 1.3 1 1.4 3.8 2 5.8-1.6-0.1-3.2 0.1-4.7-0.3-1.6-0.4-3-1.4-4.3-2.6 2.5 0.2 4.8 0.8 7.3 1.6-0.9-3.5-3.5-5-8.4-5.2-11.7-0.6-17.2 1.9-20 9.1-3.2 8.5-1.4 17.2 4.8 22.5 1.8 1.1 3.4 2.4 5 2.5 4.3 0.3 8.7 0.5 12.9 0 2-0.3 5.3-1.8 5.5-3.2 0.7-3.8 0.1-7.9-0.1-11.8 0-0.2-1.1-0.7-1.7-0.6-2.9 0.1-5.8 0.4-8.7 0.7 0.8 0.8 1.6 1.1 2.4 1 4.5-0.6 5.6 1.8 5.7 5.9 0.1 4.6-2.3 6.3-6.2 6.8-4.8 0.6-9.5 0.2-13.6-3.6-6.2-8.3-6.4-14.9-0.7-21.4z"/><path fill-rule="evenodd" class="d" d="m227.2 405.8c6.1 0.5 12.1 1.1 18.2 1.3 0.7 0.1 1.8-1.8 2.2-2.9 2.5-6.7 4.9-13.4 7.4-20 0.6-1.7 1.6-3.3 2.8-4.7-0.2 1.8-1.1 3.5-1.1 5.2-0.1 1.7 0.8 3.5 1.3 5.7-0.2 2.4-0.4 4.5-0.9 8.2 3.8-1.4 6.8-2.5 10.1-3.4 0.8 2.1 1.1 4.1 1.8 5.9 1.2 3 2.7 5.8 4.2 9 3.2 3.3 3.5 0.4 4.2-1.6q0 2 0.1 4.1c-1.5-0.1-3.2 0.1-4.6-0.5-0.8-0.4-1.5-1.9-1.7-2.9-0.8-5.5-3.9-6.4-9.1-6.2-5.2 0.2-8.4 1.1-9.8 6.6-0.4 1.5-3.2 3.4-5 3.5-7 0.4-14 0.4-20.9 0-1.6-0.1-4.5-2.1-4.5-3.2-0.2-10.9 0.1-21.9 0.7-32.4 0.5 10 0.4 19.7 0.6 29.4 0 1.5 1.1 4.3 1.9 4.3 6.4 0.4 12.9 0.2 19.4 0.2q0.2-0.9 0.3-1.9c-1.6-0.4-3.2-1.1-4.8-1.2-3.2-0.2-6.4 0.2-9.5-0.2-1.2-0.1-2.2-1.5-3.3-2.3zm22.5 5c1.1-2.5 1.6-5.7 3.5-7.3 3.9-3.4 2-6.6 0.2-10.4-1.9 5.6-3.7 11.3-5.3 17.5 0.3 0.1 0.6 0.2 1.6 0.2z"/><path fill-rule="evenodd" class="e" d="m356.8 391.3c9.9 2.7 13.9 9.6 8.9 16.2-2.3 3.1-6.9 5.4-10.8 6-4.4 0.7-9.2-0.5-13.6-1.8-1.5-0.5-2.1-3.8-3.1-5.8 1.8-0.1 3.6-0.6 5.4-0.4 3.7 0.4 7.5 1.8 11.1 1.6 2.1-0.1 4.1-2.6 6.1-4.1-1.9-1.7-3.6-4-5.9-5.1-2.6-1.2-5.8-1.1-8.6-2-4.2-1.3-7.5-3.5-8.1-8.5-0.6-5.2 1.9-8.5 6.2-10.9 6.4-3.5 13-2.3 19.3 0 1.3 0.5 1.6 3.7 2.4 5.7-1.7 0.1-3.4 0.6-5.1 0.4-3.7-0.3-7.4-1.5-11.1-1.3-1.5 0.1-3.4 2.8-4 4.7-0.3 0.8 2.1 3 3.7 3.7 2.1 1 4.5 1 7.2 1.6zm-10.9 17.4q-2.6-0.9-5.2-1.9-0.4 0.6-0.8 1.1c0.8 0.9 1.5 2.5 2.3 2.6 5.9 0.2 11.9 1 17.5-0.2 4.1-0.9 7.2-4.9 6.1-10-1-4.8-4.7-6.5-9.1-7.2-2.3-0.4-4.5-0.8-6.8-1.2-3.5-0.8-6.7-2.3-6.6-6.3 0.1-4.1 3.3-5.9 7.1-6.3 2.1-0.3 4.3-0.1 6.4 0.2 2.2 0.3 4.4 1 6.6 1.5q0.3-0.8 0.7-1.5c-1.6-0.9-3.1-2.2-4.8-2.4-2.6-0.5-5.3-0.2-7.9-0.2-6.6 0-11 3.5-11.3 8.7-0.3 4.9 3.7 8.5 10.2 9.5 2.9 0.4 5.9 1 8.7 2.1 4.5 1.9 5.3 6.2 1.6 9.5-4 3.7-8.8 4-14.7 2z"/><path class="f" d="m313.1 409.6c1.8-0.6 3.7-1.9 5.5-1.9 5.4 0.1 7.3-1.4 7.5-6.9 0.1-5.3-0.1-10.6 0-15.9 0.1-3-1.1-4.1-4-4.4-1.3-0.1-2.5-1.7-3.8-2.6 1.4-0.8 2.8-1.7 4.3-2.2 1-0.3 2.3 0 3.4-0.1 4.3-0.4 6 1.2 5.7 5.7-0.3 6.6-0.7 13.3 0.1 19.9 1.2 9.9-9.1 15-17.6 10.5-0.6-1-0.9-1.5-1.1-2.1z"/><path class="g" d="m91.9 377.1c0.4 0.4 0.7 0.8 1.1 1.9 2.1 6.2 4.2 11.7 6.4 17.2 0.2 0.7 0.5 1.3 0.6 2.6 1 4.4 2.1 8.1 3.2 11.8q-0.8 0.4-1.7 0.7-3.2-5.7-6.5-11.5 0.3 0 0.5-0.1c-1.1-2.9-2.1-5.9-3.3-9.1-1.1-2.5-1.9-4.6-2.7-6.7q-0.9-0.1-1.8-0.2c-1.4 3.7-2.8 7.5-4.5 11.3 0.1 2 0.4 3.9 0.8 6-7.4-1.3-3.1 9.4-10 10 0.7-2.2 1.1-3.9 1.6-5.5q1.6-5.4 3.2-10.7c0.1-0.4 0.2-0.8 0.7-1.6 2.2-5.3 3.9-10.2 5.6-15 0-0.2 0.1-0.4 0.6-0.7 2.4-0.3 4.3-0.4 6.2-0.4z"/><path class="h" d="m302.2 398.8c1.4 1.7 2.9 3.3 4.4 5.5 0.9 1.3 1.7 1.9 2.6 2.6 0.2 0.1 0.5 0.3 0.7 1.1 0.6 1.3 1.1 2 1.6 2.9-1 0.5-1.9 0.9-2.7 1.3-3-3-6.1-6-9.4-9.6-0.9-1.2-1.7-1.9-2.4-2.6 0 0 0 0 0-0.3-1.6-1.5-3.2-2.6-4.6-4.1 1.7-0.9 3.2-1.5 5.1-2.3 1.7-1.9 3.1-3.6 4.8-5.4 0.1-1-0.1-2-0.3-3.2-0.7-1.2-1.3-2-1.9-3.3-0.9-0.5-1.7-0.7-2.9-0.9-0.9-0.1-1.5-0.1-2.4-0.5-3.1-1.1-6.7-1.5-7.2 2-0.8 4.7-2.3 10.2 2.6 14.3-0.5 0.7-0.9 1.1-1.6 1.6-0.7 0.7-1.1 1.4-1.5 2.6-0.1 3.7-0.1 6.9-0.1 10.1q-0.9 0-1.7-0.1c0-10.9 0-21.9 0-33.5 3 0 6 0.1 8.9 0 4.9-0.3 9.4 1.1 11.3 5.5 2.1 4.6 0.5 9.2-3.8 12.6-1.8 1.7-2.7 3.2 0.5 3.7z"/><path class="i" d="m288.9 397.8c0.4-0.4 0.8-0.8 1.6-1.5 0.8-0.3 1.3-0.3 1.7-0.4 1.6 1.2 3.2 2.3 4.8 3.8-7-1.6-7.3-1.4-7.4 5.8 0 1.3 0.5 2.9-0.1 3.9-0.6 1.5-2 2.5-3.1 3.8-1.1-1.2-3.2-2.3-3.2-3.5q-0.4-15.4 0-30.9c0-1.1 2-3.1 3.3-3.2 4.2-0.3 8.6-0.3 12.9 0.2 4.4 0.5 7.8 3.2 8.6 7.8 0.8 5.1-0.4 9.6-5.6 12.3-0.3-0.4-0.4-0.6-0.4-0.8 4-3.4 5.6-8 3.5-12.6-1.9-4.4-6.4-5.8-11.3-5.5-2.9 0.1-5.9 0-8.9 0 0 11.6 0 22.6 0 33.5q0.8 0.1 1.7 0.1c0-3.2 0-6.4 0.4-10.2 0.7-1.2 1.1-1.9 1.5-2.6z"/><path class="j" d="m185.4 387.9c-0.2-2.9-0.8-5.8-0.5-8.7 0.1-1.3 1.9-2.4 2.9-3.6 1.2 1.3 3.3 2.5 3.4 3.8 0.3 6.8 0 13.6 0.2 20.4 0.1 5.5 2.8 7.9 8 8 5.1 0 8-2.7 8.1-8 0.2-6 0.1-12 0.1-17.9 0.1-1.6 0.4-3.3 1-4.4 0.4 7.9 0.5 15.4 0.2 22.9 0 2-0.6 4.3-1.8 5.9-3 3.9-7.2 4.7-11.7 3.1-4.8-1.7-5.9-6-6.1-10.4-0.3-5.7-0.1-11.4-0.1-17-0.1-1.4-0.5-2.9-0.7-4.3q-0.8 0-1.7 0.1-0.6 5-1.3 10.1z"/><path class="k" d="m78.5 394.9c-0.7 3.5-1.8 7-2.9 10.6-0.5 1.6-0.9 3.3-1.6 5.5 6.9-0.6 2.6-11.3 10-10-0.4-2.1-0.7-4-0.7-5.6 3.2 0.9 6 1.6 8.8 2.2q0.1-3.4 0.3-6.7 1.5 4.4 3.1 8.8-0.2 0.1-0.5 0.1 3.3 5.8 6.5 11.5 0.9-0.3 1.7-0.7c-1.1-3.7-2.2-7.4-3.1-11.4 1.7 3.1 3.5 6.6 4.9 10.3 0.3 0.8-0.5 2.7-1.3 3.1-0.9 0.5-2.5 0.1-3.6-0.3-0.7-0.3-1.4-1.2-1.5-2-1.2-9.3-8.5-6.9-14.2-7.2-1.2-0.1-2.9 1.7-3.9 3.1-0.9 1.3-0.7 3.5-1.8 4.5-1.2 1.1-3.3 1.4-5 2.1-0.2-1.6-1-3.4-0.5-4.8 1.4-4.4 3.3-8.7 5.3-13.1z"/><path class="l" d="m185.4 388.3c0.4-3.8 0.9-7.2 1.3-10.5q0.9-0.1 1.7-0.1c0.2 1.4 0.6 2.9 0.7 4.3 0 5.6-0.2 11.3 0.1 17 0.2 4.4 1.3 8.7 6.1 10.4 4.5 1.6 8.7 0.8 11.7-3.1 1.2-1.6 1.8-3.9 1.8-5.9 0.3-7.5 0.2-15 0.2-22.9 0-0.5 0-0.5 0.4-0.4 1.1 1.6 2.5 3 2.5 4.4 0.2 5.9 0.1 11.7 0.1 17.5-0.2 8.7-2.6 12.1-10.6 12.4-8.4 0.3-11.4 0.8-14.3-9.2-0.4-1.2-1-2.3-1.5-3.4-0.1-1-0.2-2.1 0-3.6 0.1-1.4 0-2.3-0.2-3.2 0-1.1-0.1-2.2 0-3.7z"/><path class="m" d="m227.2 405.3c1.1 1.3 2.1 2.7 3.3 2.8 3.1 0.4 6.3 0 9.5 0.2 1.6 0.1 3.2 0.8 4.8 1.2q-0.1 1-0.3 1.9c-6.5 0-13 0.2-19.4-0.2-0.8 0-1.9-2.8-1.9-4.3-0.2-9.7-0.1-19.4-0.2-29.5-0.1-0.5-0.1-0.4 0.3-0.4 1.5 0 2.5 0 3.6 0.1 0.1 9.2 0.2 18.5 0.3 28.2z"/><path class="n" d="m273.1 409.8c-1.4-2.9-2.9-5.7-4.1-8.7-0.7-1.8-1-3.8-1.9-6.2-0.7-1.6-1.1-2.7-1.4-4.1-0.3-0.8-0.6-1.3-1-2.1-1-1.8-2-3.3-3.3-5.3-1.4 2.7-2.4 4.6-3.4 6.6-0.5-1.8-1.4-3.6-1.3-5.3 0-1.7 0.9-3.4 1.3-5.5-0.2-0.4-0.2-0.8 0.3-1 0.6-0.7 0.8-1.2 0.9-1.7 0.7-0.1 1.4-0.3 2.7 0 1.4 0.3 2.3 0.4 3.2 0.4 0.6 1.2 1.2 2.3 1.7 4.2 2.5 6.9 4.9 13 7.4 19.2 0.7 1.9 1.5 3.9 2 6.4-1.2 1.3-2.2 2.2-3.1 3.1z"/><path class="o" d="m125.9 391.2c1.1 1.3 2.2 2.7 3.2 4.1 0.9 1.5 1.7 3.1 2.6 4.6q0.6-0.1 1.3-0.2c0-6.2-0.1-12.4 0-18.6 0.1-2-1.2-5.2 2.6-5.3 3.5 0 3 2.8 3 5.1 0 8.9 0 17.7 0 26.5 0 6-1.9 7-7 3.8 1.9-0.3 3.5-0.3 4.7-0.3 0-11.3 0-21.9 0-32.5q-0.8 0-1.5 0 0 2.3 0 4.7 0 8.4 0 16.9c0 2.6-0.5 4.4-3.8 3.3-1.7-4.3-3.4-8.2-5.1-12.1z"/><path class="p" d="m124.7 398.3q-3.9-6.1-7.8-12.1-0.6 0-1.2 0.1c0 6.4 0.2 12.7-0.1 19-0.1 2.6 1.8 7.1-2.7 7.2-4.9 0.2-2.6-4.5-2.7-7-0.3-7.8-0.1-15.6-0.1-23.4 0-7 0.7-7.5 7.5-5.5-2.1 0.5-3.7 0.6-5 0.7 0 11.4 0 22.3 0 33.2q0.9 0 1.8-0.1 0-14.1 0-28.2 0.7-0.2 1.5-0.3c4.1 4.8 7.3 10.1 8.8 16.4z"/><path class="j" d="m185.3 399.2c0.8 0.7 1.4 1.8 1.8 3 2.9 10 5.9 9.5 14.3 9.2 8-0.3 10.4-3.7 10.6-12.4 0-5.8 0.1-11.6-0.1-17.5 0-1.4-1.4-2.8-2.5-4.4 2.6-2.3 4.7-1.3 4.8 2 0.1 7.5 0.2 15-0.5 22.3-0.9 8.9-6.8 13.1-15.9 12.4-8-0.6-12.4-5.6-12.5-14.6z"/><path class="q" d="m124.7 398.6c-1.5-6.6-4.7-11.9-8.8-16.7q-0.8 0.1-1.5 0.3 0 14.1 0 28.2-0.9 0.1-1.8 0.1c0-10.9 0-21.8 0-33.2 1.3-0.1 2.9-0.2 5-0.3 0.6 0.3 0.8 0.5 1.1 1.3 2.5 4.6 4.9 8.7 7.2 12.8 0 0 0.1 0 0 0 1.7 4 3.4 7.9 5.1 12.6 0 1.9 0 3-0.2 4-0.7-0.3-1.2-0.5-1.7-0.7-0.4-0.8-0.7-1.5-1.1-2.9-0.2-0.8-0.5-1-0.8-1.2-0.8-1.3-1.6-2.6-2.5-4.3z"/><path class="r" d="m152.7 408.2c-6-5-7.8-13.7-4.6-22.2 2.8-7.2 8.3-9.7 20-9.1 4.9 0.2 7.5 1.7 8.4 5.2-2.5-0.8-4.8-1.4-7.4-1.9-1.1 0.1-1.8 0-2.7-0.5-1.7-0.2-3 0-4.4 0.2-1.1 0.3-2.3 0.5-4.1 0.8-1.1 0.6-1.6 1.2-2.1 1.8-0.6 0.6-1.2 1.3-2.1 2.1-6 6.7-5.8 13.3 0.3 22-0.5 0.9-0.9 1.2-1.3 1.6z"/><path class="s" d="m131 407.9c0-1.2 0-2.3 0.1-3.8 3.2 0.3 3.7-1.5 3.7-4.1q0-8.5 0-16.9 0-2.4 0-4.7 0.7 0 1.5 0c0 10.6 0 21.2 0 32.5-1.2 0-2.8 0-4.8 0-0.4 0-0.7-0.3-0.5-0.8 0.1-1.2 0.1-1.7 0-2.2z"/><path class="d" d="m274.3 399.9c-2.6-5.8-5-11.9-7.4-18.4 2.6 5.7 5.1 11.9 7.4 18.4z"/><path class="k" d="m99.5 395.9q-3.4-7.8-6.5-16.7 3.4 7.8 6.5 16.7z"/><path class="k" d="m84.8 378.2q-2.1 7.3-5.1 14.7 2-7.2 5.1-14.7z"/><path class="p" d="m126 390.7q-3.6-5.6-7.1-12.2 3.6 5.5 7.1 12.2z"/><path class="i" d="m308.9 412.5c0.7-0.7 1.6-1.1 2.6-1.6-0.5-0.9-1-1.6-1.5-2.7 0.9 0 1.7 0.4 2.8 1.1 0.5 0.9 0.8 1.4 1.1 2.1-1.6 0.5-3.3 1-5 1.1z"/><path class="k" d="m91.9 376.7c-1.9 0.4-3.8 0.5-6.1 0.5 1.8-0.3 3.9-0.5 6.1-0.5z"/><path class="t" d="m273.2 410.1c0.8-1.2 1.8-2.1 3.1-3.1 0.6 0.3 0.8 0.6 1.1 1.2-0.7 2.3-1 5.2-4.2 1.9z"/><path class="c" d="m162.2 380.1c1.2-0.4 2.5-0.6 3.8-0.5-1.2 0.4-2.4 0.6-3.8 0.5z"/><path class="d" d="m226.9 376.7c-1.1 0.3-2.1 0.3-3.6 0.3 0.9-0.2 2.3-0.4 3.6-0.3z"/><path class="u" d="m301.7 395.1c0.3 0.2 0.4 0.4 0.4 0.9 0.2 1 0.2 1.6 0.2 2.5-3.3-0.2-2.4-1.7-0.6-3.4z"/><path class="d" d="m265.1 376.6c-0.9 0.3-1.8 0.2-2.9-0.1 0.8-0.2 1.8-0.2 2.9 0.1z"/><path class="j" d="m185.2 392.2q0.6 1.1 0.4 2.6-0.5-1.1-0.4-2.6z"/><path class="i" d="m296.9 400.4q1.2 0.5 2.3 2-1.2-0.5-2.3-2z"/><path class="o" d="m130.8 407.7c0.3 0.7 0.3 1.2 0.2 2.1-0.8-0.5-1.3-1.3-1.9-2.5 0.5-0.1 1 0.1 1.7 0.4z"/><path class="u" d="m309.2 406.5c-0.9-0.3-1.7-0.9-2.5-1.9 0.9 0.3 1.7 1 2.5 1.9z"/><path class="c" d="m156.1 382.6q0.3-1 1.4-1.8-0.2 1.1-1.4 1.8z"/><path class="d" d="m258.9 376.4c0.2 0.6 0 1.1-0.5 1.6-0.1-0.5 0.1-1.1 0.5-1.6z"/><path class="o" d="m127.3 403.1c0.2 0 0.5 0.2 0.7 0.7-0.3 0.1-0.5-0.2-0.7-0.7z"/><path class="v" d="m222 35.9c7.3 2.2 14.7 4.1 21.8 6.6 21.1 7.2 42.1 14.6 63.1 21.9 16 5.6 31.9 11.2 48 16.6 3.5 1.1 3.5 3.5 3.2 6.2q-1.7 14.1-3.4 28.2c-2.2 18.3-4.4 36.6-6.7 54.9-2.4 19.7-5 39.5-7.5 59.2-1.2 9.3-2.1 18.5-3.5 27.7-0.4 2.2-1.9 5.1-3.8 6.2-33.6 19.2-67.4 38.2-101.1 57.2-3 1.7-6.2 3-9.7 4-0.5-18.1-0.7-35.7-0.8-53.4 0-15.1-0.1-30.3 0.1-45.4 0.1-5.7 0.8-11.5 1.7-17.4 12.1-0.2 23.8 0.1 35.4-0.6 5.6-0.3 8.1 2 10 6.8 5 12.4 10.5 24.7 15.5 37.2 1.3 3.1 2.8 4.3 6.2 4.3 7.6 0 15.3 0.4 22.9 0.7 4.6 0.1 5.6-1.2 3.7-5.3-15.7-34.3-31.5-68.6-47.3-102.9-8.4-18.2-16.7-36.6-25.1-54.9-7.2-15.7-14.4-31.3-21.7-47.4-0.4-3.6-0.7-7-1-10.4z"/><path class="w" d="m223 208.5c-0.5 5.8-1.2 11.6-1.3 17.3-0.2 15.1-0.1 30.3-0.1 45.4 0.1 17.7 0.3 35.3 0.4 53.4-3-0.9-6.1-2-8.9-3.6-33.5-18.8-66.9-37.7-100.3-56.7-1.4-0.8-2.7-3-2.9-4.6-1.8-13.4-3.4-26.7-4.9-40-3-25.3-6-50.5-8.9-75.7-2.1-18.3-3.9-36.7-6.1-55-0.6-4.7 1.1-6.6 5.5-8.1 39.8-14.3 79.6-28.9 119.5-43.4 2-0.7 4.1-1.1 6.6-1.6 0.7 3.4 1 6.8 1 10.6-0.7 1.4-1.2 2.4-1.8 3.6-0.6 0.9-1.1 1.4-1.3 2q-18.1 40.8-36.1 81.7-23.3 52.9-46.6 105.9c-2.2 4.9-4.3 9.9-6.4 14.9 1.2 0.6 1.6 1 2 1 9.8 0 19.6 0 29.4-0.4 1.3 0 3.2-1.9 3.8-3.3q7.8-19.4 15.2-39c1.3-3.6 3.1-5.2 7.2-5.2 11.6 0.2 23.3-0.1 34.9 0.1 0 0.4 0 0.6 0.1 0.7z"/><path class="s" d="m152.9 408.5c0.2-0.7 0.6-1 1.2-1.6 4.1 3.1 8.8 3.5 13.6 2.9 3.9-0.5 6.3-2.2 6.2-6.8-0.1-4.1-1.2-6.5-5.7-5.9-0.8 0.1-1.6-0.2-2.4-1 2.9-0.3 5.8-0.6 8.7-0.7 0.6-0.1 1.7 0.4 1.7 0.6 0.2 3.9 0.8 8 0.1 11.8-0.2 1.4-3.5 2.9-5.5 3.2-4.2 0.5-8.6 0.3-12.9 0-1.6-0.1-3.2-1.4-5-2.5z"/><path class="x" d="m258 390.4c1-2.4 2-4.3 3.4-7 1.3 2 2.3 3.5 3 5.5 0.3 1 0.7 1.6 1.2 2.2 0.4 1.1 0.8 2.2 1.2 3.6-2.9 1.4-5.9 2.5-9.7 3.9 0.5-3.7 0.7-5.8 0.9-8.2z"/><path class="y" d="m247.9 410.1q2.7-8.5 5.5-17c1.8 3.8 3.7 7-0.2 10.4-1.9 1.6-2.4 4.8-4 7.2-0.7-0.4-1-0.6-1.3-0.6z"/><path class="m" d="m248 410.3c0.2-0.2 0.5 0 0.9 0.4-0.2 0.1-0.5 0-0.9-0.4z"/><path class="z" d="m346.3 408.8c5.5 1.9 10.3 1.6 14.3-2.1 3.7-3.3 2.9-7.6-1.6-9.5-2.8-1.1-5.8-1.7-8.7-2.1-6.5-1-10.5-4.6-10.2-9.5 0.3-5.2 4.7-8.7 11.3-8.7 2.6 0 5.3-0.3 7.9 0.2 1.7 0.2 3.2 1.5 4.8 2.4q-0.4 0.7-0.7 1.5c-2.2-0.5-4.4-1.2-6.6-1.5-2.1-0.3-4.3-0.5-6.4-0.2-3.8 0.4-7 2.2-7.1 6.3-0.1 4 3.1 5.5 6.6 6.3 2.3 0.4 4.5 0.8 6.8 1.2 4.4 0.7 8.1 2.4 9.1 7.2 1.1 5.1-2 9.1-6.1 10-5.6 1.2-11.6 0.4-17.5 0.2-0.8-0.1-1.5-1.7-2.3-2.6q0.4-0.5 0.8-1.1c1.8 0.7 3.5 1.3 5.6 2z"/><path class="A" d="m92.2 390.6c0.1 2.5 0 4.8-0.1 7-2.8-0.6-5.6-1.3-8.5-2.3 1.3-4.1 2.7-7.9 4.1-11.6q0.9 0.1 1.8 0.2c0.8 2.1 1.6 4.2 2.7 6.7z"/><path class="B" d="m300.1 381.8c0.6 0.9 1.2 1.7 1.8 3.2 0 1.5 0 2.2 0.1 3-1.4 1.7-2.8 3.4-4.8 5.2-3.1-0.5-6.6-0.3-7.5-1.7-3-4.7 0-10.2 5.3-11.2 0.7 0.1 1.3 0.1 2.4 0.5 1.2 0.5 2 0.8 2.7 1z"/><path class="C" d="m294.8 380c-5.1 1.3-8.1 6.8-5.1 11.5 0.9 1.4 4.4 1.2 7.1 1.8-1.2 0.8-2.7 1.4-4.4 2.3-0.6 0.4-1.1 0.4-1.8 0.4-5.3-3.8-3.8-9.3-3-14 0.5-3.5 4.1-3.1 7.2-2z"/><path class="C" d="m302.3 387.9c-0.4-0.7-0.4-1.4-0.4-2.5 0.3 0.5 0.5 1.5 0.4 2.5z"/><path class="C" d="m288.6 397.9q-0.1 0.9-1.2 2.1 0.1-1 1.2-2.1z"/><path class="C" d="m300.1 381.4c-0.7 0.2-1.5-0.1-2.4-0.6 0.7-0.1 1.5 0.1 2.4 0.6z"/><path class="D" d="m265.7 390.8c-0.6-0.3-1-0.9-1.2-1.6 0.6 0.3 0.9 0.8 1.2 1.6z"/><path class="E" d="m220.9 49.8c0.5-0.9 1-1.9 1.8-3 7.6 15.6 14.8 31.2 22 46.9 8.4 18.3 16.7 36.7 25.1 54.9 15.8 34.3 31.6 68.6 47.3 102.9 1.9 4.1 0.9 5.4-3.7 5.3-7.6-0.3-15.3-0.7-22.9-0.7-3.4 0-4.9-1.2-6.2-4.3-5-12.5-10.5-24.8-15.5-37.2-1.9-4.8-4.4-7.1-10-6.8-11.6 0.7-23.3 0.4-35.4 0.6-0.5 0-0.5-0.2-0.5-1.1 0-9.5 0-18.3 0.5-27.3 8.8-0.1 17.1-0.1 25.4-0.1 3.1-0.1 5-0.6 3.2-4.5-8.4-17.5-16.5-35.2-24.8-52.7-1-2.2-2.7-4-4.3-6.1-0.4-0.6-0.7-0.8-0.9-1.5 0.4-1.8 0.9-3.3 0.9-4.7q0.1-29.1-0.1-58.1c0-0.9-1.2-1.7-1.9-2.5z"/><path class="F" d="m220.8 50.1c0.8 0.5 2 1.3 2 2.2q0.2 29 0.1 58.1c0 1.4-0.5 2.9-1.1 5-9 21.5-17.7 42.2-26.8 63.9 9.7 0 18.4 0 27.3 0.2 0.3 0.4 0.5 0.5 0.7 0.7-0.1 8.8-0.1 17.6-0.1 26.9-11.6 0.5-23.3 0.8-34.9 0.6-4.1 0-5.9 1.6-7.2 5.2q-7.4 19.6-15.2 39c-0.6 1.4-2.5 3.3-3.8 3.3-9.8 0.4-19.6 0.4-29.4 0.4-0.4 0-0.8-0.4-2-1 2.1-5 4.2-10 6.4-14.9q23.3-53 46.6-105.9 18-40.9 36.1-81.7c0.2-0.6 0.7-1.1 1.3-2z"/><path class="G" d="m223.4 180c-0.6 0-0.8-0.1-1.1-0.9-0.3-19.3-0.3-37.9-0.2-56.5 0-2 0.6-3.9 1-5.8 1.4 1.9 3.1 3.7 4.1 5.9 8.3 17.5 16.4 35.2 24.8 52.7 1.8 3.9-0.1 4.4-3.2 4.5-8.3 0-16.6 0-25.4 0.1z"/><path class="H" d="m222.9 116.6c-0.2 2.1-0.8 4-0.8 6-0.1 18.6-0.1 37.2-0.1 56.3-8.6 0.4-17.3 0.4-27 0.4 9.1-21.7 17.8-42.4 26.7-63.5 0.5 0 0.8 0.2 1.2 0.8z"/></svg>