<svg version="1.2" xmlns="http://www.w3.org/2000/svg" viewBox="0 0 1024 1024" width="100" height="100">
	<title>image-svg</title>
	<style>
		.s0 { fill: #f05138 } 
		.s1 { fill: #2d9ad5 } 
		.s2 { fill: #f9c513 } 
		.s3 { fill: #000000 } 
		.s4 { fill: #ffffff } 
	</style>
	<path id="Layer" fill-rule="evenodd" class="s0" d="m678 1q173.4 0 347 0c0 341.2 0 682.4 0 1024-115.4 0-230.7 0-346.5-0.5-0.5-124.3-0.5-248.2-0.5-372.4-10.7 0-20.8 0-31.2 0-0.5-0.1-0.7-0.2-0.8-0.7 0-109.1 0-217.7 0.2-326.3 0.5-0.1 0.7-0.2 1.3-0.2 10.4 0.1 20.3 0.1 30.5 0.1 0-108.4 0-216.2 0-324zm0.8 626.5c0 8.1 0 16.2 0 24.2 28.5 0 56.2 0 84.2 0 0-17.7 0-35 0-52.3 0-1.7 0.1-4 1-5.2 6.7-8.1 13.6-16.1 20.6-24.4 15.4 26.3 30.6 52 45.6 77.9 1.9 3.4 4.1 4.4 7.8 4.4 27.4-0.2 54.7-0.1 82-0.1 1.6 0 3.2 0 5.3 0-0.7-1.6-1-2.7-1.6-3.7q-20.3-34.4-40.7-68.8c-13.6-22.9-27.1-45.9-40.8-68.8-1.8-3-1.4-4.9 1-7.6 7.6-8.1 14.7-16.6 22-25.1q20.3-23.6 40.5-47.2c5.8-6.7 11.4-13.5 17.6-20.8-31.4 0-61.7 0-92.1 0.1-1.8 0-4.1 1.2-5.2 2.6-10.7 12.9-21.2 25.9-31.6 38.9-10.3 12.7-20.5 25.4-31.5 39.2 0-56.1 0-110.8 0-165.5-28.3 0-56 0-84.1 0 0 100.6 0 200.9 0 302.2z"/>
	<path id="Layer" class="s1" d="m330 1025q-164.4 0-329 0c0-341.2 0-682.4 0-1024 109.4 0 218.7 0 328.5 0.5 0.5 135.4 0.5 270.4 0.1 405.4-10.5-0.6-20.6-1.7-30.7-1.9-15.7-0.2-30 4.8-42.5 14.2-8.6 6.4-16.3 14.2-24.6 21.6 0-38.4 0-77 0-115.4-28.5 0-56.6 0-84.6 0 0 109 0 217.5 0 326.3 28.3 0 56.4 0 85 0 0-9.6 0-18.9 0-28.9 1.3 1.3 1.9 1.9 2.4 2.5 18.3 21.6 42 32 70 32.5 8.4 0.2 16.9-1.7 25.4-2.2 0 123.5 0 246.4 0 369.4z"/>
	<path id="Layer" class="s2" d="m647 324.9c-0.1 0-0.3 0.1-1.2 0.1-28.7 0-56.6 0-84.8 0 0 19.3 0 37.9 0 56.6 0 18.6 0 37.3 0 57.4-24-28-53.7-38.4-88-33.7-34.2 4.6-59.1 24.1-76.3 54.4-8.4-14.9-18.9-26.9-31.8-37.2 0.1-140.8 0.1-281.1 0.1-421.5 93.7 0 187.4 0 281.5 0.5 0.5 108.1 0.5 215.7 0.5 323.4z"/>
	<path id="Layer" class="s2" d="m646 651.9c0.1 0 0.3 0.1 0.8 0.6 0.2 124.5 0.2 248.5 0.2 372.5-93.7 0-187.4 0-281.5-0.5-0.5-126.8-0.5-253.2-0.5-379.5 0-2-0.1-4 0-6.3 13.6-9.7 23.4-22.3 31.6-36.5 17.4 30 42.3 49.7 77.1 54.6 35.4 5 64.3-7.6 87.4-36.6 0 11.5 0 21.5 0 31.7 28.7 0 56.8 0 84.9 0z"/>
	<path id="Layer" class="s3" d="m364.5 1c0.5 140.4 0.5 280.7 0.1 421.4-10.8-7.1-22.4-11.9-34.6-15.6 0-134.9 0-269.9 0-405.3 11.4-0.5 22.7-0.5 34.5-0.5z"/>
	<path id="Layer" class="s3" d="m364.8 639c0.1 2 0.2 4 0.2 6 0 126.3 0 252.7 0 379.5-11.4 0.5-22.7 0.5-34.5 0.5-0.5-123-0.5-245.9-0.1-369.5 12.6-4.1 24-9.1 34.4-16.5z"/>
	<path id="Layer" class="s3" d="m647.5 1025c-0.5-124-0.5-248-0.5-372.4 10.2-0.5 20.3-0.5 31-0.5 0 124.2 0 248.1 0 372.4-10 0.5-20 0.5-30.5 0.5z"/>
	<path id="Layer" class="s3" d="m647.5 324.9c-0.5-107.7-0.5-215.3-0.5-323.4 10-0.5 20-0.5 30.5-0.5 0.5 107.8 0.5 215.6 0.5 324-10.2 0-20.1 0-30.5-0.1z"/>
	<path id="Layer" fill-rule="evenodd" class="s4" d="m365 638.7c-10.6 7.7-22 12.7-34.6 16.4-8.9 1-17.4 2.9-25.8 2.7-28-0.5-51.7-10.9-70-32.5-0.5-0.6-1.1-1.2-2.4-2.5 0 10 0 19.3 0 28.9-28.6 0-56.7 0-85 0 0-108.8 0-217.3 0-326.3 28 0 56.1 0 84.6 0 0 38.4 0 77 0 115.4 8.3-7.4 16-15.2 24.6-21.6 12.5-9.4 26.8-14.4 42.5-14.2 10.1 0.2 20.2 1.3 30.7 1.9 12.6 3.6 24.2 8.4 34.9 16 13.3 9.9 23.8 21.9 32.2 36.8 17.2-30.3 42.1-49.8 76.3-54.4 34.3-4.7 64 5.7 88 33.7 0-20.1 0-38.8 0-57.4 0-18.7 0-37.3 0-56.6 28.2 0 56.1 0 84.5 0.1 0.5 108.6 0.5 217.2 0.5 326.3-28.1 0.5-56.2 0.5-84.9 0.5 0-10.2 0-20.2 0-31.7-23.1 29-52 41.6-87.4 36.6-34.8-4.9-59.7-24.6-77.1-54.6-8.2 14.2-18 26.8-31.6 36.5zm-132.4-90.9c0.5 1.5 0.9 3.1 1.4 4.7 6.9 18.3 19.4 30.6 39 33.3 19.8 2.6 36.1-4.7 47.3-21.7 8-11.9 9.6-25.4 8.7-39.4-1.1-16.8-8.1-30.8-21.9-40.3-25.9-17.9-60.3-7.1-72 22.1-5.3 13.2-6.3 26.7-2.5 41.3zm231-19.9c1.2 8.2 1.2 16.8 3.8 24.6 6.3 18.4 19.5 30.5 39 33.2 19.6 2.8 36.1-4.5 46.8-21.6 11.6-18.6 12.2-38.5 3.9-58.8-9.9-24-35.2-34.9-59.2-27.1-19 6.1-33.8 25.7-34.3 49.7z"/>
	<path id="Layer" class="s4" d="m678.8 627c0-100.8 0-201.1 0-301.7 28.1 0 55.8 0 84.1 0 0 54.7 0 109.4 0 165.5 11-13.8 21.2-26.5 31.5-39.2 10.4-13 20.9-26 31.6-38.9 1.1-1.4 3.4-2.6 5.2-2.6 30.4-0.1 60.7-0.1 92.1-0.1-6.2 7.3-11.8 14.1-17.6 20.8q-20.2 23.6-40.5 47.2c-7.3 8.5-14.4 17-22 25.1-2.4 2.7-2.8 4.6-1 7.6 13.7 22.9 27.2 45.9 40.8 68.8q20.4 34.4 40.7 68.8c0.6 1 0.9 2.1 1.6 3.7-2.1 0-3.7 0-5.3 0-27.3 0-54.6-0.1-82 0.1-3.7 0-5.9-1-7.8-4.4-15-25.9-30.2-51.6-45.6-77.9-7 8.3-13.9 16.3-20.6 24.4-0.9 1.2-1 3.5-1 5.2 0 17.3 0 34.6 0 52.3-28 0-55.7 0-84.2 0 0-8 0-16.1 0-24.7z"/>
	<path id="Layer" class="s1" d="m232.4 547.4c-3.6-14.2-2.6-27.7 2.7-40.9 11.7-29.2 46.1-40 72-22.1 13.8 9.5 20.8 23.5 21.9 40.3 0.9 14-0.7 27.5-8.7 39.4-11.2 17-27.5 24.3-47.3 21.7-19.6-2.7-32.1-15-39-33.3-0.5-1.6-0.9-3.2-1.6-5.1z"/>
	<path id="Layer" class="s2" d="m463.7 527.5c0.4-23.6 15.2-43.2 34.2-49.3 24-7.8 49.3 3.1 59.2 27.1 8.3 20.3 7.7 40.2-3.9 58.8-10.7 17.1-27.2 24.4-46.8 21.6-19.5-2.7-32.7-14.8-39-33.2-2.6-7.8-2.6-16.4-3.7-25z"/>
</svg>