<svg version="1.2" xmlns="http://www.w3.org/2000/svg" viewBox="0 0 272 272" width="100" height="100"><style></style><path fill-rule="evenodd" d="m20.7 171c0-40.8 0-81.2 0-121.5 0-6.8 0-6.9 6.9-6.9 61.5 0 123 0.1 184.5-0.1 5.2 0 6.3 1.7 6.3 6.6-0.2 45.5-0.1 91-0.1 136.5 0 5.8-1.2 7.5 6.7 7.1 2-0.1 4.3-0.2 4.1 2.9-0.1 2.9-2.5 2.5-4.4 2.6-3 0.2-6.7-0.9-6.4 4.4 0.1 3 1 4.2 4.1 4.2 2.1-0.1 5.2-1 5.2 2.7-0.1 3.3-3 2.8-5 2.7-3.7-0.2-4.3 1.7-4.3 4.9 0 3.3 0.8 5.2 4.5 4.9q1-0.1 2 0c1.9 0.2 4.3-0.2 4.3 2.8 0 3.1-2.6 2.7-4.4 2.5-5.1-0.6-7.2 1.5-6.4 6.5 0.7 4.5-1.4 5.7-5.7 5.7q-93.3-0.2-186.5 0c-4.1 0-5.5-1.4-5.4-5.5 0.1-20.8 0-41.7 0-63zm9 65.9q89.5 0 179 0c3.2 0 6.9 1 7-4.5 0.1-4.1-1.5-5.1-5.3-5.1-6.7 0.1-6.7-0.1-6.7-6.9-0.1-7.3 0.1-14.7-0.1-22-0.2-4.2 0.9-6 5.5-5.8 6.5 0.2 6.5-0.1 6.5-6.7q0-66.7 0-133.5c0-7.2 0-7.3-7.1-7.3-59.5 0-119 0.1-178.4 0-4.9 0-6.8 1.2-6.8 6.4 0.2 60 0.1 120 0 180 0 4.1 1.5 5.8 6.4 5.4zm179.7-22.8c0 1.8-0.3 3.7 0 5.5 0.4 2.2 4.1 3.3 5.4 1.5 1.6-2.3 1.5-5.3 0.3-7.5-1.1-2.2-3.5-1.8-5.7 0.5zm0.8-15.3c-1.3 1.3-0.8 3.1-0.9 4.6-0.1 2 0.6 3.2 2.8 3.2 2.1 0 3.4-0.6 3.5-3 0.2-3.5-0.3-6.1-5.4-4.8z"/><path  d="m253.1 199.9c-2.8-3.4-6.2-2.8-9.5-2.3-1.9 0.3-3.2 1.6-3.4 3.7-0.2 2.2 1 3.6 2.9 4.2 3 0.9 6.1 1.5 9.2 2.4 6.1 1.6 8.9 4.7 8.8 9.8-0.1 5.1-3.4 8.8-9.2 10.3-8.7 2.2-16.5-1.4-18.4-8.4-0.4-1.5-1.5-3.3 0.9-4.1 2-0.7 3.4 0.1 4.5 2 3.1 5.6 7.2 7.1 12.6 5 2-0.9 3.3-2.2 3.3-4.5 0-2.2-1.3-3.4-3.1-4-3.4-1-6.7-1.9-10.1-2.7-4.1-1.1-7-3.4-7.5-7.7-0.6-4.3 1.4-7.8 5.1-10.1 5.9-3.6 16.3-1.8 19.3 3.6 1.1 1.9 3 4.5 0.3 6.2-2.9 1.8-4.6-0.5-5.7-3.4z"/><path  d="m56.7 217.5c-0.9 2.4-1.7 4.4-2.4 6.5-0.7 2-1.7 3.4-4.3 3.3-2.3 0-2.9-1.5-3.5-3.4-2.2-6.2-4.4-12.5-7.2-18.6 0 5.9 0 11.8 0 17.7 0 2 0.2 4.3-2.9 4.2-3 0-2.7-2.3-2.7-4.3q-0.1-12.7 0-25.5c0-2-0.6-4.5 2.8-4.7 3-0.2 5.1 0.4 6.2 3.6 1.7 5.4 3.6 10.7 5.5 16 0.5 1.6 0.7 3.3 2.5 4.5 3.1-6.4 5.1-13 7.1-19.7 1-3.5 2.9-4.9 6.5-4.4 4 0.5 2.9 3.5 2.9 5.7 0.1 8.2 0.1 16.3 0 24.5 0 2 0.2 4.3-2.8 4.3-3.1 0-2.7-2.4-2.7-4.3-0.1-6 0-12-0.8-18.1-1.3 4.1-2.7 8.2-4.2 12.7z"/><path fill-rule="evenodd" d="m102.9 199.5c2.8 6.2 3 12.2 0.8 18.3-2.7 7.6-9.3 11.2-18.4 10.5-7.5-0.6-12.2-5.4-14-14-1.9-9.2 2.3-18.3 9.7-21.5 8-3.3 16.6-0.8 21.9 6.7zm-9.9-1.2c-6.5-2-11.4-0.6-13.9 4-3.3 5.9-2.1 14.9 2.3 18.5 4.1 3.3 11.4 2.6 14.5-1.2 3.8-4.6 4.8-17.5-2.9-21.3z"/><path  d="m81.6 148.3c0.9 0.2 1.4 0.3 1.9 0.4 8.2 2 11.2 5.2 10.8 11.2-0.4 5.8-4.4 9-12.4 10-7 0.9-13.2-2.4-15-8.1-0.5-1.6-1.6-3.8 0.8-4.8 2.1-0.8 3.6 0.1 4.6 2.4 2.4 5.2 8.6 6.9 13.5 3.9 1.4-0.8 2.8-2 2.7-3.9-0.1-1.8-1.3-3.1-2.9-3.7-3.2-1-6.4-1.8-9.6-2.6-6.5-1.8-8.7-4.5-8.3-10 0.3-5.5 3.5-8.7 9.6-9.7 7-1.2 13.4 1.5 15.2 6.5 0.6 1.7 1.6 3.8-0.5 4.9-2.1 1.1-3.8 0.2-4.8-2-1.7-3.7-5-4.7-8.7-4.2-2.4 0.3-4.6 1.5-5 4.2-0.4 3 2.1 3.8 4.3 4.6 1.1 0.4 2.3 0.5 3.8 0.9z"/><path fill-rule="evenodd" d="m131.9 194.8c8.2 5.4 8.5 21.1 2 28.7-2.5 2.8-5.8 3.7-9.4 3.8-14.8 0.7-14.8 0.7-14.9-13.8q0-8.5 0.1-17c0-1.6-0.1-3.7 2.3-3.7 6.5 0.2 13.3-1.6 19.9 2zm-16.6 14.7c0 2.7 0.1 5.4 0 8-0.2 3.2 1.1 4.4 4.3 4.5 10 0.5 15.3-6.5 12.3-16.7-1.8-6.2-5.6-8.4-13.3-7.2-5.8 0.9-2.3 5.6-3.3 8.4-0.2 0.6 0 1.4 0 3z"/><path  d="m103.3 168c-2.8-1.8-4.8-3.8-5.3-6.8-0.3-1.5-0.9-3.5 1.3-4.2 1.9-0.6 3.2 0 4.2 2.2 2.4 5.3 7.8 7 12.9 4.5 1.9-0.9 3.3-2.1 3.2-4.5-0.1-2.3-1.7-3.2-3.5-3.8-3-0.9-6.1-1.5-9.1-2.4-6.1-1.8-8.5-4.7-8.3-9.6 0.2-5.3 3.6-8.9 9.5-10 7.1-1.3 13.8 1.6 15.6 6.8 0.5 1.8 1.3 3.8-1.1 4.7-2 0.8-3.2-0.2-4.2-2.2-2.2-4.2-5.9-5-10.2-3.8-2.1 0.6-3.6 2-3.8 4.2-0.2 2.6 1.7 3.5 3.7 4.1 3.3 0.9 6.8 1.5 10.1 2.6 5.4 1.6 7.1 4.3 7.1 10-0.1 5.2-3.2 7.9-7.7 9.2-4.7 1.3-9.5 1.5-14.4-1z"/><path  d="m171.2 214.6c-2.1 10.3-4.9 13.3-12.1 13.7-9.9 0.6-14.4-3.5-15.5-13.3-0.8-6-0.6-12-0.6-18 0-2.2 0.3-4.4 3.5-4.3 3 0.2 2.8 2.3 2.8 4.3 0 5.7 0 11.3 0.1 17 0 5.7 2.9 8.8 7.9 8.8 4.9-0.1 7.4-2.8 7.5-8.5 0.2-5.7 0.1-11.3 0.1-17 0.1-2.2 0-4.5 3.2-4.6 3.3 0 3.2 2.3 3.2 4.5 0 5.6 0 11.3-0.1 17.4z"/><path  d="m44.1 163.3c8.1 1.3 9.4 0.8 12.7-5.7q1.6-3.3 4.8-2.2c2.7 1 1.3 3 0.7 4.6-2.1 6.4-7.7 10.1-14.6 9.9-7.6-0.3-13-4.7-14.7-11.9-1.1-4.4-1-8.9 0-13.3 2.4-10.3 16.4-15.3 24.9-9 3 2.2 4.8 5 4.6 8.9-2.8 1.2-4.8 1.1-6.3-1.8-1.8-3.6-5.2-4.9-8.9-4.2-3.8 0.6-6.6 2.7-8 6.6-2.5 7.2-0.9 13.8 4.8 18.1z"/><path  d="m199.7 225.1c-0.5 2-1.8 2.2-3.1 2.2-5.4 0-10.7 0-16 0.1-2.7 0-3.9-1.2-3.9-3.9 0.1-9 0-18 0-26.9 0-2.3 0.4-4 3.3-3.9 2.8 0.1 3 2.1 3 4.2 0.1 6.6 0.2 13.3 0 19.9-0.1 3.9 1.4 5.5 5.2 5.2 2.5-0.2 5-0.1 7.5 0 1.9 0.1 3.8 0.1 4 3.1z"/></svg>