<svg version="1.2" xmlns="http://www.w3.org/2000/svg" viewBox="0 0 2650 2650" width="100" height="100">
	<title>image (1)-svg</title>
	<style>
		.s0 { fill: #ffffff } 
		.s1 { fill: #03589c } 
		.s2 { fill: #2bb7f6 } 
		.s3 { fill: #000000 } 
		.s4 { fill: #41c4ff } 
		.s5 { fill: #02589b } 
		.s6 { fill: #085088 } 
		.s7 { fill: #55c5f8 } 
		.s8 { fill: #367cb2 } 
		.s9 { fill: #1b69a6 } 
		.s10 { fill: #43ace2 } 
	</style>
	<path id="Layer" fill-rule="evenodd" class="s0" d="m1526 2069c-509 0-1017.5 0-1526 0q0-744 0-1488 1325 0 2650 0 0 744 0 1488c-374.5 0-749 0-1124 0zm-1313.9-520.5c0.2 0.1 0.5 0.3 1.4 0.6 0.2 0.3 0.4 0.6 0.7 1.6 8.9 8.8 17.9 17.5 27 26.9 46 46 91.9 92 137.9 137.9 1.6 1.6 4.7 2.4 7 2.4 106.4 0.1 212.7 0.1 319 0.1 1.8 0 3.6 0 5.9 0 0-47 0-93.4 1-140 46.2 0 92.4 0 139 0 0-2.5 0-4.5 0-6.4 0-103.8 0-207.5 0.1-311.3 0-4.6-1-8-5.3-11q-79.2-79.2-158.5-158.4c-3.7-3.8-7.6-7.3-11.5-11.4-0.3-0.2-0.6-0.3-0.8-0.5 0 0 0 0.1-0.2-0.6q-65.2-65.2-130.4-130.5c-0.6-0.6-1.2-1.2-1.8-1.6-17.8-13-37-21.2-59.7-19.4-12.6 1-24.8 3.1-36.1 8.7q-99.5 49.7-199 99.5c-17.7 8.8-35.2 17.9-53.5 27.1-1.5 3.5-3 7.1-4.7 10.6-7.8 16.4-15.7 32.8-23.6 49.2q-18.2 38-36.4 75.9-11.8 24.6-23.6 49.2-18.8 39-37.6 78.1c-6.9 14.3-10.4 29.5-8.2 45.2 2.8 20.6 12.3 38.4 26.9 53 39.2 39.6 78.6 78.8 118 118.2 1.1 1 2.5 1.7 3.8 2.5 0 0-0.1 0-0.5 0.5 0.5 0.5 1 1 1.6 1.4 0 0-0.1 0 0.1 0.5 0.3 0.2 0.6 0.4 0.9 0.5 0 0-0.1 0 0.1 0.5 0.3 0.2 0.6 0.4 0.9 0.5 0 0-0.1 0 0.1 0.5zm-3.2-4.4q0 0 0 0 0 0 0 0zm1119.6-504.1q-38.6 0-77.2 0c0 177.6 0 354.7 0 532 2 0 3.8 0 5.6 0 51.7 0 103.3 0.1 155-0.1 11 0 22.1-0.7 33-2 15.1-1.9 30.3-3.8 45.1-7.1 29.5-6.3 56.8-18.5 81.8-35.2 19-12.7 36.2-27.3 50.6-45.3 10.5-13 19.7-26.7 27.6-41.4 8.3-15.8 14.3-32.5 19.5-49.6 7.8-26 10.3-52.7 11.3-79.5 0.5-12.3-0.6-24.7-1.9-37-1.4-13-3.6-26-5.9-38.9-4.9-26.5-14.8-51.2-28.3-74.4-13.5-23.2-30.6-43.6-51.4-60.9-17.8-14.7-37.1-26.6-58.2-36.1-27.2-12.3-55.7-19-85.1-22.4-13.1-1.5-26.3-1.9-39.5-2-27-0.3-54-0.1-82-0.1zm507.5 203.4c6.4-1.1 12.7-2.5 19.1-3.4 15.5-2 30.9-1.9 46.1 1.7 15.9 3.6 30.2 10.3 43 20.8 11.9 9.8 20.2 21.6 25.9 35.8 7.1 17.6 5.8 35.9 5.9 53.7-10.5-3.9-20.9-8.2-31.5-11.8-16.9-5.6-34.5-8.6-52.3-10-12.2-1-24.6-0.6-37-0.1-9.6 0.4-19.1 1.8-28.7 2.9-16.6 2-32.4 7.2-47.3 14.5-16.6 8.2-31.9 18.4-44.2 32.8-8.9 10.3-15.6 21.8-19.9 34.5-5.4 15.8-7.8 32.1-6.1 48.8 0.9 8.9 1 18.1 3.3 26.7 7.4 27.6 22.9 50.1 46.3 66.5 26 18.3 55.7 25.9 87.1 27 9.3 0.4 18.7-0.9 28-1.9 17.5-1.8 33.8-7.5 49-16.2 20.3-11.6 37.7-26.2 50.2-46.2 0.5-0.8 1.6-1.2 3.2-2.3 0 19 0 36.8 0 54.5 20.5 0 40.6 0 60.9 0 0-5.8 0-11.5 0-17.1-0.3-79.9-0.4-159.9-1.3-239.8-0.1-12-3.3-24.3-6.7-36.1-4.8-16.8-13.4-31.9-25-45.4-10.8-12.7-23.5-22.8-38.1-30.8-18.2-10-37.8-16-58.5-18.6-16.8-2.1-33.5-3.6-50.5-2.1-14.3 1.2-28.3 3.3-42.2 7.1-26.4 7.3-49.9 20.1-69.8 38.9-8.2 7.8-15.1 17.1-22.9 26 16.9 12.6 32.9 24.6 49.3 36.9 15.8-23.8 37-39.3 64.7-47.3zm595-99.9c0 16.4 0 32.9 0 49.7-22.3 0-44.1 0-65.7 0 0 19.5 0 38.5 0 58 22 0 43.8 0 65.7 0 0 2.2 0 4 0 5.8 0 75-0.1 150 0.1 225 0.1 8.9 1 18 3 26.7 7.9 34.1 29.1 56.7 61.8 68.2 17.9 6.4 36.3 8.2 55.4 6.3 11.5-1.1 22.6-3.2 33.5-7.2 3-1.1 4.3-2.5 4.3-5.9-0.2-18.2-0.1-36.4-0.1-54.5 0-1.2-0.1-2.3-0.2-3.6-1 0.1-2-0.1-2.6 0.3-13.5 9-28.4 12.5-44.4 11.7-12.5-0.7-24-4.4-32.7-13.6-10.4-10.9-13.9-25-13.9-39.3-0.4-71.7-0.2-143.4-0.2-215 0-1.6 0-3.2 0-5.2 30.9 0 61.3 0 91.7 0 0-19.5 0-38.6 0-58.1-30.7 0-61.1 0-91.9 0 0-35.8 0-71.2 0-106.5-21.4 0-42.5 0-63.8 0 0 18.9 0 37.6 0 57.2zm-122 96c0-15-0.1-30 0.1-45 0-2.6-0.9-4-3.3-4.4-2.7-0.5-5.5-1-8.2-1.1-23.1-0.5-46.1-0.2-68 8.9-13.1 5.4-25.4 12.1-36.1 21.2-12.3 10.6-21.6 23.5-27.6 38.6-0.3 0.7-1.4 1.1-3 2.3 0-21.1 0-41 0-60.7-20.6 0-40.7 0-60.6 0 0 126.4 0 252.5 0 378.4 21.4 0 42.5 0 63.7 0 0-2.2 0-4 0-5.8 0-65.2 0-130.4 0-195.5 0-15.5 1-30.8 5-45.7 6.4-23.5 19.1-43 38.6-57.5 19.3-14.4 41.6-19.9 65.2-20.1 7.8-0.1 15.7 1.2 23.5 1.9 3.5 0.3 7 0.7 10.7 1 0-5.5 0-10.5 0-16.5z"/>
	<path id="Layer" class="s1" d="m676.8 1081c3.9 3.6 7.8 7.1 11.5 10.9 52.9 52.8 105.7 105.6 158.4 159-0.4 2.6-0.7 4.6-0.7 6.5 0 103.2 0 206.3 0.1 309.4 0 5.2-1.4 6.3-6.4 6.3-42.3-0.2-84.6-0.1-126.9-0.1-1.9 0-3.8 0.6-6.1 0.8-0.6-0.5-1-0.8-1.4-1.2q-128.2-128.2-256.5-256.5-120.9-120.9-241.8-241.8c-1.4-1.4-2.6-2.9-4-4.6 0-0.3 0-0.7 0.3-1 1.8-0.4 3.2-0.6 4.7-0.6 137.5-0.1 274.9-0.2 412.3 0.1 11 0 22.1 2 33 4 6.7 1.3 13.1 4.5 19.7 6.8 0 0 0 0.1 0.1 0.3 0.4 0.4 0.7 0.5 1.3 0.7 0.7 0.1 1.1 0.1 1.6 0.1 0 0 0-0.1 0 0.2 0.3 0.4 0.5 0.6 0.8 0.7z"/>
	<path id="Layer" class="s2" d="m203 1069.9c1.4 1.5 2.6 3 4 4.4q120.9 120.9 241.8 241.8 128.3 128.3 256.5 256.5c0.4 0.4 0.8 0.7 1.6 1.5 1.4 1.5 2.4 2.6 2.9 3.8-2.8 0.1-5.2 0.1-7.5 0.1q-230.2 0-460.3 0c-8.9-8.8-17.9-17.5-26.5-26.7-0.1-1.9-0.3-3.5-0.9-4.8-2.8-6.7-6.2-13.2-8.6-20.1-4.9-14-4.3-28.8-4.8-43.3-0.5-19.1 0.8-38.2 0.7-57.3-0.2-72.6-0.6-145.2-0.9-217.8-0.1-44.3 0-88.6 0.1-133 0-1.7 0.7-3.4 1.3-5.1 0.2 0 0.6 0 0.6 0z"/>
	<path id="Layer" fill-rule="evenodd" class="s3" d="m1330 1041c27.5 0 54.5-0.2 81.5 0.1 13.2 0.1 26.4 0.5 39.5 2 29.4 3.4 57.9 10.1 85.1 22.4 21.1 9.5 40.4 21.4 58.2 36.1 20.8 17.3 37.9 37.7 51.4 60.9 13.5 23.2 23.4 47.9 28.3 74.4 2.3 12.9 4.5 25.9 5.9 38.9 1.3 12.3 2.4 24.7 1.9 37-1 26.8-3.5 53.5-11.3 79.5-5.2 17.1-11.2 33.8-19.5 49.6-7.9 14.7-17.1 28.4-27.6 41.4-14.4 18-31.6 32.6-50.6 45.3-25 16.7-52.3 28.9-81.8 35.2-14.8 3.3-30 5.2-45.1 7.1-10.9 1.3-22 2-33 2-51.7 0.2-103.3 0.1-155 0.1-1.8 0-3.6 0-5.6 0 0-177.3 0-354.4 0-532 25.7 0 51.4 0 77.7 0zm243.5 404c10.3-12.5 18.6-26.2 25.2-41.1 12.4-27.9 16.8-57.3 18.2-87.4 0.4-9.4-0.3-18.8-1-28.2-0.6-9.3-1.8-18.5-2.9-27.8-2.4-20.1-8.6-39.3-17.6-57.3-9.9-20.1-23-38-40.2-52.7-11.2-9.6-23-17.9-35.9-24.8-26.3-13.9-54.7-20-83.9-22.6-11.6-1-23.2-1-34.8-1.1-26.5-0.1-53 0-79.5 0q-2.4 0-4.9 0c0 136.9 0 273.3 0 409.7 15.4 1.3 111.6-0.3 126.7-1.6 18.6-1.6 36.6-5.7 54.2-12 30-10.9 55.4-28.1 76.4-53.1z"/>
	<path id="Layer" fill-rule="evenodd" class="s3" d="m1836.7 1244.7c-27.4 7.7-48.6 23.2-64.4 47-16.4-12.3-32.4-24.3-49.3-36.9 7.8-8.9 14.7-18.2 22.9-26 19.9-18.8 43.4-31.6 69.8-38.9 13.9-3.8 27.9-5.9 42.2-7.1 17-1.5 33.7 0 50.5 2.1 20.7 2.6 40.3 8.6 58.5 18.6 14.6 8 27.3 18.1 38.1 30.8 11.6 13.5 20.2 28.6 25 45.4 3.4 11.8 6.6 24.1 6.7 36.1 0.9 79.9 1 159.9 1.3 239.8 0 5.6 0 11.3 0 17.1-20.3 0-40.4 0-60.9 0 0-17.7 0-35.5 0-54.5-1.6 1.1-2.7 1.5-3.2 2.3-12.5 20-29.9 34.6-50.2 46.2-15.2 8.7-31.5 14.4-49 16.2-9.3 1-18.7 2.3-28 1.9-31.4-1.1-61.1-8.7-87.1-27-23.4-16.4-38.9-38.9-46.3-66.5-2.3-8.6-2.4-17.8-3.3-26.7-1.7-16.7 0.7-33 6.1-48.8 4.3-12.7 11-24.2 19.9-34.5 12.3-14.4 27.6-24.6 44.2-32.8 14.9-7.3 30.7-12.5 47.3-14.5 9.6-1.1 19.1-2.5 28.7-2.9 12.4-0.5 24.8-0.9 37 0.1 17.8 1.4 35.4 4.4 52.3 10 10.6 3.6 21 7.9 31.5 11.8-0.1-17.8 1.2-36.1-5.9-53.7-5.7-14.2-14-26-25.9-35.8-12.8-10.5-27.1-17.2-43-20.8-15.2-3.6-30.6-3.7-46.1-1.7-6.4 0.9-12.7 2.3-19.4 3.7zm29.8 138.3c-8.1 1-16.2 1.6-24.2 3.1-20.8 3.8-39 12.3-52.4 29.5-13.8 17.5-17.9 37.2-13.1 58.6 5.5 24.8 22.7 39.2 45.4 47.8 16 6 32.6 7.3 49.6 5.1 11.3-1.4 22.1-4.1 32.4-8.8 16.9-7.7 31.7-18.2 43.7-32.6 9.5-11.3 17.6-23.3 21.9-37.3 3.3-10.6 4.9-21.7 7.2-32.6 0.8-4.1-0.2-7.4-4.4-9.7-13.3-7.3-27.1-13.3-41.8-17-13.7-3.4-27.6-6.4-41.9-6.1-7.1 0.1-14.3 0-22.4 0z"/>
	<path id="Layer" class="s4" d="m242.1 1578.3c153.3-0.3 306.8-0.3 460.2-0.3 2.3 0 4.7 0 7.7 0.1 1.2 0.4 1.6 0.7 2 1.1 0 46.4 0 92.8 0 139.8-2.3 0-4.1 0-5.9 0-106.3 0-212.6 0-319-0.1-2.3 0-5.4-0.8-7-2.4-46-45.9-91.9-91.9-138-138.2z"/>
	<path id="Layer" class="s3" d="m2432 1144c0-19.1 0-37.8 0-56.7 21.3 0 42.4 0 63.8 0 0 35.3 0 70.7 0 106.5 30.8 0 61.2 0 91.9 0 0 19.5 0 38.6 0 58.1-30.4 0-60.8 0-91.7 0 0 2 0 3.6 0 5.2 0 71.6-0.2 143.3 0.2 215 0 14.3 3.5 28.4 13.9 39.3 8.7 9.2 20.2 12.9 32.7 13.6 16 0.8 30.9-2.7 44.4-11.7 0.6-0.4 1.6-0.2 2.6-0.3 0.1 1.3 0.2 2.4 0.2 3.6 0 18.1-0.1 36.3 0.1 54.5 0 3.4-1.3 4.8-4.3 5.9-10.9 4-22 6.1-33.5 7.2-19.1 1.9-37.5 0.1-55.4-6.3-32.7-11.5-53.9-34.1-61.8-68.2-2-8.7-2.9-17.8-3-26.7-0.2-75-0.1-150-0.1-225 0-1.8 0-3.6 0-5.8-21.9 0-43.7 0-65.7 0 0-19.5 0-38.5 0-58 21.6 0 43.4 0 65.7 0 0-16.8 0-33.3 0-50.2z"/>
	<path id="Layer" class="s4" d="m675.9 1079.8c-0.4 0.3-0.8 0.3-1.6 0-0.7-0.4-1-0.6-1.3-0.7 0 0 0-0.1-0.2-0.4-2.3-1.7-4.5-3.3-6.7-4.7-16.2-9.9-34.5-10.8-52.5-10.8-137.2-0.3-274.5-0.2-411.7-0.2-2 0-4 0.2-6.1 0.2 0-0.2 0.2-0.3 0.2-0.3 17.6-8.9 35.1-18 52.8-26.8q99.5-49.8 199-99.5c11.3-5.6 23.5-7.7 36.1-8.7 22.7-1.8 41.9 6.4 59.7 19.4 0.6 0.4 1.2 1 1.8 1.6 43.5 43.5 87 87 130.5 130.9z"/>
	<path id="Layer" class="s5" d="m209.8 1545.2c-1.2-0.9-2.6-1.6-3.7-2.6-39.4-39.4-78.8-78.6-118-118.2-14.6-14.6-24.1-32.4-26.9-53-2.2-15.7 1.3-30.9 8.2-45.2q18.8-39.1 37.6-78.1 11.8-24.6 23.6-49.2 18.2-37.9 36.4-75.9c7.9-16.4 15.8-32.8 23.6-49.2 1.7-3.5 3.2-7.1 5.1-10.7 0.3-0.2 0.1-0.1 0.2 0.2 0.1 0.4 0.2 0.7 0.2 1 0 0.4 0.1 0.6 0.1 1.2-0.1 131.9-0.1 263.2-0.1 394.6 0 16.6 0.4 33.2 1 49.8 0.4 10 3.3 19.4 8.8 28 1.5 2.3 2.6 4.8 3.9 7.3z"/>
	<path id="Layer" class="s3" d="m2310 1241c0 5.5 0 10.5 0 16-3.7-0.3-7.2-0.7-10.7-1-7.8-0.7-15.7-2-23.5-1.9-23.6 0.2-45.9 5.7-65.2 20.1-19.5 14.5-32.2 34-38.6 57.5-4 14.9-5 30.2-5 45.7 0 65.1 0 130.3 0 195.5 0 1.8 0 3.6 0 5.8-21.2 0-42.3 0-63.7 0 0-125.9 0-252 0-378.4 19.9 0 40 0 60.6 0 0 19.7 0 39.6 0 60.7 1.6-1.2 2.7-1.6 3-2.3 6-15.1 15.3-28 27.6-38.6 10.7-9.1 23-15.8 36.1-21.2 21.9-9.1 44.9-9.4 68-8.9 2.7 0.1 5.5 0.6 8.2 1.1 2.4 0.4 3.3 1.8 3.3 4.4-0.2 15-0.1 30-0.1 45.5z"/>
	<path id="Layer" class="s6" d="m712.5 1579.1c-0.9-0.3-1.3-0.6-2-1.1-1.2-1.3-2.2-2.4-3.3-3.8 1.8-0.6 3.7-1.2 5.6-1.2 42.3 0 84.6-0.1 126.9 0.1 5 0 6.4-1.1 6.4-6.3-0.1-103.1-0.1-206.2-0.1-309.4 0-1.9 0.3-3.9 0.8-6.2 4.3 2.1 5.3 5.5 5.3 10.1-0.1 103.8-0.1 207.5-0.1 311.3 0 1.9 0 3.9 0 6.4-46.6 0-92.8 0-139.5 0.1z"/>
	<path id="Layer" class="s7" d="m209.9 1545.1c-1.4-2.4-2.5-4.9-4-7.2-5.5-8.6-8.4-18-8.8-28-0.6-16.6-1-33.2-1-49.8 0-131.4 0-262.7 0.3-394.6 0.3-0.5 0.7-0.6 1-0.5 1.7 1.4 3.2 2.7 4.6 4.2 0.1 0.2 0.1 0.7 0.1 0.7-0.3 1.7-1 3.4-1 5.1-0.1 44.4-0.2 88.7-0.1 133 0.3 72.6 0.7 145.2 0.9 217.8 0.1 19.1-1.2 38.2-0.7 57.3 0.5 14.5-0.1 29.3 4.8 43.3 2.4 6.9 5.8 13.4 8.6 20.1 0.6 1.3 0.8 2.9 0.8 4.5-0.5-0.3-0.7-0.6-1.3-1.3-0.6-0.5-0.9-0.6-1.2-0.7 0 0 0.1 0 0.1-0.3-0.4-0.4-0.7-0.5-1.1-0.7 0 0 0.1 0 0.1-0.3-0.3-0.4-0.7-0.5-1.1-0.7 0 0 0.1 0 0.2-0.3-0.3-0.7-0.8-1.2-1.2-1.7 0 0 0 0.1 0 0.1z"/>
	<path id="Layer" class="s5" d="m209.6 1545.3c0.7 0.2 1.2 0.7 1.5 1.4-0.7-0.1-1.2-0.6-1.5-1.4z"/>
	<path id="Layer" class="s4" d="m676.8 1080.8q-0.4 0.1-0.9-0.5 0.5-0.2 0.9 0.5z"/>
	<path id="Layer" class="s5" d="m211 1547.3c0.3-0.1 0.7 0 1 0.4-0.3 0.2-0.6 0-1-0.4z"/>
	<path id="Layer" class="s5" d="m212 1548.3c0.3-0.1 0.6 0 1 0.5-0.3 0.1-0.6-0.1-1-0.5z"/>
	<path id="Layer" class="s5" d="m213 1549.3q0.4-0.2 0.9 0.3-0.4 0.2-0.9-0.3z"/>
	<path id="Layer" class="s8" d="m202 1069c-1.4-1.3-2.9-2.6-4.7-4.2-0.6-0.6-0.9-0.7-1.2-0.8 0 0-0.1-0.3-0.2-0.5q3-0.5 6-0.5c137.2 0 274.5-0.1 411.7 0.2 18 0 36.3 0.9 52.5 10.8 2.2 1.4 4.4 3 6.7 4.7-6.4-2-12.8-5.2-19.5-6.5-10.9-2-22-4-33-4-137.4-0.3-274.8-0.2-412.3-0.1-1.5 0-2.9 0.2-5 0.6-0.5 0.3-1 0.3-1 0.3z"/>
	<path id="Layer" class="s9" d="m202 1069.2c0-0.2 0.5-0.2 0.7-0.2 0.3 0 0.3 0.4 0.3 0.7 0 0.2-0.4 0.2-0.6 0.2-0.3 0-0.3-0.5-0.4-0.7z"/>
	<path id="Layer" class="s8" d="m673.1 1079.3q0.2-0.1 0.9 0.4-0.3 0.2-0.9-0.4z"/>
	<path id="Layer" class="s0" d="m1573.2 1445.3c-20.7 24.7-46.1 41.9-76.1 52.8-17.6 6.3-35.6 10.4-54.2 12-15.1 1.3-111.3 2.9-126.7 1.6 0-136.4 0-272.8 0-409.7q2.5 0 4.9 0c26.5 0 53-0.1 79.5 0 11.6 0.1 23.2 0.1 34.8 1.1 29.2 2.6 57.6 8.7 83.9 22.6 12.9 6.9 24.7 15.2 35.9 24.8 17.2 14.7 30.3 32.6 40.2 52.7 9 18 15.2 37.2 17.6 57.3 1.1 9.3 2.3 18.5 2.9 27.8 0.7 9.4 1.4 18.8 1 28.2-1.4 30.1-5.8 59.5-18.2 87.4-6.6 14.9-14.9 28.6-25.5 41.4z"/>
	<path id="Layer" class="s0" d="m1867 1383c7.6 0 14.8 0.1 21.9 0 14.3-0.3 28.2 2.7 41.9 6.1 14.7 3.7 28.5 9.7 41.8 17 4.2 2.3 5.2 5.6 4.4 9.7-2.3 10.9-3.9 22-7.2 32.6-4.3 14-12.4 26-21.9 37.3-12 14.4-26.8 24.9-43.7 32.6-10.3 4.7-21.1 7.4-32.4 8.8-17 2.2-33.6 0.9-49.6-5.1-22.7-8.6-39.9-23-45.4-47.8-4.8-21.4-0.7-41.1 13.1-58.6 13.4-17.2 31.6-25.7 52.4-29.5 8-1.5 16.1-2.1 24.7-3.1z"/>
	<path id="Layer" class="s10" d="m196.1 1064.3c0.3-0.2 0.6-0.1 0.9 0.4 0.1 0.2-0.3 0.3-0.5 0.3-0.3-0.1-0.4-0.3-0.4-0.7z"/>
</svg>