<svg xmlns="http://www.w3.org/2000/svg" xmlns:xlink="http://www.w3.org/1999/xlink" id="Layer_1" x="0px" y="0px" width="100%" viewBox="0 0 1024 544" xml:space="preserve"><path fill="#000000" opacity="1.000000" stroke="none" d="M522.531616,1.000000  C523.990662,2.556319 525.771851,2.762377 527.257263,3.438884  C540.297668,9.377932 548.027466,19.193705 549.315369,33.673004  C549.490112,35.637127 549.973450,37.122192 551.824768,38.175014  C575.044067,51.379910 590.951355,71.505852 604.125977,94.065926  C621.525757,123.861000 632.001343,156.262527 639.206604,189.806549  C645.899963,220.967316 649.049805,252.489807 649.529541,284.385925  C650.272888,333.806610 644.852966,382.322693 630.496399,429.716919  C628.574951,436.059875 624.747009,438.609955 619.571167,437.071045  C615.166687,435.761414 613.099976,431.464050 614.686462,426.147217  C619.353210,410.507507 623.223633,394.673187 626.127197,378.622711  C628.791382,363.895660 630.664856,349.061188 631.755737,334.112305  C632.931763,317.997437 633.967957,301.878265 633.581726,285.727814  C632.413696,236.881104 625.942932,188.918594 608.825012,142.828979  C600.076416,119.273804 588.922974,97.027000 572.895386,77.450249  C566.084656,69.131271 558.106567,62.143440 549.440369,55.843849  C546.389404,53.626060 544.701477,54.351959 542.574524,57.248680  C533.366699,69.788803 518.171082,74.981743 503.665131,70.858902  C488.674225,66.598228 478.405060,54.305214 476.861664,38.773094  C475.437317,24.439163 485.234039,9.254107 499.986359,2.902893  C500.886383,2.515405 501.735748,2.010307 502.804352,1.279967  C509.354401,1.000000 515.708801,1.000000 522.531616,1.000000 z"/><path fill="#000000" opacity="1.000000" stroke="none" d="M468.468658,545.000000  C464.381348,540.327454 459.135681,537.519592 454.891449,533.540161  C435.098083,514.981506 421.181396,492.450714 410.234741,467.911957  C407.186188,461.078125 404.530853,454.065491 401.805939,447.091614  C399.447235,441.055054 401.113464,436.415070 406.092773,434.662323  C410.890991,432.973297 414.874939,435.317474 417.032776,441.270416  C424.328705,461.398163 433.488617,480.601929 445.895996,498.100037  C455.493073,511.634766 466.497742,523.812195 481.086914,532.303162  C504.950500,546.191833 528.074280,544.490112 550.494446,529.079956  C565.450378,518.800293 576.544495,504.917206 586.217102,489.797150  C590.572693,482.988464 594.727173,481.011292 599.396301,483.724518  C604.231628,486.534393 604.530701,491.431183 600.149475,498.544250  C589.831665,515.295471 577.136475,529.933472 561.427368,541.875854  C560.373047,542.677368 559.420166,543.612366 558.210022,544.742615  C528.312439,545.000000 498.624878,545.000000 468.468658,545.000000 z"/><path fill="#000000" opacity="1.000000" stroke="none" d="M463.756470,182.801727  C422.214294,205.495850 384.654816,232.931030 352.063629,266.839233  C328.455231,291.401642 308.209991,318.361450 296.404114,350.784393  C292.639008,361.124756 290.019714,371.770538 289.952393,382.925018  C289.931946,386.310669 290.969055,387.546936 294.483337,387.757111  C313.934906,388.920349 328.975922,405.812225 328.255676,425.390930  C327.535980,444.955109 311.733948,460.330627 292.316132,460.360352  C275.933899,460.385437 262.794373,451.274933 257.442871,436.180389  C252.280502,421.619415 257.087402,405.157898 269.432068,395.254791  C271.506683,393.590485 273.761261,392.257172 273.677216,388.994781  C272.904327,358.995087 284.030853,332.649597 299.281769,307.755798  C323.496155,268.231018 356.155457,236.567139 392.893127,208.875565  C439.759552,173.549271 491.149048,146.932236 547.298462,129.700760  C556.354858,126.921486 565.636169,124.863518 574.840820,122.582504  C581.710083,120.880203 586.116333,122.917648 587.174500,128.071213  C588.264893,133.381973 585.466492,136.679077 578.311157,138.344086  C556.698303,143.373215 535.608765,150.081665 515.039001,158.368286  C497.565765,165.407455 480.618317,173.595932 463.756470,182.801727 z"/><path fill="#000000" opacity="1.000000" stroke="none" d="M639.086487,470.974030  C611.236267,470.207520 584.338440,466.186829 557.915344,458.900482  C504.391174,444.140778 455.254883,420.079712 409.589447,388.758270  C383.003113,370.523010 358.466187,349.823364 336.411346,326.250732  C335.500977,325.277710 334.551697,324.336456 333.699158,323.314789  C330.093109,318.993561 330.110992,314.771698 333.711090,311.325836  C337.325653,307.866119 341.651642,307.901398 345.563690,312.139282  C355.747925,323.171844 366.518311,333.570312 377.872955,343.384583  C417.783752,377.880890 462.264130,404.970642 510.846222,425.388702  C539.321838,437.356354 568.682556,446.401459 599.253296,451.146301  C628.577759,455.697754 657.836304,456.998718 686.641968,447.766205  C690.280701,446.599945 693.757324,444.936096 697.369019,443.674591  C700.920166,442.434235 701.605774,440.621033 700.273926,436.911346  C692.335571,414.801453 704.649841,393.015686 727.623047,388.090088  C748.432495,383.628387 769.569763,400.966125 770.463806,422.154205  C771.669678,450.731842 741.286377,469.835052 716.099548,455.552124  C713.867920,454.286652 712.207764,454.555908 710.108643,455.655518  C691.142029,465.590607 670.690002,469.473114 649.513489,470.354187  C646.187683,470.492554 642.867554,470.767151 639.086487,470.974030 z"/><path fill="#000000" opacity="1.000000" stroke="none" d="M744.258850,244.114960  C734.372864,269.615967 719.823975,291.813568 702.524902,312.317505  C700.701172,314.479187 698.804565,316.694733 695.687927,316.961304  C692.403320,317.242188 689.792908,315.891907 688.020996,313.187531  C685.815063,309.820770 686.431580,306.444305 688.713806,303.414551  C693.923096,296.498810 699.514771,289.858063 704.489197,282.780914  C718.666687,262.610138 730.631226,241.303925 735.134827,216.684662  C740.067627,189.719086 734.302307,166.329651 710.967346,149.488739  C698.561584,140.535461 684.377930,135.913788 669.435913,133.363098  C662.047546,132.101868 654.613892,131.330063 647.114685,131.223526  C645.449280,131.199875 643.770630,131.237335 642.122253,131.042664  C637.010803,130.438980 633.729675,127.098427 633.810425,122.713074  C633.894470,118.150726 637.569885,114.780479 642.918762,114.742058  C656.796326,114.642372 670.494141,116.461548 683.908813,119.826805  C705.243164,125.178841 724.288269,134.661743 737.769897,152.812210  C749.903320,169.147644 754.378723,187.616974 752.602905,207.879028  C751.516724,220.271957 748.721924,232.155945 744.258850,244.114960 z"/><path fill="#000000" opacity="1.000000" stroke="none" d="M299.011383,140.991425  C315.460876,126.748535 334.833344,120.075661 355.521698,116.788910  C382.277008,112.538315 408.936035,114.418686 435.497650,118.902451  C441.902100,119.983551 445.179718,123.647743 444.183105,128.774139  C443.227051,133.691849 438.955292,135.989395 432.910736,134.933899  C408.695709,130.705521 384.348175,128.834625 359.917572,132.451920  C342.432648,135.040787 325.696228,140.260941 311.815826,151.764893  C294.596283,166.036331 287.916199,184.787125 289.864288,206.866913  C291.583344,226.350525 298.853729,243.941833 308.054993,260.894531  C308.452362,261.626648 308.848816,262.360718 309.207886,263.111969  C311.712708,268.352692 310.568237,272.779541 306.110016,275.136353  C301.973999,277.322815 297.690613,275.766937 294.910858,270.798615  C286.167877,255.172134 279.018829,238.905853 275.592285,221.207703  C272.107788,203.210281 272.399750,185.477356 279.506226,168.254944  C283.835663,157.762680 290.168884,148.698212 299.011383,140.991425 z"/><path fill="#000000" opacity="1.000000" stroke="none" d="M489.723328,280.965179  C496.528870,268.824768 507.497650,264.174316 520.630127,267.565979  C531.804260,270.451874 539.470398,280.634125 539.526245,292.663849  C539.585510,305.435608 532.042725,315.578339 519.668030,318.602020  C509.255096,321.146393 499.984985,318.347076 493.138489,310.139496  C485.957672,301.531158 484.403259,291.710999 489.723328,280.965179 z"/></svg>