<svg version="1.2" xmlns="http://www.w3.org/2000/svg" viewBox="0 0 225 225" width="100" height="100">
	<title>flutterflow-svg</title>
	<style>
		.s0 { fill: #fffeff } 
		.s1 { fill: #503bf9 } 
		.s2 { fill: #442af9 } 
		.s3 { fill: #fcfcff } 
		.s4 { fill: #fefeff } 
		.s5 { fill: #fafaff } 
		.s6 { fill: #f4f3ff } 
		.s7 { fill: #462ef9 } 
	</style>
	<path id="Layer" fill-rule="evenodd" class="s0" d="m226 104c0 41 0 81.5 0 122q-112.5 0-225 0 0-112.5 0-225 112.5 0 225 0c0 34.2 0 68.3 0 103zm-50.3-17.2c3.1-2.3 7.2-4.1 9.2-7.1 9.1-14.4 17.8-28.9 26.3-43.6 6.7-11.7-1.2-25-14.7-25.1-43.7-0.1-87.3 0-131 0-6.3 0-11.3 2.7-14.6 8.1q-12.9 21.3-25.7 42.7c-3.2 5.4-3.4 11-0.8 16.7 5.1 11.6 10.1 23.2 15.3 34.7 1.2 2.6 0.9 4.4-0.5 6.8-7.7 12.5-15.1 25.1-22.7 37.6-3.1 5.2-4 10.6-1.6 16.2q7 16.3 14.3 32.4c4.7 10.4 15 12.1 23 3.9 7.4-7.7 14.6-15.6 22.2-23.1 1.6-1.6 4.4-2.9 6.7-3 10.5-0.3 21-0.1 31.5-0.1 6.7 0 11.9-2.8 15.4-8.6 8.4-14 16.7-28 25.2-41.9 3.4-5.8 3.6-11.5 0.8-17.6-3.7-7.8-7.1-15.8-10.5-23.7-0.6-1.4-1.1-2.9-1.9-5.2 11.5 0 21.9 0 32.9 0.1 0 0 0.5-0.2 1.2-0.2z"/>
	<path id="Layer" fill-rule="evenodd" class="s1" d="m174 86.9c-10.5 0-20.9 0-32.4 0 0.8 2.3 1.3 3.8 1.9 5.2 3.4 7.9 6.8 15.9 10.5 23.7 2.8 6.1 2.6 11.8-0.8 17.6-8.5 13.9-16.8 27.9-25.2 41.9-3.5 5.8-8.7 8.6-15.4 8.6-10.5 0-21-0.2-31.5 0.1-2.3 0.1-5.1 1.4-6.7 3-7.6 7.5-14.8 15.4-22.2 23.1-8 8.2-18.3 6.5-23-3.9q-7.3-16.1-14.3-32.4c-2.4-5.6-1.5-11 1.6-16.2 7.6-12.5 15-25.1 22.7-37.6 1.4-2.4 1.7-4.2 0.5-6.8-5.2-11.5-10.2-23.1-15.3-34.7-2.6-5.7-2.4-11.3 0.8-16.7q12.8-21.4 25.7-42.7c3.3-5.4 8.3-8.1 14.6-8.1 43.7 0 87.3-0.1 131 0 13.5 0.1 21.4 13.4 14.7 25.1-8.5 14.7-17.2 29.2-26.3 43.6-2 3-6.1 4.8-9.7 7-0.7 0-0.9 0.1-1.2 0.2zm-121.8 21.6c0.3-0.2 0.5-0.3 1.7-0.8 2.2 0 4.3-0.2 6.5-0.2q35.2 0 70.4 0c1.8 0 3.7 0 6.2 0-2.7-6.3-5-11.4-7.1-16.6-1-2.5-2.5-3.5-5.2-3.4-26.7 0.1-53.3 0-79.9 0-0.8 0-1.6 0.1-2.9 0.2 2.1 4.8 3.9 9.2 5.9 13.5 1.2 2.4 2.8 4.7 4.4 7.3zm54.2 63.1c7 1.2 11.2-1.8 14.6-8.1 6.4-11.8 13.8-23.1 20.5-34.7 1.2-2.1 2.4-5.5 1.4-7-1-1.7-4.4-2.5-6.8-2.5-23-0.2-46-0.1-68.9-0.1-3.6 0-7.2 0-10.8 0-0.1 0.8-0.3 1.1-0.2 1.4 7.1 16.3 14.2 32.5 21.5 48.7 0.5 1.2 2.7 2.2 4.2 2.2 7.8 0.2 15.7 0.1 24.5 0.1zm68.8-99.7c8-13.3 16-26.5 23.8-39.8 1.1-1.9 2.1-5.2 1.2-6.7-0.9-1.5-4.2-2.2-6.4-2.2-15.5-0.2-31-0.1-46.5-0.1q-16.8 0-33.8 0c0 0.6-0.1 1 0 1.3 7 16.1 14 32.2 21.3 48.3 0.5 1.1 2.6 2.3 4.1 2.3 10.1 0.2 20.3 0.2 30.4 0 1.9-0.1 3.7-1.6 5.9-3.1zm-61.6-18c-4-9.1-8.1-18.2-11.9-27.4-1.1-2.7-2.7-3.6-5.6-3.5-9.5 0.2-19 0.2-28.4 0-3.7-0.1-5.8 1.3-7.6 4.3-7.6 13.1-15.5 26-23.2 39-1 1.8-2.1 5-1.2 6.2 1.1 1.6 4.1 2.5 6.3 2.5 25.5 0.2 50.9 0.1 76.4 0.1 1.2 0 2.4-0.2 4.2-0.3-3-7.1-5.9-13.7-9-20.9zm-70.4 82.8c-5.4 9-10.8 17.9-16 27-2.5 4.2-1 7.7 3.6 7.8 11.3 0.2 22.5 0.1 34.5 0.1-6.1-14.1-11.9-27.4-18.1-41.5-1.5 2.6-2.6 4.3-4 6.6zm15.7 48.6c0-0.7 0-1.8-0.1-1.8-8.5-0.1-17-0.1-26.1-0.1 3.1 7.1 5.8 13.3 8.8 20.1 5.9-6.2 11.4-12 17.4-18.2z"/>
	<path id="Layer" class="s2" d="m174.3 87c0-0.2 0.2-0.3 0.6-0.3 0.1 0.1-0.4 0.3-0.6 0.3z"/>
	<path id="Layer" class="s3" d="m105.9 171.6c-8.3 0-16.2 0.1-24-0.1-1.5 0-3.7-1-4.2-2.2-7.3-16.2-14.4-32.4-21.5-48.7-0.1-0.3 0.1-0.6 0.2-1.4 3.6 0 7.2 0 10.8 0 22.9 0 45.9-0.1 68.9 0.1 2.4 0 5.8 0.8 6.8 2.5 1 1.5-0.2 4.9-1.4 7-6.7 11.6-14.1 22.9-20.5 34.7-3.4 6.3-7.6 9.3-15.1 8.1z"/>
	<path id="Layer" class="s4" d="m175 72.2c-2 1.2-3.8 2.7-5.7 2.8-10.1 0.2-20.3 0.2-30.4 0-1.5 0-3.6-1.2-4.1-2.3-7.3-16.1-14.3-32.2-21.3-48.3-0.1-0.3 0-0.7 0-1.3q17 0 33.8 0c15.5 0 31-0.1 46.5 0.1 2.2 0 5.5 0.7 6.4 2.2 0.9 1.5-0.1 4.8-1.2 6.7-7.8 13.3-15.8 26.5-24 40.1z"/>
	<path id="Layer" class="s4" d="m113.8 54.3c2.9 6.8 5.8 13.4 8.8 20.5-1.8 0.1-3 0.3-4.2 0.3-25.5 0-50.9 0.1-76.4-0.1-2.2 0-5.2-0.9-6.3-2.5-0.9-1.2 0.2-4.4 1.2-6.2 7.7-13 15.6-25.9 23.2-39 1.8-3 3.9-4.4 7.6-4.3 9.4 0.2 18.9 0.2 28.4 0 2.9-0.1 4.5 0.8 5.6 3.5 3.8 9.2 7.9 18.3 12.1 27.8z"/>
	<path id="Layer" class="s4" d="m52 108.2c-1.4-2.3-3-4.6-4.2-7-2-4.3-3.8-8.7-5.9-13.5 1.3-0.1 2.1-0.2 2.9-0.2 26.6 0 53.2 0.1 79.9 0 2.7-0.1 4.2 0.9 5.2 3.4 2.1 5.2 4.4 10.3 7.1 16.6-2.5 0-4.4 0-6.2 0q-35.2 0-70.4 0c-2.2 0-4.3 0.2-7.2 0.4-0.9 0.1-1 0.2-1.2 0.3z"/>
	<path id="Layer" class="s5" d="m43.4 136.4c1.2-2 2.3-3.7 3.8-6.3 6.2 14.1 12 27.4 18.1 41.5-12 0-23.2 0.1-34.5-0.1-4.6-0.1-6.1-3.6-3.6-7.8 5.2-9.1 10.6-18 16.2-27.3z"/>
	<path id="Layer" class="s6" d="m58.6 185.5c-5.7 6-11.2 11.8-17.1 18-3-6.8-5.7-13-8.8-20.1 9.1 0 17.6 0 26.1 0.1 0.1 0 0.1 1.1-0.2 2z"/>
	<path id="Layer" class="s7" d="m52.1 108.3c0.1-0.2 0.2-0.3 0.6-0.3 0 0.2-0.2 0.3-0.6 0.3z"/>
</svg>