<svg xmlns="http://www.w3.org/2000/svg" xmlns:xlink="http://www.w3.org/1999/xlink" id="Layer_1" x="0px" y="0px" width="100%" viewBox="0 0 150 168" xml:space="preserve"><path fill="#FEFFFF" opacity="1.000000" stroke="none" d="M80.000000,169.000000  C53.333332,169.000000 27.166666,169.000000 1.000000,169.000000  C1.000000,113.000000 1.000000,57.000000 1.000000,1.000000  C51.000000,1.000000 101.000000,1.000000 151.000000,1.000000  C151.000000,57.000000 151.000000,113.000000 151.000000,169.000000  C127.500000,169.000000 104.000000,169.000000 80.000000,169.000000 M70.336090,144.572021  C75.275482,149.521851 80.091415,154.605743 85.230453,159.338806  C86.747360,160.735886 89.165405,161.854202 91.190231,161.887177  C104.841888,162.109406 118.498856,162.013092 132.154053,161.988586  C133.012985,161.987045 133.871445,161.721252 133.827759,161.728531  C120.639252,148.136444 107.312218,134.401596 94.085526,120.315620  C94.085526,120.315620 93.972443,119.966637 94.359421,119.430504  C107.901802,106.028809 121.444176,92.627113 134.986557,79.225418  C126.591911,78.059143 118.849442,78.038300 111.107124,78.065048  C103.457008,78.091469 94.973595,76.117867 88.391815,78.796303  C81.829391,81.466843 77.168365,88.817207 71.686852,94.129341  C70.742821,95.044197 69.864479,96.026833 68.374077,97.294907  C60.880051,104.796921 53.386028,112.298927 46.702854,118.989227  C54.698563,127.530777 62.388454,135.745636 70.336090,144.572021 M75.822350,18.322279  C53.965229,40.188351 32.108112,62.054420 10.952615,83.218582  C18.947397,91.528862 26.490967,99.370125 32.821163,105.950127  C66.289955,72.488205 99.801651,38.983379 132.676880,6.114891  C124.250710,6.114891 114.344170,6.933580 104.632767,5.906764  C92.610428,4.635607 83.260818,7.900868 75.822350,18.322279 z"/><path fill="#45D1FD" opacity="1.000000" stroke="none" d="M76.072220,18.072140  C83.260818,7.900868 92.610428,4.635607 104.632767,5.906764  C114.344170,6.933580 124.250710,6.114891 132.676880,6.114891  C99.801651,38.983379 66.289955,72.488205 32.821163,105.950127  C26.490967,99.370125 18.947397,91.528862 10.952615,83.218582  C32.108112,62.054420 53.965229,40.188351 76.072220,18.072140 z"/><path fill="#42D0FD" opacity="1.000000" stroke="none" d="M68.955795,96.978165  C69.864479,96.026833 70.742821,95.044197 71.686852,94.129341  C77.168365,88.817207 81.829391,81.466843 88.391815,78.796303  C94.973595,76.117867 103.457008,78.091469 111.107124,78.065048  C118.849442,78.038300 126.591911,78.059143 134.986557,79.225418  C121.444176,92.627113 107.901802,106.028809 93.867874,119.560135  C86.706039,113.077644 80.072502,106.427620 73.332100,99.887749  C72.095985,98.688408 70.425682,97.936569 68.955795,96.978165 z"/><path fill="#08599D" opacity="1.000000" stroke="none" d="M93.985184,120.666748  C107.312218,134.401596 120.639252,148.136444 133.827759,161.728531  C133.871445,161.721252 133.012985,161.987045 132.154053,161.988586  C118.498856,162.013092 104.841888,162.109406 91.190231,161.887177  C89.165405,161.854202 86.747360,160.735886 85.230453,159.338806  C80.091415,154.605743 75.275482,149.521851 70.426819,144.166718  C70.900139,143.472992 71.282730,143.184570 72.078377,142.924179  C77.142365,141.384094 81.877922,140.023880 86.415344,138.176910  C89.598007,136.881409 90.105347,134.619095 87.265175,132.144623  C86.420898,131.409042 85.677727,130.557404 85.048660,129.473572  C88.134445,126.347710 91.059807,123.507233 93.985184,120.666748 z"/><path fill="#21BBFC" opacity="1.000000" stroke="none" d="M71.665314,142.896149  C71.282730,143.184570 70.900139,143.472992 70.297943,143.860947  C62.388454,135.745636 54.698563,127.530777 46.702854,118.989227  C53.386028,112.298927 60.880051,104.796921 68.664932,97.136536  C70.425682,97.936569 72.095985,98.688408 73.332100,99.887749  C80.072502,106.427620 86.706039,113.077644 93.674393,119.828201  C93.972443,119.966637 94.085526,120.315620 94.035355,120.491188  C91.059807,123.507233 88.134445,126.347710 84.760139,129.652115  C80.095901,134.376068 75.880608,138.636108 71.665314,142.896149 z"/><path fill="#0D5097" opacity="1.000000" stroke="none" d="M72.078369,142.924164  C75.880608,138.636108 80.095901,134.376068 84.599716,129.937500  C85.677727,130.557404 86.420898,131.409042 87.265175,132.144623  C90.105347,134.619095 89.598007,136.881409 86.415344,138.176910  C81.877922,140.023880 77.142365,141.384094 72.078369,142.924164 z"/></svg>