<svg xmlns="http://www.w3.org/2000/svg" xmlns:xlink="http://www.w3.org/1999/xlink" id="layer" x="0px" y="0px" viewBox="0 0 652 652" style="enable-background:new 0 0 652 652;" xml:space="preserve"><path fill="red" d="M308.3,233.8c-4.5,3.7-7.5,8.9-8.5,14.6c-1.8,12,6.5,21.3,18.5,21.3c12.3,0,22.5-8.3,24.3-19.8c2-12.3-6.3-21.8-18.3-21.8 C318.5,228.1,312.8,230.1,308.3,233.8z M204.5,334.4c0.3-5.6,0.2-11.2-0.3-16.8h-91.7L97,349.5h68.3c-5.2,18.4-24.7,30.1-48,30.1 c-35.3,0-58.7-23.6-58.7-57.1c0-32.7,23.9-56.6,55.8-56.6c24.1,0,38.4,12.4,45.7,27h39.7c-9.6-36.9-40.5-61.8-85.4-61.8 c-53.5,0-92.7,38.9-92.7,91.4c0,52.9,38.7,91.4,95.5,91.3C169.5,413.8,202.4,376.7,204.5,334.4z M238.7,234l-28,177h35.8l28-177 H238.7z M277.9,411l19.2-122h35.8l-19.2,122H277.9z M492.8,234H457L446,302.2c-6.5-9.6-18.2-16.1-35-16.1 c-28.6,0-58.9,19.2-65.1,58.7c-7.5,47.7,23.6,69,47.8,69c16.1,0,29.3-6.5,38.7-18.2L440,411h39.8l-8.9-32.6L492.8,234z M414.4,317.3 c13.8,0,28.5,12.5,25.2,34.3c-3.6,23.4-21.3,31.1-33.7,31.1c-16.3,0-28.3-14-25.2-34C383.5,329.8,397.3,317.3,414.4,317.3z  M621.5,361.7h-91.6c3.9,15.6,14.8,23.3,29.8,23.3c13.8,0,21-3.4,26-10.9h32.4c-7.8,28.3-33.5,39.7-57.6,39.7 c-38.7,0-63.8-27.3-63.8-63.9c0-36.3,25.9-63.8,62.8-63.8c36.9,0,62.3,27.5,62.3,63.9C621.8,354.9,621.8,356.7,621.5,361.7z  M529.6,337.8h59.5c-2.3-13.2-14.8-22.6-29.6-22.6C543.9,315.2,533.1,324.3,529.6,337.8z"/></svg>