<svg version="1.2" xmlns="http://www.w3.org/2000/svg" viewBox="0 0 480 480" width="100" height="100"><style></style><path fill-rule="evenodd" d="m422.1 279.9c-0.5 2.4-1.1 4.3-1.2 6.3-0.5 11.9-7.7 19.5-17.4 23.6-9.2 3.8-10.4 10.5-11.2 18.5-1.2 12 0.9 23 8.3 32.9 4.9 6.5 9.1 13.2 15 19.1 7.6 7.6 13.8 17.3 14.6 28.8 0.7 10.2-5.5 15-15.6 12.8q-9.2-2.1-18.6-3.6c-8.6-1.4-17.2-0.5-25.9-0.4-25.5 0.2-51 0.1-76.5 0.4-28.8 0.4-57.4 3.2-85.9 7.8-29.4 4.8-59.1 8.4-87.7 17.1-11 3.3-21.8 7.1-32.7 10.7-8.7 2.8-12.2 1.2-15.7-7.1-0.8-1.9-1.7-3.6-3.6-4.6-10.4-5.1-17.8-13.9-26.5-21.1-3.2-2.7-5-6.3-4.6-10.6 0.2-2.6-1.2-4.4-2.4-6.5-5.2-8.6-3.8-15.6 4.3-21.7 7-5.4 14.8-9.6 22.5-13.9 4.5-2.4 6.1-5.8 5.2-10.6q-2.1-11.5-4.3-23c-0.1-0.9-0.4-1.7-0.4-2.5 0-26.7-0.8-53.3 0.5-80 0.9-16.4 2.1-32.9 1.3-49.4-1.2-25.7 5.6-49.4 17.2-72 20.8-39.9 53.3-65.8 96-79.1 13-4 26.7-3.6 40.1-4.9 6.6-0.6 13.3-0.7 19.9-1.1 17.5-1.2 32.8 4.8 47.1 13.9 4.8 3 8.9 3.3 13.8 0.4 11.4-6.8 23.8-8.1 36.7-6.2 2.6 0.4 5.1 1.2 7.5 2.6 34.8 20.4 56.7 51.2 70.6 88.3 9.1 24.6 16 49.8 19.1 75.8 1.9 14.8 1.8 29.6-4.9 43.7-2.2 4.7-3.6 10-4.6 15.6zm-160.7-158c-8.5 6.7-16.9 13.6-24.5 21.3-21.5 21.4-41.4 44.2-61.8 66.7-4.1 4.5-4.1 12-0.2 17.6 2.7 3.9 5.4 7.8 8.8 10.9 6.1 5.8 11.4 12.7 19.9 15.5 13.5 4.6 27.1 9.2 40.5 14.3 5 1.9 8.4 1 11.9-2.9 3.9-4.5 8.1-8.8 12.5-12.9 2.6-2.5 6.1-3.1 9.2-0.9 3.2 2.3 3.2 5.7 1.6 9-1.9 3.7-4.1 7.3-6.1 10.9-0.8 1.5-2.9 3.2-0.8 4.8 2.1 1.7 3.6-0.2 4.9-1.8 4.8-5.7 10.4-10.4 16.5-14.5 2.8-2 5.9-2.4 8.8-0.1 3 2.4 3.4 5.6 2.1 9.1-1.2 3.3-3.5 6-5.4 8.9-0.9 1.4-2.7 2.6-1.8 4.9 2.2 0.3 3.2-1.5 4.5-2.7 3.1-3 6.2-6 9.4-9 2.5-2.3 5.4-3.2 8.6-1.1 3 2 3.8 5 3 8.4-0.6 2-1.6 4-2.4 6-0.7 2-2.2 4.1 0.5 5.7 2.8 1.5 5.3 0.7 6.9-1.9 1.5-2.2 2.6-4.7 3.7-7.1 1.1-2.4 2.4-4.5 5.3-4.8 3.1-0.3 4.8 1.9 6.3 4.1 1.1 1.7 2 3.5 2 5.6-0.1 4.7 2.5 5.6 6.7 5.9 14.5 1 27.9-3.6 41.5-7.4 4.5-1.3 6.6-4 8.3-8.2 8.2-19.4 6.3-39.4 3.5-59.1-4.2-29.2-12.5-57.6-26-84.1-9.1-17.9-20.6-33.8-38.2-44.5-5-3-10.2-5-16.1-3.8-11.2 2.2-21.8 6-31.4 12.4-11.1 7.4-21.2 16.2-32.2 24.8zm-54 20c9-9.4 18.1-18.7 28-27.1 11.8-10 23.9-19.8 35.7-29.7 1.8-1.5 4.8-3 4-5.8-0.9-3-4.1-3.7-6.8-4.5-1.5-0.5-2.9-0.3-4.4-0.1-7.2 1.1-14.2 0.9-21.3-0.9-16.3-4.1-32.8-4.4-49.5-1.9-20.8 3.2-38.5 13.6-56.4 23.6-4.9 2.8-9 6.9-12.1 11.7-13.3 20.4-21.9 42.5-24 67-0.4 4.6 1.1 5.6 5.6 4 5-1.8 9.5-4.9 14.8-5.8 4.5-0.7 8.4 0.6 10.5 5 2.1 4.3 0.1 7.7-3.4 10.4-1.4 1.1-3.1 1.9-4.7 2.8-7.4 4.2-14.8 8.3-22.1 12.6-2.6 1.5-4.9 4.1-3.6 6.9 1.4 3.3 4.4 0.6 6.5 0 4.5-1.3 8.8-3.1 13.6-2.3 4.1 0.7 8.1 2 9 6.7 1 4.7-2.4 6.8-5.8 8.8-6.8 4-13.6 7.8-20.3 11.8-2.4 1.3-5.1 2.7-3.7 6.4 3.2 0.2 5.1-1.8 7.3-3.2 4.6-2.7 9-6 14.6-6 4.2 0 8.7 0.4 10.1 5.4 1.4 4.9-2 7.4-5.7 9.3q-12.4 6.5-23.4 15.3c-1.7 1.3-3.3 2.8-4.1 4.9-0.6 1.5-0.7 3 0.5 4.2 1.5 1.4 2.8 0.4 4-0.5 2.6-1.8 5.2-3.6 7.8-5.5 3.9-2.7 8.3-3.2 12.9-2.5 3.7 0.6 6.7 2.1 7.9 6 1 3.5-0.7 6.4-3.3 8.3-7.9 5.6-14.8 12.6-23.6 16.6-4.5 2-5.5 4.4-3.6 8.5 1.4 3 0 7 2.6 9.4 3 2.7 6.3-0.5 9.6-0.2 3.7 0.4 7.6 0.1 9.2 4.3 1.7 4.3-0.7 7.5-3.5 10.2-2.7 2.5-5.7 4.6-8.5 7-5.5 4.7-5.7 8.7-0.9 14 1.3 1.5 3.4 2.7 3.3 4.9-0.4 6.2 3.5 5.1 7.2 4.4 9.8-1.9 19.7-3.2 29.7-3.4 34.3-0.5 68.5-3 102.5-7.1 12.5-1.5 25-0.9 37.4-1 24.9-0.3 49.7-0.2 74.5-0.1 4.5 0 6.4-2 6.4-6.3 0-5-0.2-10 0-15 0.2-4.5-2-6-6.1-5.7-25.4 1.8-50.5-0.8-75.4-5.4-27.1-5.1-53.8-11.9-78.4-24.7-15-7.8-29.2-16.9-39.1-31.1-3.8-5.4-7.8-10.4-12.7-14.7-2.6-2.3-4.7-5.1-5-8.4-1.4-13.2-1-26.2 8.3-36.9 15.7-18.1 31.6-36.1 47.9-54.6zm148.1 227.3c-10 0-20 0-30 0.1-15 0.1-30-0.5-45 0.7-16.6 1.2-33.1 3-49.8 3.5-12.1 0.5-24.3 0.3-36.3 2.7-2.8 0.6-5.4 1.3-5.9 4.5-0.8 6.2-1.5 12.5-2.1 18.8-0.2 1.8 0.3 3.4 2.3 3.8 2 0.5 3.6-0.3 4.7-2 1.1-1.8 1.1-3.8 1.1-5.8-0.1-5 1.2-9.6 3.5-13.9 2.2-4.2 7-4.3 9.7-0.4 2.2 3.3 2.7 7 2.7 10.9 0 7.7 0.7 8.4 8.3 7.5 10.2-1.2 11.1-2 13.7-11.7 0.2-0.8 0.5-1.6 0.8-2.3 1.1-2.3 2.8-3.9 5.4-3.7 2.7 0.2 3.9 2.3 4.6 4.7 0.3 1.1 0.4 2.2 0.6 3.4 0.5 3.4 1.7 6.1 6 5.7 4-0.4 7.6-1.2 8-6.3 0.3-2.8 1.2-5.6 2-8.3 1-3 2.9-5.3 6.4-5.5 3.5-0.1 5.3 2.5 6.6 5.3 0.6 1.3 0.8 2.8 1.3 4.3 0.8 2.6-1.4 6.3 2.8 7.6 3.1 1 6.2 1 9.4 0.5 3.4-0.4 5.2-2 5.3-5.4 0.2-4.3 1.2-8.2 6.2-9 5.3-0.9 7 3.3 9 7 0.3 0.6 0.6 1.2 0.7 1.8 1 3.8 3.3 5.3 7.3 5.2 23.5-0.1 47 0 70.5 0 1.6-0.1 3.4 0.4 5-1.8-4.5-7.6-9.1-15.5-13.8-23.3-0.9-1.5-2.4-1.7-3.9-0.8-5.1 2.8-10.6 2.4-17.1 2.2zm-289.3 22.5c-3.1 2.1-6.1 4-9.1 6.2-6.1 4.4-5.8 6.1 0.6 10.3 8.4 5.4 16.9 10.9 21.1 20.6 1.3 3.1 3.3 3 6 1.6 8.6-4.5 17.4-8.6 26.8-10.7 5.4-1.2 6.9-4.4 7-9.3 0.1-8.6 0.4-17.3 0.8-25.9 0.2-2.7-0.8-3.9-3.2-3.7-9.8 0.8-19.6 1-29.4 1.1-8 0-13.8 5.3-20.6 9.8zm85.1-1.6c0.4-2.3 0.8-4.5 1.2-6.8 0.2-1.7 0.4-3.4-1.3-4.5-3.9-2.7-10.9-0.3-11.6 4.4-1 7-1.6 14.2-2.2 21.3-0.3 3.2-0.4 6.7 4.3 6.9 5.6 0.2 8.8-2.2 9-6.9 0.1-4.5 0.2-9 0.6-14.4zm20 1.9c0-4.4 2.3-8.7 1.8-13.6-5.9 2.7-7.5 17.9-2.6 25.5 0.2-4.3 0.5-7.6 0.8-11.9z"/><path  d="m230.9 191.1c5.5 10.3 8.8 20.5 3 31.5-4.7 9.1-15.7 13.7-25.4 10.9-4.5-1.2-7.4-3.9-8.4-8.3-1.3-5.3-2.2-10.8-3.2-16.1-0.2-0.8-0.1-1.7-0.1-2.5 1.4-13.3 23-23.4 34.1-15.5z"/><path  d="m296 127.1c-3.4 1.5-6.5 2.5-8.8-0.9-2.4-3.6-0.2-6.3 2.4-8.6 5-4.7 9.9-9.4 15.2-13.7 8.6-7.2 23.5-5.7 30.6 2.9 4.8 5.7 9.2 11.8 13.7 17.8 2.1 2.9 3.4 6.3 1.2 9.7-2.1 3.6-5.6 3.5-9.3 3-3.9-0.5-6.8-2.6-9-5.6-3.1-4-5.9-8.1-8.8-12.1-3-4-6.1-4.7-10.4-1.9-5.3 3.4-10.8 6.5-16.8 9.4z"/><path  d="m85.9 415.3c-8.8-0.2-12.7-5.7-11-15.2 0.9-5.3 3.7-9.6 7.9-12.9 5.5-4.3 12.5-2.6 15.3 3.8 1.7 4 3.3 8.1 2.7 12.5-1.1 8.4-7.3 10.8-14.9 11.8z"/></svg>