<svg version="1.2" xmlns="http://www.w3.org/2000/svg" viewBox="0 0 593 593" width="50" height="50"><style>.a{fill:#fff}.b{fill:#99cc02}.c{fill:#029902}.d{fill:#019900}.e{fill:#acd468}.f{fill:#00a100}.g{fill:#a2d31e}.h{fill:#229b22}.i{fill:#199b19}.j{fill:#109e10}.k{fill:#fefffe}.l{fill:#a1d317}.m{fill:#9acc1a}.n{fill:#9acd1c}.o{fill:#98cb16}.p{fill:#9acc16}.q{fill:#9acc15}.r{fill:#169a16}</style><path fill-rule="evenodd" class="a" d="m567 220c0 125 0 249.5 0 374q-269.5 0-539 0 0-296.5 0-593 269.5 0 539 0c0 72.8 0 145.7 0 219zm-512.6 2.8c0.2 1.4 0.5 2.8 0.7 4.7 0 0.2 0.1 0.4 0.1 1.2 0.3 1.4 0.6 2.8 0.7 4.9 0.1 0.4 0.2 0.9 0.3 2.1 0.3 1.4 0.5 2.8 0.7 5.1 0.7 5 1.5 10.1 2.1 16 0.3 1.7 0.7 3.4 0.9 5.8 0.1 0.5 0.1 0.9 0.1 2.1 0.3 1.8 0.7 3.5 0.9 5.9 0.1 0.5 0.2 0.9 0.2 2.1 0.3 1.4 0.6 2.8 0.8 4.9 0.1 0.5 0.2 0.9 0.1 2.2 0.4 1.7 0.7 3.4 0.9 5.9 0.7 0.7 1.4 1.4 2.9 2.3 1.7-0.4 3.4-0.7 5.8-0.9 0.5-0.1 0.9-0.2 2.1-0.2 1.4-0.3 2.8-0.6 5.1-0.8 21.4-2.9 42.7-5.8 64.1-8.6 12.4-1.6 24.9-3 37.3-3.5q0 42.3 0 84.6c-41.6 5.6-82.5 11.1-123.6 16.6 0.9 6.3 1.7 12 2.5 18.6 2.3 16.4 4.6 32.8 7.2 49.9 38.5-5.1 77-10.1 116-15.3 0 36.8 0 73.1 0 109.4 23.4 0 46.2 0 69.6 0 0-39.8 0-79.2 0-118.8 29-3.9 57.5-7.7 86.3-10.5 0 36.1 0 72.2 0 108.4 23.3 0 46.2 0 69.6 0 0-39.7 0-79.1 0-118.7 42-5.7 83.6-11.3 125.5-16.9-3.1-23.2-6.2-45.7-9.2-68.7-24 3.2-47.5 6.4-71.9 9.6-3.7 0.6-7.5 1.2-12.1 1.7-10.8 1.3-21.6 2.6-32.4 3 0-28.1 0-56.2 0-84.7 42-5.6 83.5-11.2 125.6-16.8-3.1-23.1-6.1-45.7-9.2-68.4-1.5 0-2.3-0.1-3.1 0-20.8 2.8-41.6 5.6-62.4 8.4-16.8 2.2-33.6 4.4-50.6 5.6q0-54.3 0-108.6c-23.8 0-46.7 0-69.9 0 0 39.8 0 79.2-0.6 119.2-29.4 3.9-58.8 7.8-88.3 11.4 0 0-0.2 0-0.1-0.9q0-54.2 0-108.2c-23.4 0-46.1 0-69.4 0 0 39.5 0 78.7-0.6 118.3-0.6 0.3-1.2 0.6-1.8 0.7-32.7 4.4-65.5 8.9-99.1 13.3-4 0.9-8.1 1.9-12.7 2.7-0.1 0.1-0.3 0.1-1.2 0.1-2.9 0-5.8 0-8.6 0.3-0.6 0.1-0.9 1.8-1.3 3.5z"/><path fill-rule="evenodd" class="b" d="m408.1 171.9c16.9-2.1 33.7-4.3 50.5-6.5 20.8-2.8 41.6-5.6 62.4-8.4 0.8-0.1 1.6 0 3.1 0 3.1 22.7 6.1 45.3 9.2 68.4-42.1 5.6-83.6 11.2-125.6 16.8 0 28.5 0 56.6-0.3 85.3-0.6 0.5-1 0.5-1.4 0 0-28.4 0-56.4 0-84.3q-0.5 0-1 0c0 28.3 0 56.6-0.4 84.9-21.4 3-42.5 5.8-63.6 8.2 0-28.1 0-55.7 0-83.3q-0.5 0-1 0c0 28 0 55.9-0.3 83.9-0.6 0.1-1 0.1-1.4-0.4-0.1-28.5-0.1-56.5-0.1-85-10.8 1.5-20.7 2.8-30.6 4.1-19.1 2.5-38.3 5-57.6 7.5-0.3-0.1-0.8-0.1-0.8-0.6 0-23.4 0-46.3 0.1-69.2 29.4-3.9 58.8-7.8 88.8-12.3 0.7-2.4 0.9-4.2 0.9-6q0-52.9 0-105.9 0-2.8 0-5.7c23 0 45.2 0 68 0 0 2.2 0 4.2 0 6.2 0 32.2 0 64.5 0 96.8 0 1.9 0.7 3.7 1.1 5.5zm92.8 56.1q13.8-1.6 27.6-3.3-0.2-0.8-0.3-1.7c-9.4 1.3-18.8 2.7-29.1 4q-14 1.8-28 3.6 0.1 0.8 0.3 1.6c3-0.4 6.1-0.7 9.2-1.2 6.5-1 12.9-2 20.3-3zm-160.9-92.5q0 22.1 0 44.2 0.5 0 1 0 0-2.5 0-4.9c0-34.7 0.1-69.3-0.1-104 0-4.4 0.9-6 5.7-5.9 17.7 0.3 35.3 0.3 53 0 4.5-0.1 5.5 1.3 5.5 5.6-0.2 31.9-0.1 63.7-0.1 95.5q0 2.4 0 4.8c0.9-0.6 1-1 1-1.5 0-33.7-0.1-67.3 0.1-101 0-3.6-1.4-4.4-4.7-4.4-18.8 0.2-37.7 0.2-56.5 0-4.1 0-5 1.3-5 5.1 0.2 21.9 0.1 43.7 0.1 66.5zm187 52.2q-1.7-11.6-3.5-23.2-0.6 0.2-1.3 0.3 3.3 24.3 6.5 48.6 0.7-0.1 1.4-0.1c-1-8.3-2.1-16.5-3.1-25.6zm-214 65.8q12-1.7 24.1-3.4-0.1-0.7-0.2-1.4-19 2.5-38 5 0.1 0.7 0.2 1.4c4.3-0.5 8.7-0.9 13.9-1.6zm170.1-89.7q-13.5 1.7-27.1 3.3 0.1 0.8 0.2 1.6 20.4-2.8 40.9-5.6-0.1-0.6-0.2-1.3c-4.3 0.6-8.6 1.1-13.8 2zm-42.4 72.4q2.4-0.4 4.8-0.8-0.1-0.6-0.2-1.3-17.2 2.4-34.4 4.7 0.1 0.7 0.2 1.4c9.6-1.2 19.2-2.4 29.6-4zm-166.6 22.5c-2.3-0.3-4.6-0.9-6.8-0.6-5.6 0.6-11.1 1.6-16.7 2.5q0.1 0.5 0.2 1c7.5-0.8 15.1-1.7 23.3-2.9zm167.8-87.8q5.2-0.9 10.4-1.7-0.2-0.7-0.3-1.3c-4 0.4-8.1 0.9-13 1.5 1.2 0.8 1.6 1.1 2.9 1.5zm-15.6 2.1q1.6-0.3 3.2-0.6-0.2-0.8-0.3-1.5-5.7 0.7-11.4 1.5 0.1 0.6 0.1 1.2c2.5-0.2 5-0.4 8.4-0.6zm-134.7 83.1q2.3-0.2 4.6-0.4-0.1-0.6-0.2-1.3-5.6 0.5-11.2 1.1 0.1 0.8 0.1 1.5c2-0.3 4-0.5 6.7-0.9zm172.8-23.1q1.8-0.1 3.5-0.3-0.1 0-0.1-0.1-5.6 0-11.2 0 0.1 0.7 0.2 1.5c2.3-0.4 4.5-0.7 7.6-1.1zm-49.9-60q-2.5 0.2-5 0.3 0.2 0.9 0.4 1.8c1.7-0.6 3.4-1.2 4.6-2.1zm115.5 43.8q-0.2 2.1-0.3 4.2 0.7 0 1.4 0c-0.2-1.4-0.3-2.8-1.1-4.2zm-76.8 16.6q-2.1 0.4-4.2 0.9 0.2 0.5 0.4 1.1c1.4-0.5 2.8-1 3.8-2zm-174.4 24.6q1.4-0.3 2.8-0.7-0.1-0.5-0.3-1-2.1 0.6-4.2 1.2c0.2 0.1 0.3 0.3 0.6 0.4 0.1 0.1 0.3 0.1 1.1 0.1zm157.1-88q-1.7 0.3-3.3 0.6 0.2 0.7 0.4 1.3c1.2-0.6 2.3-1.2 2.9-1.9zm95.6 53.6c0 0-0.1-0.1 0 0zm-9.1-62.1c0 0 0.1-0.1 0 0zm-114 79c0 0 0.1-0.1 0 0z"/><path fill-rule="evenodd" class="b" d="m337.9 407.5c-28.5 3.8-57 7.6-86 11.5 0 39.6 0 79 0 118.8-23.4 0-46.2 0-69.6 0 0-36.3 0-72.6 0-109.4-39 5.2-77.5 10.2-115.9 14.8 0.6-0.7 1.1-0.9 2-1.2 1.5-0.1 2.7-0.2 3.6-0.3-1.8-2.1-3.4-3.9-5-6 0-0.8 0-1.3 0-2-0.3-1.1-0.7-1.9-1-2.9 0-0.5 0-0.6 0-1.2-0.3-3.5-0.7-6.6-1-9.9 0-0.2 0-0.7 0.2-0.9-0.2-1-0.7-1.9-1.2-3 0-0.5 0-0.6 0-1 0-0.5 0-0.6 0-1.2 0-1.1 0-1.8 0-3-0.3-1.8-0.7-3.2-1-5-0.3-3.5-0.7-6.5-1-9.9-0.4-0.8-0.7-1.2-1-1.9 0-0.5 0-0.6 0.1-1.1 0-3.9 0.3-7.6-0.5-11-1-3.8 1-4.3 3.7-4.7 1.7-0.2 3.5-0.3 5.2-0.5q-0.1-0.7-0.2-1.5c-3.6 0.5-7.2 0.9-10.7 1.4 0.5 5.8 0.9 11.2 1.2 16.6-0.2 0-0.7 0-0.7 0-0.8-5.8-1.6-11.5-2.5-17.8 41.1-5.5 82-11 123.6-16.6 0-28.2 0-56.4 0.3-85.2 0.7-0.5 1.1-0.5 1.5 0 0 28.1 0 55.8 0 83.5q0.5 0 0.9 0c0-28 0-56.1 0.3-84.4 7.6-1.1 14.8-2.1 22-3.1 13.9-1.8 27.9-3.5 41.8-4.8 0 26.5 0 52.6 0 78.7 0 1.9 0.7 3.8 1.1 5.9 0.7 0.8 1.3 1.3 2 2 0.3 0 0.6-0.1 1.1-0.2 0.5 0 0.6 0 1.3 0 7.4-1 14.5-2 21.5-3 0 0 0 0 0.4 0 3.2-0.3 5.9-0.7 8.9-1 0.8 0 1.2 0 1.9 0.3 5.2-0.5 10.2-1.1 15.2-2 3.5-0.6 7-1.5 10.8-2.3 0.5 0 0.6 0 1.3 0 4.8-0.7 9.1-1.3 13.7-2 0.5 0 0.6 0 1.2 0 2.1-0.3 3.9-0.7 5.8-1 0.5 0 0.6 0 1.2 0 1.4 0 2.4 0 3.5 0.5 0.1 21.8 0 43.1-0.5 64.5-2.4 0.1-4.4-0.1-6.4 0.2q-25.8 3.4-51.5 6.8c-3.6 0.5-7.2 1.1-10.8 1.7q0.1 0.8 0.2 1.6c23-3.1 46-6.2 69.1-9 0 0.5 0 0.9-0.1 1.2zm-192.7-42.5q-2.1 0-4.2 0 0 0.5 0 1c1.7 0 3.3 0 5.8 0q3.2-0.3 6.4-0.5-0.1-0.9-0.3-1.8c-2.3 0.4-4.6 0.9-7.7 1.3zm-64 74q-3.2 0.3-6.4 0.5 0.1 0.9 0.3 1.8c2.3-0.4 4.6-0.9 7.8-1.3q5.6-0.6 11.3-1.3-0.1-0.8-0.2-1.6c-4 0.6-8 1.3-12.8 1.9zm62.1-7q1.6-0.3 3.2-0.6-0.1-0.6-0.2-1.2-17.1 2.2-34.2 4.4 0.1 0.9 0.2 1.7c10.1-1.4 20.1-2.8 31-4.3zm-5.3-65.5c-1.3-0.2-2.6-0.6-3.8-0.4-10.1 1.3-20.1 2.8-30.1 4.3 1 0.4 2.1 0.7 3.2 0.6 10.1-1.3 20.1-2.7 30.7-4.5zm14.8 64.5q8.2-1.2 16.4-2.5-0.1-0.7-0.2-1.5-9.5 1.5-19 3 0 0.4 0.1 0.9c0.6 0 1.3 0.1 2.7 0.1zm-70.3-57.1q8.7-0.9 17.4-1.8-0.1-0.7-0.2-1.4c-5.9 0.9-11.8 1.9-17.2 3.2zm89.3 53.6q5.4-0.3 10.7-0.6-0.1-0.9-0.2-1.7c-3.4 0.5-6.9 1-10.5 2.3zm-13.9-62.6q4.3-0.8 8.6-1.6-0.1-0.6-0.2-1.2c-3.5 0.4-7 0.8-11.3 1.3 1.2 0.8 1.6 1.1 2.9 1.5zm-53.6 71.1q-3.7 0.2-7.4 0.4 0.1 0.9 0.2 1.8 5.9-0.8 11.9-1.5 0-0.2 0-0.5c-1.3-0.1-2.6-0.1-4.7-0.2zm160.6-21.8q-4.7 0.7-9.4 1.4 0.1 0.7 0.2 1.4 5.2-0.7 10.4-1.4c-0.2-0.4-0.4-0.8-1.2-1.4zm-190.4-38.6q1.8-0.5 3.6-1.1-0.3-0.5-0.5-1c-1.3 0.7-2.5 1.4-3.1 2.1zm100.2-13.7c0.1-0.2 0.2-0.3 0.3-0.4 0-0.1-0.2-0.3-0.2-0.3q-2.2 0-4.3 0 0 0.7 0.1 1.3c1.1-0.2 2.3-0.3 4.1-0.6zm3.8-1.2q0.8 0.5 1.6 1 0.2-0.4 0.4-0.8c-0.5-0.2-1.1-0.4-2-0.2z"/><path fill-rule="evenodd" class="c" d="m337.9 405c0-21.4 0.1-42.7 0.1-64.8-0.1-0.9-0.1-1-0.1-1.5 0.1-0.6 0.1-1 0.2-1.4 0.1-0.2 0.3-0.3 0.3-0.3 0.3 0 0.7 0 1.6-0.1 0.7-0.1 0.8-0.1 1-0.2 21.1-2.8 42.2-5.6 63.9-8.6 0.8-0.1 0.9-0.1 1.1-0.2 0.4 0.1 0.8 0.1 1.4 0 11.1-1.4 21.9-2.7 33.6-3.9q1.3 0.3 2.5 0.5c-1.2 0.7-2.4 1.4-3 2.1q1.8-0.5 3.6-1-0.2-0.5-0.4-1c5.5 1 10.5 1.3 15.7-1.1-2.3-0.5-4.3-0.9-6.3-1.3 23.5-3.2 47-6.4 71-9.6 3 23 6.1 45.5 9.2 68.7-41.9 5.6-83.5 11.2-125.5 16.9 0 39.6 0 79 0 118.7-23.4 0-46.3 0-69.6 0 0-36.2 0-72.3-0.1-108.9-0.1-0.8-0.1-1.2-0.1-2-0.1-0.7-0.1-0.8-0.1-1zm187.1-74.5q-0.7-4.9-1.4-9.8-0.6 0.1-1.3 0.2 3.8 28.1 7.6 56.2 0.7-0.1 1.4-0.2c-2.1-15.2-4.2-30.4-6.3-46.4zm-40.1 54.5c-3.6 0.6-7.2 1.3-10.7 1.8-3.4 0.4-6.8 0.7-10.1 1.1q0.1 0.6 0.2 1.3 24.1-3.3 48.2-6.5-0.1-0.8-0.2-1.7c-8.9 1.4-17.7 2.7-27.4 4zm37.1-70.7q-7.5 1-15 2 0.1 0.1 0.1 0.3c5.2 0 10.5 0 15.9 0-0.1-0.6-0.2-1.3-1-2.3zm-36.8 6.1q5.6-0.5 11.3-1-0.1-0.8-0.2-1.5-7.7 1-15.3 2 0 0.5 0.1 1.1c1.1-0.1 2.2-0.2 4.1-0.6zm-53.5 5.8q-3.4 0.6-6.7 1.2 0.1 0.6 0.1 1.1 5.6-0.5 11.1-1 0-0.6 0-1.3c-1.2 0-2.5-0.1-4.5 0zm-19.7 2.8c-0.5 0-1 0-1.5 0.1-0.1 0-0.3 0.2-0.3 0.3-0.1 0.1 0 0.2 0.1 0.7q5.9-0.3 11.9-0.7-0.1-0.8-0.1-1.5c-3.1 0.3-6.2 0.7-10.1 1.1zm111.9 51.6q2.3 0 4.6 0-0.1-0.7-0.2-1.5c-1.4 0.3-2.8 0.6-4.4 1.5zm-23-63.6q-0.8 0.4-1.5 0.8 0.1 0.4 0.2 0.8 2.2-0.4 4.4-0.9 0-0.3-0.1-0.7c-0.8 0-1.5 0-3 0zm15.5 64.9q2.1-0.1 4.1-0.3-0.1-0.7-0.3-1.4c-1.4 0.5-2.8 0.9-3.8 1.7zm-72.7-57.3q-0.1-0.1-0.2-0.1 0.1 0 0.2-0.1 0 0.1 0 0.2zm16.6 64.6q0.2-0.1 0.4-0.2c-0.1 0-0.3-0.1-0.4 0.2zm71.3-9.7c0 0-0.1 0.1 0 0zm-124.1-48.9c0 0-0.1-0.1 0 0zm54.9-7.1c0 0 0.1-0.1 0 0z"/><path fill-rule="evenodd" class="d" d="m182 272.9c-0.4 0-0.8 0-1.4 0-12.8 1.6-25.3 3-37.7 4.6-21.4 2.8-42.7 5.7-64.9 8.5-2.2-0.1-3.6 0-4.9-0.2 0.3-0.5 0.6-0.7 1.3-0.8 1.6 0 2.8 0.1 4-0.1 12.4-1.6 24.8-3.2 37.2-4.9 7.6-1.1 15.1-2.2 22.6-3.4-0.7-0.9-1.4-1.2-2-1.1q-21.1 2.7-42.2 5.6c-6.7 0.9-13.3 1.9-20.4 2.9-1.3 0.2-2.2 0.4-3.2 0.7q0 0.3 0 0.7c0.9 0.2 1.7 0.4 2.6 0.8 0 0.2 0 0.6 0 0.6-0.5 0.1-0.9 0.2-2.1 0.2-2.5 0.2-4.2 0.5-5.9 0.9-0.7-0.8-1.4-1.5-2-3 0.7-2.5 1.2-4.3 1.9-6.3-1.2 0.2-2 0.3-2.8 0.4 0-0.5-0.1-0.9-0.1-2-0.8-2 3.7-4.5-0.8-5-0.1-0.5-0.2-0.9-0.2-2.1 0.4-2.8 0.7-4.8 1.1-7q0 0.1-0.3 0.2c-0.8 0.4-1.2 0.6-1.7 0.9-0.1-0.5-0.1-0.9-0.1-2.1-1.1-2.3 5.5-5.3-0.9-5.9-0.7-5.1-1.5-10.2-2.1-16.1 0.1-2.1 0.1-3.5 0.3-4.8 0.5 0.2 0.8 0.2 1.1 0.3q0.1-0.4 0.2-0.9c-0.6 0.2-1.1 0.3-1.8 0.5-0.2 0-0.6 0-0.6 0-0.1-0.5-0.2-1-0.2-2.1-0.2-2.1-0.4-3.5-0.7-4.9-0.1-0.1-0.2-0.3 0-0.9 0.5-0.6 0.6-0.8 1-1.3 1.8-1.6 3.3-3.1 5-4.4 1.1-0.9 2.5-1.5 3.7-2.3 0.2-0.1 0.4-0.1 1.2 0 6.8-0.3 12.8-0.7 19.2-1.1 7.8-0.9 15.2-1.7 22.6-2.6q-0.1-0.9-0.2-1.8c-7.6 1.2-15.2 2.3-23.2 3.4-2.1-0.3-3.8-0.5-5.5-0.8q49.1-6.6 98.2-13.3c0.6-0.1 1.2-0.4 2.4-0.8 0.9-0.1 1.1-0.1 1.6 0 0.4-1.5 0.7-3.1 0.7-4.7 0-35.3 0.1-70.6-0.1-105.9 0-4.5 1.2-5.7 5.6-5.6q27 0.4 53.9 0c4.4-0.1 5.7 1 5.7 5.5-0.2 32-0.1 64-0.1 95.9 0 1.9 0.7 3.8 1.2 5.7 0.5 0 0.6 0 0.8 0 0 0 0.2 0 0.3 0.2-0.1 23-0.1 45.9-0.3 69.5-0.4 0.9-0.7 1.1-1.3 1.3-0.4 0-0.5 0-0.7 0.1q-20.9 2.7-41.8 5.3c-7.2 1-14.4 2-22.2 3.1-0.6 0.2-1 0.4-1 0.4zm-119.9-10q0.1 0 0 0 0 0 0 0zm115.2 8.5q0.9-0.3 1.7-0.6 0-0.5-0.1-0.9-7.6 0.9-15.1 1.8 0 0.7 0.1 1.4c4.2-0.5 8.5-0.9 13.4-1.7zm-58-57.6q2-0.4 4-0.7-0.2-0.7-0.3-1.3-5.9 0.7-11.8 1.5 0 0.3 0.1 0.6c2.4 0 4.8 0 8-0.1zm34.2 61.1q3.8-0.6 7.5-1.3-0.1-0.6-0.1-1.1-5.5 0.6-11.1 1.1 0.1 0.6 0.1 1.2c1 0.1 1.9 0.1 3.6 0.1zm-21.5-63.5q-3.1 0-6.2 0 0.1 0.6 0.2 1.3c1.9-0.3 3.8-0.5 6-1.3zm14.2 64.2q0-0.6 0-1.2c-0.1 0-0.5 0-0.5 0 0 0.4 0 0.8 0.5 1.2zm-82.7-7q-0.1 0.3-0.1 0.7c0.1-0.2 0.2-0.3 0.1-0.7zm-6-40.2c0 0 0.1 0.1 0 0zm84 47.2c0 0-0.1-0.1 0 0z"/><path class="e" d="m408.1 171.5c-0.4-1.4-1.1-3.2-1.1-5.1 0-32.3 0-64.6 0-96.8 0-2 0-4 0-6.2-22.8 0-45 0-68 0q0 2.9 0 5.7 0 53 0 105.9c0 1.8-0.2 3.6-0.6 5.8-0.3-39.2-0.3-78.6-0.3-118.4 23.2 0 46.1 0 69.9 0 0 36.2 0 72.4 0.1 109.1z"/><path class="f" d="m181 202c-0.2 0-0.4 0-0.9-0.1-0.4-39.3-0.4-78.5-0.4-118 23.3 0 46 0 69.4 0 0 36 0 72.1-0.1 108.6-0.2 0.5-0.3 0.5-0.8 0-0.2-36-0.2-71.5-0.2-107.1-22.7 0-44.6 0-67 0 0 39.1 0 77.8 0 116.6z"/><path class="g" d="m68 442c-0.5 0.3-1 0.5-1.8 0.9-2.5-16.3-4.8-32.7-7.1-49.5 0-0.4 0.5-0.4 0.9-0.4 0.5 0 1 0 1 0 0 0.2 0 0.3 0 1.1 0.4 1 0.7 1.4 1 1.9 0.3 3.1 0.7 6.1 0.8 9.8 0.2 2.1 0.7 3.7 1.2 5.2 0 0.8 0 1.5-0.2 2.7-0.2 0.6-0.3 0.7-0.3 0.8 0.1 0.2 0.3 0.3 0.5 0.5 0 0.2 0 0.3 0 1.1 0.3 1.4 0.7 2.1 1 2.9 0 0 0 0.5-0.1 1.1 0.2 3.7 0.7 6.8 1.1 9.9 0 0.2 0 0.3 0 1.1 0.3 1.4 0.7 2.1 1 2.9 0 0.4 0 0.9-0.2 1.9 0.2 2.4 0.7 4.2 1.2 6.1z"/><path class="h" d="m85 218c-6 0.4-12 0.8-18.5 1.1q5.4-1.5 12.1-2.9c2.2 0.3 3.9 0.5 6 1.1 0.4 0.2 0.4 0.7 0.4 0.7z"/><path class="i" d="m452.6 322.2c2.5 0.4 4.5 0.8 6.8 1.3-6 2.7-11.8 1.9-18 0.6q5-1 11.2-1.9z"/><path class="h" d="m64.7 219c-0.9 0.9-2.3 1.5-3.4 2.4-1.7 1.3-3.2 2.8-5 4-0.8-1.2-1.4-2.3-1.9-3.4 0.4-0.9 0.7-2.6 1.3-2.7 2.8-0.3 5.7-0.3 9-0.3z"/><path class="j" d="m59 256.4c6.5 0.2-0.1 3.2 1.1 5.2q-0.6-2-1.1-5.2z"/><path class="j" d="m62 263c-0.3 2.1-0.6 4.1-0.9 6.6q-0.6-2.1-1.1-5.2c0.6-0.7 1-0.9 1.8-1.3 0.2-0.1 0.2-0.1 0.2-0.1z"/><path class="j" d="m62.1 279.4c0.8-0.5 1.6-0.6 2.8-0.8-0.7 2-1.2 3.8-1.8 5.9q-0.6-2-1-5.1z"/><path class="j" d="m54.4 222.4q0.8 1.1 1.6 3.2c-0.1 0.7-0.2 0.9-0.7 1.3-0.4-1.3-0.7-2.7-0.9-4.5z"/><path class="j" d="m61.1 272.4c4.6 0.1 0.1 2.6 1 4.2q-0.6-1.6-1-4.2z"/><path class="j" d="m65.4 287.9q2-0.5 5.1-1-2 0.6-5.1 1z"/><path class="j" d="m73 286c1.4 0 2.8-0.1 4.5-0.1q-1.5 0.6-4.1 1c-0.4-0.1-0.4-0.5-0.4-0.7 0-0.2 0-0.2 0-0.2z"/><path class="j" d="m56.2 235.3c0-0.3 0.4-0.3 0.6-0.3 0.2 0 0.2 0 0.2 0 0.1 1.4 0.1 2.8 0.1 4.5q-0.5-1.5-0.9-4.2z"/><path class="j" d="m55.3 228.4q0.4 1.5 0.8 4.1-0.5-1.5-0.8-4.1z"/><path class="k" d="m250.2 263.1q28.7-3.7 57.4-7.5c9.9-1.3 19.8-2.6 30.6-4.1 0 28.5 0 56.5 0.1 85 0.1 0.5-0.1 0.6-0.6 0.8-29.5 4.1-58.5 8-87.8 11.9-0.1-1.7-0.2-2.5-0.2-3.3q0-39.4 0-78.9c0-1.3 0.3-2.6 0.5-3.9z"/><path class="l" d="m250 263.1c0 1.3-0.3 2.6-0.3 3.9q0 39.5 0 78.9c0 0.8 0.1 1.6 0.2 3.3 29.3-3.9 58.3-7.8 87.8-11.7 0.3 0.2 0.3 0.6-0.1 1.2-1.5 0.6-2.5 1-3.6 1.3-0.2 0-0.3 0-1.2 0-2.3 0.3-4.1 0.7-5.8 1-0.2 0-0.3 0-1.2 0-5.1 0.7-9.4 1.3-13.8 2-0.2 0-0.3 0-1.2 0-9.1 1.3-17.4 2.7-25.8 4-0.5 0-0.9 0-1.9-0.3-3.4 0.3-6.3 0.8-9.1 1.3 0 0 0 0-0.4 0-7.5 1-14.6 2-21.6 3-0.2 0-0.3 0-1 0-0.5 0-1 0-1 0-0.6-0.5-1.2-1-1.9-2.2-0.1-28.8-0.1-56.8-0.1-84.8 0.3-0.2 0.6-0.4 1.1-0.8 0.1-0.2 0.6-0.2 0.9-0.1z"/><path class="m" d="m340 135c0-22.3 0.1-44.1-0.1-66 0-3.8 0.9-5.1 5-5.1 18.8 0.2 37.7 0.2 56.5 0 3.3 0 4.7 0.8 4.7 4.4-0.2 33.7-0.1 67.3-0.1 101 0 0.5-0.1 0.9-1 1.5q0-2.4 0-4.8c0-31.8-0.1-63.6 0.1-95.5 0-4.3-1-5.7-5.5-5.6-17.7 0.3-35.3 0.3-53 0-4.8-0.1-5.7 1.5-5.7 5.9 0.2 34.7 0.1 69.3 0.1 104q0 2.4 0 4.9-0.5 0-1 0c0-14.7 0-29.5 0-44.7z"/><path class="n" d="m406 327.5c-0.2 0.5-0.3 0.5-0.7 0.5-0.3-28.2-0.3-56.5-0.3-84.8q0.5 0 1 0c0 27.9 0 55.9 0 84.3z"/><path class="o" d="m341 336.3c-0.2 0.5-0.3 0.5-0.7 0.6-0.3-28-0.3-55.9-0.3-83.9q0.5 0 1 0c0 27.6 0 55.2 0 83.3z"/><path class="p" d="m527 188.1c1 8.7 2.1 16.9 3.1 25.2q-0.7 0-1.4 0.1-3.2-24.3-6.5-48.6 0.7-0.1 1.3-0.3c1.2 7.7 2.3 15.5 3.5 23.6z"/><path class="p" d="m312.5 253.7c-4.7 0.5-9.1 0.9-13.4 1.4q-0.1-0.7-0.2-1.4 19-2.5 38-5 0.1 0.7 0.2 1.4c-8.1 1.2-16.1 2.3-24.6 3.6z"/><path class="p" d="m483.6 163.7c4.7-0.8 9-1.3 13.3-1.9q0.1 0.7 0.2 1.3-20.5 2.8-40.9 5.6-0.1-0.8-0.2-1.6c9-1.1 18.1-2.2 27.6-3.4z"/><path class="q" d="m440.3 236.4c-10 1.4-19.6 2.6-29.2 3.8q-0.1-0.7-0.2-1.4 17.2-2.3 34.4-4.7 0.1 0.7 0.2 1.3c-1.6 0.3-3.2 0.6-5.2 1z"/><path class="q" d="m500 228c-6.5 1-12.9 2-19.4 3-3.1 0.5-6.2 0.8-9.2 1.2q-0.2-0.8-0.3-1.6c9.4-1.2 18.7-2.4 28.5-3.3 0.4 0.2 0.4 0.7 0.4 0.7z"/><path class="p" d="m500.4 228c-0.4 0-0.4-0.5-0.4-0.7 9.4-1.6 18.8-3 28.2-4.3q0.1 0.9 0.3 1.7c-9.2 1.1-18.4 2.2-28.1 3.3z"/><path class="p" d="m273.8 258.8c-7.9 1.1-15.5 2-23 2.8q-0.1-0.5-0.2-1c5.6-0.9 11.1-1.9 16.7-2.5 2.2-0.3 4.5 0.3 6.5 0.7z"/><path class="q" d="m441.5 170.9c-0.9-0.4-1.3-0.7-2.5-1.5 4.9-0.6 9-1.1 13-1.5q0.1 0.6 0.3 1.3c-3.5 0.6-7 1.1-10.8 1.7z"/><path class="q" d="m425.9 173c-3 0.2-5.5 0.4-8 0.6q0-0.6-0.1-1.2 5.7-0.8 11.4-1.5 0.1 0.7 0.3 1.5c-1.1 0.2-2.2 0.4-3.6 0.6z"/><path class="p" d="m291.2 256.1c-2.3 0.4-4.3 0.6-6.3 0.9q0-0.7-0.1-1.5 5.6-0.6 11.2-1.1 0.1 0.7 0.2 1.3c-1.5 0.1-3.1 0.2-5 0.4z"/><path class="q" d="m464 233c-2.7 0.4-4.9 0.7-7.2 1.1q-0.1-0.8-0.2-1.5 5.6 0 11.2 0 0 0.1 0.1 0.1c-1.2 0.1-2.3 0.2-3.9 0.3z"/><path class="q" d="m414.8 173.2c-1.5 0.7-3.2 1.3-4.9 1.9q-0.2-0.9-0.4-1.8c1.7-0.1 3.3-0.2 5.3-0.1z"/><path class="p" d="m530.3 216.8c0.5 1.4 0.6 2.8 0.8 4.2q-0.7 0-1.4 0c0.1-1.4 0.2-2.8 0.6-4.2z"/><path class="q" d="m453.4 233.7c-1.2 0.7-2.6 1.2-4 1.7q-0.2-0.6-0.4-1.1c1.4-0.3 2.8-0.6 4.4-0.6z"/><path class="p" d="m278.5 258c-0.5 0-0.7 0-0.8-0.1-0.3-0.1-0.4-0.3-0.6-0.4q2.1-0.6 4.2-1.2 0.2 0.5 0.3 1c-1 0.2-1.9 0.5-3.1 0.7z"/><path class="q" d="m436.2 170c-0.9 0.7-2 1.3-3.2 1.9q-0.2-0.6-0.4-1.3c1.1-0.2 2.2-0.4 3.6-0.6z"/><path class="p" d="m531.4 223.5c0 0 0.1 0.1 0 0z"/><path class="p" d="m522.5 161.4c0 0-0.1 0.1 0 0z"/><path class="q" d="m408.5 240.4c0 0-0.1 0.1 0 0z"/><path class="q" d="m337.4 405c0.5 0.2 0.5 0.3 0.5 0.8-23 3.3-46 6.4-69 9.5q-0.1-0.8-0.2-1.6c3.6-0.6 7.2-1.2 10.8-1.7q25.7-3.4 51.5-6.8c2-0.3 4-0.1 6.4-0.2z"/><path class="o" d="m182 273.4c0-0.5 0.4-0.7 0.7-0.7 0.2 28.1 0.2 56.2 0.2 84.2q-0.4 0-0.9 0c0-27.7 0-55.4 0-83.5z"/><path class="n" d="m247.7 264c0.3 28 0.3 56 0.3 84.5-0.3-1.4-1-3.3-1-5.2 0-26.1 0-52.2 0-78.7 0.2-0.6 0.3-0.6 0.7-0.6z"/><path class="p" d="m142.9 432c-10.5 1.5-20.5 2.9-30.6 4.3q-0.1-0.8-0.2-1.7 17.1-2.2 34.2-4.4 0.1 0.6 0.2 1.2c-1 0.2-2.1 0.4-3.6 0.6z"/><path class="p" d="m137.8 366.7c-10.4 1.6-20.4 3-30.5 4.3-1.1 0.1-2.2-0.2-3.2-0.6 10-1.5 20-3 30.1-4.3 1.2-0.2 2.5 0.2 3.6 0.6z"/><path class="q" d="m61.1 392.7c-0.1 0.3-0.6 0.3-0.9 0.3-0.7-5.4-1.1-10.8-1.6-16.6 3.5-0.5 7.1-0.9 10.7-1.4q0.1 0.8 0.2 1.5c-1.7 0.2-3.5 0.3-5.2 0.5-2.7 0.4-4.7 0.9-3.7 4.7 0.8 3.4 0.5 7.1 0.5 11z"/><path class="p" d="m285.2 347.3c8.2-1.6 16.5-3 25.3-4.3-3.1 0.8-6.6 1.7-10.1 2.3-5 0.9-10 1.5-15.2 2z"/><path class="p" d="m152.4 431c-1 0-1.7-0.1-2.3-0.1q-0.1-0.5-0.1-0.9 9.5-1.5 19-3 0.1 0.8 0.2 1.5c-5.5 0.9-10.9 1.7-16.8 2.5z"/><path class="p" d="m252.5 351q9.8-1.5 21.1-3-9.9 1.5-21.1 3z"/><path class="p" d="m82.3 373.7c5.6-1.1 11.5-2.1 17.4-3q0.1 0.7 0.2 1.4c-5.8 0.6-11.6 1.2-17.6 1.6z"/><path class="p" d="m82 439q6-0.9 12-1.9 0.1 0.8 0.2 1.6c-3.8 0.4-7.6 0.9-11.8 1-0.4-0.2-0.4-0.7-0.4-0.7z"/><path class="p" d="m171.9 427.1c3.5-0.9 7-1.4 10.4-1.9q0.1 0.8 0.2 1.7c-3.6 0.2-7.1 0.4-10.6 0.2z"/><path class="q" d="m157.5 364.9c-0.9-0.4-1.3-0.7-2.5-1.5 4.3-0.5 7.8-0.9 11.3-1.3q0.1 0.6 0.2 1.2c-2.9 0.6-5.8 1.1-9 1.6z"/><path class="p" d="m104.8 436c1.6 0.1 2.9 0.1 4.2 0.2q0 0.3 0 0.5-6 0.7-11.9 1.5-0.1-0.9-0.2-1.8c2.4-0.1 4.9-0.3 7.9-0.4z"/><path class="q" d="m265.2 414.3c0.5 0.5 0.7 0.9 0.9 1.3q-5.2 0.7-10.4 1.4-0.1-0.7-0.2-1.4c3.1-0.4 6.3-0.9 9.7-1.3z"/><path class="p" d="m312.5 343q5.8-1 13-2-5.8 1-13 2z"/><path class="q" d="m68.4 442c-0.9-1.9-1.4-3.7-1.6-5.8 1.8 1.6 3.4 3.4 5.2 5.5-0.9 0.1-2.1 0.2-3.6 0.3z"/><path class="q" d="m146 365q3.4-0.6 6.9-1.3 0.2 0.9 0.3 1.8c-2.1 0.1-4.2 0.3-6.8 0.2-0.4-0.2-0.4-0.7-0.4-0.7z"/><path class="q" d="m81.6 439c0.4 0 0.4 0.5 0.4 0.7-2.3 0.7-4.6 1.2-6.9 1.6q-0.2-0.9-0.3-1.8c2.1-0.1 4.2-0.3 6.8-0.5z"/><path class="q" d="m66 429.6c-0.4-2.7-0.9-5.8-1.1-9.3 0.4 2.7 0.8 5.8 1.1 9.3z"/><path class="p" d="m274.4 348c2.4-0.5 5.3-1 8.4-1.3-2.5 0.6-5.2 1-8.4 1.3z"/><path class="q" d="m74.2 375.6c0.9-0.7 2.1-1.4 3.4-2.1q0.2 0.5 0.5 1c-1.2 0.4-2.4 0.8-3.9 1.1z"/><path class="q" d="m174.4 361.9c-1.5 0.3-2.7 0.4-3.8 0.6q-0.1-0.6-0.1-1.3 2.1 0 4.3 0c0 0 0.2 0.2 0.2 0.3-0.1 0.1-0.2 0.2-0.6 0.4z"/><path class="q" d="m64 410.6c-0.5-1.1-1-2.7-1.2-4.4 0.5 1.2 0.9 2.6 1.2 4.4z"/><path class="p" d="m327.4 341q2-0.5 5.2-1-2 0.5-5.2 1z"/><path class="p" d="m145.6 365c0.4 0 0.4 0.5 0.4 0.7-1.7 0.3-3.3 0.3-5 0.3q0-0.5 0-1c1.4 0 2.8 0 4.6 0z"/><path class="q" d="m178.7 360.5c0.7 0 1.3 0.2 1.8 0.4q-0.2 0.4-0.4 0.8c-0.5-0.3-1.1-0.7-1.4-1.2z"/><path class="q" d="m65.2 418.8c-0.5-0.6-0.9-1.3-1.2-2.4 0.5 0.5 1 1.4 1.2 2.4z"/><path class="p" d="m334.4 340q1-0.5 3.1-1c0.4 0.2 0.4 0.3 0.4 0.8-1.1 0.2-2.1 0.2-3.5 0.2z"/><path class="q" d="m67 433.7q-0.5-0.7-1-2.3 0.5 0.6 1 2.3z"/><path class="q" d="m62 395.7q-0.5-0.2-1-1.4 0.5 0.3 1 1.4z"/><path class="q" d="m64 414.8c-0.2 0-0.4-0.1-0.5-0.3 0-0.1 0.1-0.2 0.3-0.4 0.2 0.1 0.2 0.2 0.2 0.7z"/><path class="p" d="m250.1 351.2c-0.1-0.2 0.4-0.2 0.6-0.2 0 0.1-0.3 0.2-0.6 0.2z"/><path class="r" d="m525 330.9c2.1 15.6 4.2 30.8 6.3 46q-0.7 0.1-1.4 0.2-3.8-28.1-7.6-56.2 0.7-0.1 1.3-0.2c0.5 3.3 1 6.5 1.4 10.2z"/><path class="r" d="m485.3 385c9.3-1.3 18.1-2.6 27-4q0.1 0.9 0.2 1.7-24.1 3.2-48.2 6.5-0.1-0.7-0.2-1.3c3.3-0.4 6.7-0.7 10.1-1.1 3.5-0.5 7.1-1.2 11.1-1.8z"/><path class="r" d="m522.3 314.5c0.5 0.8 0.6 1.5 0.7 2.1-5.4 0-10.7 0-15.9 0q0-0.2-0.1-0.3c5-0.7 10-1.3 15.3-1.8z"/><path class="r" d="m484.9 320.6c-1.6 0.2-2.7 0.3-3.8 0.4q-0.1-0.6-0.1-1.1 7.6-1 15.3-2 0.1 0.7 0.2 1.5c-3.8 0.3-7.5 0.7-11.6 1.2z"/><path class="i" d="m432.1 326.1c1.6 0 2.9 0.1 4.1 0.1q0 0.7 0 1.3-5.5 0.5-11.1 1 0-0.5-0.1-1.1c2.2-0.4 4.5-0.8 7.1-1.3z"/><path class="i" d="m412.4 329c3.5-0.4 6.6-0.8 9.7-1.1q0 0.7 0.1 1.5-6 0.4-11.9 0.7c-0.1-0.5-0.2-0.6-0.1-0.7 0-0.1 0.2-0.3 0.3-0.3 0.5-0.1 1-0.1 1.9-0.1z"/><path class="r" d="m524 380.3c1.5-0.6 2.9-0.9 4.3-1.2q0.1 0.8 0.2 1.5c-1.5 0-3.1 0-4.5-0.3z"/><path class="r" d="m501.2 317c1.2 0 1.9 0 2.7 0q0.1 0.4 0.1 0.7-2.2 0.5-4.4 0.9-0.1-0.4-0.2-0.8c0.5-0.3 1-0.5 1.8-0.8z"/><path class="r" d="m516.2 381.8c1.2-0.7 2.6-1.1 4-1.6q0.2 0.7 0.3 1.4c-1.4 0.1-2.7 0.2-4.3 0.2z"/><path class="i" d="m440.2 326.6c0.9-0.7 2.2-1.4 3.5-2.2q0.2 0.6 0.4 1.2c-1.2 0.3-2.4 0.7-3.9 1z"/><path class="r" d="m460.3 389c0.1-0.1 0.3 0 0.4 0-0.1 0.1-0.3 0.1-0.4 0z"/><path class="r" d="m531.5 379.6c0 0 0.1-0.1 0 0z"/><path class="i" d="m407.5 330.5c-0.1 0 0 0.1 0 0z"/><path class="i" d="m462.5 323.5c0-0.1-0.1 0 0 0z"/><path class="h" d="m181.3 202.1c-0.3-38.9-0.3-77.6-0.3-116.7 22.4 0 44.3 0 67 0 0 35.6 0 71.1 0 107.1-0.3-1.4-1-3.3-1-5.2 0-31.9-0.1-63.9 0.1-95.9 0-4.5-1.3-5.6-5.7-5.5q-26.9 0.4-53.9 0c-4.4-0.1-5.6 1.1-5.6 5.6 0.2 35.3 0.1 70.6 0.1 105.9 0 1.6-0.3 3.2-0.7 4.7z"/><path class="r" d="m74 284c6.7-1 13.3-2 20-2.9q21.1-2.9 42.2-5.6c0.6-0.1 1.3 0.2 2 1.1-7.5 1.2-15 2.3-22.6 3.4-12.4 1.7-24.8 3.3-37.2 4.9-1.2 0.2-2.4 0.1-4-0.2-0.4-0.2-0.4-0.7-0.4-0.7z"/><path class="r" d="m85.4 218c-0.4 0-0.4-0.5-0.4-0.7 7.6-1.4 15.2-2.5 22.8-3.7q0.1 0.9 0.2 1.8c-7.4 0.9-14.8 1.7-22.6 2.6z"/><path class="r" d="m176.9 271.5c-4.5 0.7-8.8 1.1-13 1.6q-0.1-0.7-0.1-1.4 7.5-0.9 15.1-1.8 0.1 0.4 0.1 0.9c-0.5 0.2-1.1 0.4-2.1 0.7z"/><path class="r" d="m119 213.9c-2.9 0-5.3 0-7.7 0q-0.1-0.3-0.1-0.6 5.9-0.8 11.8-1.5 0.1 0.6 0.3 1.3c-1.3 0.2-2.7 0.4-4.3 0.8z"/><path class="r" d="m153.1 275c-1.3-0.1-2.2-0.1-3.2-0.2q0-0.6-0.1-1.2 5.6-0.5 11.1-1.1 0 0.5 0.1 1.1c-2.5 0.4-5 0.9-7.9 1.4z"/><path class="r" d="m131.8 211.6c-2 0.6-3.9 0.8-5.8 1.1q-0.1-0.7-0.2-1.3c2.1 0 4.2 0 6 0.2z"/><path class="j" d="m73.6 284c0.4 0 0.4 0.5 0.4 0.7-0.3 0.4-0.6 0.6-0.9 1.1-0.1 0.2-0.1 0.2-0.1 0.2q-1.3-0.3-2.6-0.6 0-0.4 0-0.7c1-0.3 1.9-0.5 3.2-0.7z"/><path class="r" d="m146 275.6c-0.3-0.4-0.3-0.8-0.3-1.2 0 0 0.4 0 0.5 0 0 0.4 0 0.8-0.2 1.2z"/><path class="j" d="m57 235q0.8-0.2 1.6-0.5-0.1 0.5-0.2 0.9c-0.3-0.1-0.6-0.1-1.1-0.3-0.3-0.1-0.3-0.1-0.3-0.1z"/><path class="j" d="m63.6 268.7c0 0.3-0.1 0.4-0.2 0.6 0-0.2 0.1-0.5 0.2-0.6z"/><path class="j" d="m57.6 228.5c0 0-0.1-0.1 0 0z"/><path class="j" d="m62 263c0.1 0 0.2-0.1 0.1-0.1-0.1 0.1-0.1 0.1-0.1 0.1z"/><path class="r" d="m141.4 275.5c0 0 0.1 0.1 0 0z"/></svg>