<svg version="1.2" xmlns="http://www.w3.org/2000/svg" viewBox="0 0 225 225" width="100" height="100"><style>.a{fill:#68217a}.b{fill:#faf8fa}.c{fill:#fdfcfd}.d{fill:#f7f4f8}.e{fill:#fbfafc}.f{fill:#650f78}.g{fill:#5d0071}.h{fill:#5b006f}.i{fill:#5d0571}.j{fill:#5f0373}.k{fill:#631476}.l{fill:#610e75}.m{fill:#69227b}.n{fill:#600974}</style><path fill-rule="evenodd" class="a" d="m226 85c0 47.3 0 94.2 0 141q-112.5 0-225 0 0-112.5 0-225 112.5 0 225 0c0 27.8 0 55.7 0 84zm-92.4-31.4c0.3-0.3 0.5-0.7 1.6-1.2 7.7 0 15.3 0 23.2 0 0-2.1 0-3.7 0-6.1-8.2 0-16.1 0-24.4-0.4-0.3-0.3-0.6-0.6-1-1.8 0-8 0-16 0-23.9 9.6 0 18.3 0 27.6 0-0.2-2.7-0.4-4.4-1.3-6.7-10.3-0.1-20.7-0.3-31.1-0.4-0.7 0-1.4 0.8-2.2 2.1 0 22.8 0 45.6 0 68.8 2.6 0 4.7 0 7.4-0.7-0.1-7.1-0.2-14.2-0.4-22.1 0.1-1.1 0.1-2.1 0.3-3.4 0.2-0.3 0.1-0.6-0.3-1.5 0.1-0.8 0.1-1.6 0.6-2.7zm-49 22.7c0.1-8.2 0.3-16.3 1.3-24.6 4 0 8 0.1 12.3 0.3l0.5 0.1c0 0 0.3-0.3 1.2-0.6 3.1 0 6.1 0 9.5 0 0-2.2 0-3.8 0-5.6-4.3-0.3-8.4-0.6-13.1-1.4-3.7-0.7-9-0.3-10.6-2.6-1.9-2.6-0.6-7.6-0.7-11.6q0-0.2 0-0.5c0.1-9.7-0.9-8.6 8.8-8.8 5.8-0.2 11.5-0.7 17.3-1.8-0.1-1.9-0.1-3.9-0.4-6.1-0.2-0.3-0.5-0.2-1.6 0.3-10.7 0.2-21.5 0.4-32.6 1.3-0.2 0.8-0.5 1.6-0.5 2.4q0 30.5 0 61c0 1.3 0.6 2.6 1 4.5 0 0.4 0 0.8 0.7 1.8 11.2 0.1 22.4 0.3 33.6 0.4 0.5 0 1.1-0.6 1.7-1.8-0.1-1.6-0.2-3.2-0.3-5.1-6.8 0-13.2 0.1-19.6-0.1-3 0-6-0.5-8.5-1.5zm-41.4 57.5c8.1-13.4 20-21.2 35.4-23.2 15.3-2.1 28.6 2.9 40 13.5 1.7-1.8 2.8-3.1 3.9-4.3-19.6-21.9-56.8-21.3-77.6 0.7-21.7 23-18.9 61.8 5.8 81.3 23.7 18.7 56.8 13.4 71.7-4.9q-2-1.8-3.9-3.5c-22.5 19.8-49.2 15.6-64.9 2.1-17.1-14.7-21.7-40.5-10.4-61.7zm58 25.6c0-1.1 0-2.3-0.1-3.5-0.6-8.2-5.8-14.6-12.8-15.7-9.7-1.6-17.9 2.2-20.3 10.9-1.3 5-1.1 10.8 0 15.9 1.4 7.2 8 10.5 14.3 11.4 9.8 1.5 18-7 18.9-19zm94.7-9.5c-1.9-8.5-6.3-14.8-15.2-16.5-8.3-1.5-15.6 0.6-21.1 7.2-5.1 6.1-6.9 13.1-6.6 20.9 0.6 22.8 19.3 30 37 21.9 3.8-1.7 4.5-4.3 3.3-7.9-21.7 8.6-33.6 3.5-32.9-14.7 12 0 24.1 0 36.3 0-0.3-3.8-0.5-7-0.8-10.9zm-73.2 2q0 16.4 0 32.9c2.3 0 4.2 0 7 0 0-9.6-0.6-19 0.2-28.2 0.4-4.8 2.2-10.4 5.4-13.8 2.6-2.6 8.2-2.4 12.6-3.5 0.3-5.8-2.1-8.1-8-5.5-4 1.6-7.3 5-10.8 7.5-0.1-1.8-0.2-4.3-0.3-7-2.2 0-3.9 0-6.1 0 0 5.8 0 11.2 0 17.6z"/><path class="b" d="m43 134.2c-11.1 20.8-6.5 46.6 10.6 61.3 15.7 13.5 42.4 17.7 64.9-2.1q1.9 1.7 3.9 3.5c-14.9 18.3-48 23.6-71.7 4.9-24.7-19.5-27.5-58.3-5.8-81.3 20.8-22 58-22.6 77.6-0.7-1.1 1.2-2.2 2.5-3.9 4.3-11.4-10.6-24.7-15.6-40-13.5-15.4 2-27.3 9.8-35.6 23.6z"/><path class="c" d="m101.2 159.9c-0.9 11.5-9.1 20-18.9 18.5-6.3-0.9-12.9-4.2-14.3-11.4-1.1-5.1-1.3-10.9 0-15.9 2.4-8.7 10.6-12.5 20.3-10.9 7 1.1 12.2 7.5 12.8 15.7 0.1 1.2 0.1 2.4 0.1 4z"/><path class="d" d="m98 51.8c-4.1 0-8.1-0.1-12.9 0.2-0.9 8.5-0.9 16.7-0.9 25 2.9 0.3 5.9 0.8 8.9 0.8 6.4 0.2 12.8 0.1 19.6 0.1 0.1 1.9 0.2 3.5-0.2 5.5-12.1 0.5-23.8 0.5-35.5 0.4 0-0.4 0-0.8 0-2-0.1-23.1-0.1-45.4-0.1-67.8 10.7-0.2 21.5-0.4 32.8-0.6 0.7-0.1 1.2-0.1 1.2-0.1 0.1 2 0.1 4-0.3 6.2-9.1 0.4-17.7 0.4-26.3 0.4 0 8.7 0 16.9 0 25.1 4.4 0 8.6 0 12.7 0 4 0.3 8.1 0.6 12.4 0.9 0 1.8 0 3.4 0 5.6-3.4 0-6.4 0-10.2 0.1-0.9 0.1-1.1 0.2-1.2 0.2z"/><path fill-rule="evenodd" class="b" d="m195.9 150.3c0.3 3.5 0.5 6.7 0.8 10.5-12.2 0-24.3 0-36.3 0-0.7 18.2 11.2 23.3 32.9 14.7 1.2 3.6 0.5 6.2-3.3 7.9-17.7 8.1-36.4 0.9-37-21.9-0.3-7.8 1.5-14.8 6.6-20.9 5.5-6.6 12.8-8.7 21.1-7.2 8.9 1.7 13.3 8 15.2 16.9zm-34-0.4q0.1 0 0 0 0 0 0 0zm-0.5 0.5c-0.3 1.4-0.6 2.8-0.9 4.7 8.4 0 16.5 0.1 24.6 0 1.3-0.1 2.6-0.7 4.4-1.7-0.2-0.5-0.3-0.9-0.4-2.1-0.1-0.4-0.2-0.8-0.2-2-1.8-6.2-5.7-10-12.4-10.3-6.7-0.3-11.2 2.9-14.6 10.5 0 0 0 0.4 0 0.4 0 0-0.1 0.1-0.5 0.5z"/><path class="c" d="m134.3 46.3c8 0 15.9 0 24.1 0 0 2.4 0 4 0 6.1-7.9 0-15.5 0-23.6 0.1-0.5 0.1-0.5 0.1-0.7 0-0.3 0.1-0.6 0.3-0.9 0.7-0.1 0.4-0.1 0.6 0 0.8-0.1 0.7-0.1 1.5-0.2 2.9 0.1 0.6 0.2 1.1 0.2 1.1-0.1 1.1-0.1 2.1-0.2 4.1 0 7.9-0.1 14.9-0.2 21.9-2.1 0-4.2 0-6.8 0 0-23.2 0-46 0.5-69.3 11.5-0.6 22.5-0.6 33.5-0.7 0.2 1.8 0.4 3.5 0.6 6.2-9.3 0-18 0-27.6 0 0 7.9 0 15.9 0 24.6 0.2 0.9 0.2 1 0.3 1.4 0.3 0.1 0.6 0.1 1 0.1 0 0 0 0 0 0z"/><path class="e" d="m122.7 151.5c0-6 0-11.4 0-17.2 2.2 0 3.9 0 6.1 0 0.1 2.7 0.2 5.2 0.3 7 3.5-2.5 6.8-5.9 10.8-7.5 5.9-2.6 8.3-0.3 8 5.5-4.4 1.1-10 0.9-12.6 3.5-3.2 3.4-5 9-5.4 13.8-0.8 9.2-0.2 18.6-0.2 28.2-2.8 0-4.7 0-7 0 0-11 0-21.9 0-33.3z"/><path class="f" d="m76.7 14.4c0.2 22 0.2 44.3 0.2 67.1-0.3-0.8-0.9-2.1-0.9-3.4q0-30.5 0-61c0-0.8 0.3-1.6 0.7-2.7z"/><path class="g" d="m96.7 44.8c-3.8 0.2-8 0.2-12.4 0.2 0-8.2 0-16.4 0-25.1 8.6 0 17.2 0 26.2 0-5.2 0.4-10.9 0.9-16.7 1.1-9.7 0.2-8.7-0.9-8.8 8.8q0 0.3 0 0.5c0.1 4-1.2 9 0.7 11.6 1.6 2.3 6.9 1.9 11 2.9z"/><path class="h" d="m77.3 84.1c11.4-0.2 23.1-0.2 35.2-0.2-0.1 0.3-0.7 0.9-1.2 0.9-11.2-0.1-22.4-0.3-34-0.7z"/><path class="h" d="m159.7 13.8c-10.7 0.3-21.7 0.3-33.2 0.4 0.3-0.3 1-1.1 1.7-1.1 10.4 0.1 20.8 0.3 31.5 0.7z"/><path class="i" d="m84.4 76.6c-0.2-7.9-0.2-16.1 0.2-24.5 0.3 7.9 0.1 16-0.2 24.5z"/><path class="j" d="m133.1 83.6c-0.2-6.6-0.1-13.6 0-21.1 0.1 6.6 0.2 13.7 0 21.1z"/><path class="k" d="m133.4 53.8c-0.3 0-0.3-0.2 0-0.6 0.6-0.4 0.7-0.5 0.9-0.6 0 0 0 0 0 0-0.2 0.3-0.4 0.7-0.9 1.2z"/><path class="j" d="m133.3 57.9c-0.1 0.1-0.2-0.4-0.2-0.6 0.3-0.1 0.4 0.2 0.2 0.6z"/><path class="i" d="m98.1 51.9c0-0.1 0.2-0.2 0.7-0.2 0.2 0.1-0.1 0.4-0.1 0.4 0 0-0.5-0.1-0.6-0.2z"/><path class="k" d="m133.3 46c-0.1-0.2-0.1-0.3-0.2-0.7 0.3 0 0.6 0.3 1.1 0.8 0.1 0.2 0.1 0.2-0.2 0.1-0.2-0.1-0.7-0.2-0.7-0.2z"/><path class="l" d="m110.8 13.2c0.1 0.1-0.4 0.1-0.6 0 0-0.3 0.3-0.4 0.6 0z"/><path class="m" d="m189 152c0.2 0.5 0.3 0.9-0.2 1.7-7.9 0.3-15.1 0.2-22.4 0.3-3 0.1-4.7-0.8-4.5-4.1 0 0 0 0 0.1 0 0.4-0.3 0.4-0.6 0.1-0.9 3.2-7.1 7.7-10.3 14.4-10 6.7 0.3 10.6 4.1 12.2 10.9 0 1 0.2 1.6 0.3 2.1z"/><path class="n" d="m161.7 150.1c0 3.1 1.7 4 4.7 3.9 7.3-0.1 14.5 0 22.2 0-0.9 0.4-2.2 1-3.5 1.1-8.1 0.1-16.2 0-24.6 0 0.3-1.9 0.6-3.3 1.2-5z"/><path class="n" d="m189.1 151.7c-0.2-0.2-0.4-0.8-0.4-1.5 0.2 0.3 0.3 0.7 0.4 1.5z"/><path class="n" d="m162 149.2c0.4 0.1 0.4 0.4 0 0.7-0.1 0.1-0.1-0.4 0-0.7z"/><path class="a" d="m134.1 52.5c0 0.2-0.1 0.3-0.5 0.4-0.1-0.1 0.2-0.3 0.5-0.4z"/><path class="a" d="m133.3 46.2c0-0.2 0.5-0.1 0.7 0-0.1 0.1-0.4 0.1-0.7 0z"/></svg>