<svg version="1.2" xmlns="http://www.w3.org/2000/svg" viewBox="0 0 512 512" width="100" height="100"><style>.a{fill:#f0e543}.b{fill:#030301}.c{fill:#050501}.d{fill:#020201}</style><path fill-rule="evenodd" class="a" d="m502 513c-167.3 0-334.1 0-501 0q0-256 0-512 256 0 512 0 0 256 0 512c-3.5 0-7 0-11 0zm-200.6-86.5q0 7.2 0 14.3c8.5 0 16.4 0 24.6 0 0-15.3-0.2-30.3 0.1-45.3 0.2-5.2 1.2-10.6 2.9-15.6 2.6-7.8 9.8-11.3 19-10.1 6.5 0.8 10.3 5.4 11.2 13.8q0.5 4.5 0.5 9c0.1 14.3 0.1 28.6 0.1 42.9 0 1.8 0 3.6 0 5.4 8.3 0 16.1 0 23.8 0 0-21.8 0.3-43.4-0.2-65-0.1-4.8-2.5-10.1-5.3-14.3-7.2-11.1-26.7-15.4-40.1-8.9-5.2 2.6-9.7 6.6-14.7 10-0.7-2.6-1.4-5.5-2.4-8.2-0.4-1-1.6-2.5-2.4-2.5-5.6-0.3-11.2-0.2-16.5-0.2-0.3 1.1-0.5 1.4-0.5 1.7 0 24 0 48-0.1 73zm-96.3-56.8c-5.5 10.7-6.8 22.2-5.7 33.9 1.3 14.2 6.8 26.4 19.9 33.2 18.1 9.4 36.7 7.6 55.1 0.5 0.9-0.3 2.1-1.8 2.1-2.7 0.2-5.4 0.1-10.8 0.1-15.3-9.7 1.8-18.8 4.2-28.1 5.2-13 1.4-24.9-6.3-23.9-22.1 18.9 0 37.8 0 56.6 0 3.2-23.6-5.8-44.1-22-49.4-20.3-6.6-42.6-3.2-54.1 16.7zm269.4-17.9c-2.5 0-5-0.3-7.4 0.2-1.5 0.2-3.4 1.4-3.8 2.7-6.5 19.7-12.8 39.5-19.2 59.2-0.3 1-0.8 1.9-0.9 2-6.9-21.1-13.9-42.5-20.8-63.7-8.9 0-17.1 0-25.3 0 0 0.7-0.1 1 0 1.3 10.8 28.3 21.5 56.5 32.4 84.7 0.5 1.4 2.7 2.8 4.2 2.8 5.9 0.4 11.7 0 17.5 0.3 3.4 0.1 4.9-1 6.1-4.2 8.1-21.9 16.6-43.8 24.9-65.7 2.4-6.3 4.8-12.6 7.5-19.6-5.2 0-9.7 0-15.2 0zm-296 88.2c4.3-4.2 4.4-9.5 3.3-14.9-1.2-5.8-6.7-9.1-13.8-9-7.2 0.2-11.8 3.4-13.1 9.3-1.3 5.9-0.8 11.4 4.3 15.4 4.7 3.7 12.6 3.5 19.3-0.8z"/><path class="b" d="m301.4 426c0.1-24.5 0.1-48.5 0.1-72.5 0-0.3 0.2-0.6 0.5-1.7 5.3 0 10.9-0.1 16.5 0.2 0.8 0 2 1.5 2.4 2.5 1 2.7 1.7 5.6 2.4 8.2 5-3.4 9.5-7.4 14.7-10 13.4-6.5 32.9-2.2 40.1 8.9 2.8 4.2 5.2 9.5 5.3 14.3 0.5 21.6 0.2 43.2 0.2 65-7.7 0-15.5 0-23.8 0 0-1.8 0-3.6 0-5.4 0-14.3 0-28.6-0.1-42.9q0-4.5-0.5-9c-0.9-8.4-4.7-13-11.2-13.8-9.2-1.2-16.4 2.3-19 10.1-1.7 5-2.7 10.4-2.9 15.6-0.3 15-0.1 30-0.1 45.3-8.2 0-16.1 0-24.6 0 0-4.7 0-9.5 0-14.8z"/><path fill-rule="evenodd" class="c" d="m205.3 369.3c11.3-19.5 33.6-22.9 53.9-16.3 16.2 5.3 25.2 25.8 22 49.4-18.8 0-37.7 0-56.6 0-1 15.8 10.9 23.5 23.9 22.1 9.3-1 18.4-3.4 28.1-5.2 0 4.5 0.1 9.9-0.1 15.3 0 0.9-1.2 2.4-2.1 2.7-18.4 7.1-37 8.9-55.1-0.5-13.1-6.8-18.6-19-19.9-33.2-1.1-11.7 0.2-23.2 5.9-34.3zm42.2 16.9q5.4 0 10.8 0c-0.3-12.3-6.6-18.9-17.2-18.6-9.9 0.3-16.4 7.7-15.9 18.6 7.1 0 14.2 0 22.3 0z"/><path class="d" d="m475 351.8c5 0 9.5 0 14.7 0-2.7 7-5.1 13.3-7.5 19.6-8.3 21.9-16.8 43.8-24.9 65.7-1.2 3.2-2.7 4.3-6.1 4.2-5.8-0.3-11.6 0.1-17.5-0.3-1.5 0-3.7-1.4-4.2-2.8-10.9-28.2-21.6-56.4-32.4-84.7-0.1-0.3 0-0.6 0-1.3 8.2 0 16.4 0 25.3 0 6.9 21.2 13.9 42.6 20.8 63.7 0.1-0.1 0.6-1 0.9-2 6.4-19.7 12.7-39.5 19.2-59.2 0.4-1.3 2.3-2.5 3.8-2.7 2.4-0.5 4.9-0.2 7.9-0.2z"/><path class="c" d="m178.2 440.3c-6.4 4-14.3 4.2-19 0.5-5.1-4-5.6-9.5-4.3-15.4 1.3-5.9 5.9-9.1 13.1-9.3 7.1-0.1 12.6 3.2 13.8 9 1.1 5.4 1 10.7-3.6 15.2z"/><path class="a" d="m247 386.2c-7.6 0-14.7 0-21.8 0-0.5-10.9 6-18.3 15.9-18.6 10.6-0.3 16.9 6.3 17.2 18.6-3.6 0-7.2 0-11.3 0z"/></svg>