<svg version="1.2" xmlns="http://www.w3.org/2000/svg" viewBox="0 0 889 889" width="100" height="100"><style>.a{fill:#0074c1}.b{fill:#ecf4fa}.c{fill:#0174c1}.d{fill:#fbfdfe}.e{fill:#f9fcfe}.f{fill:#d9eaf5}.g{fill:#0375c2}.h{fill:#0877c2}</style><path fill-rule="evenodd" class="a" d="m890 328c0 187.7 0 374.8 0 562q-444.5 0-889 0 0-444.5 0-889 444.5 0 889 0c0 108.8 0 217.7 0 327zm-90.5-232.3c-249.1 0-498.1 0-748.2 0 132 228.4 263.4 456 395.1 684.1 131.8-228.2 263.2-455.7 395.2-684.1-14.5 0-27.8 0-42.1 0z"/><path fill-rule="evenodd" class="b" d="m800 95.7c13.8 0 27.1 0 41.6 0-132 228.4-263.4 455.9-395.2 684.1-131.7-228.1-263.1-455.7-395.1-684.1 250.1 0 499.1 0 748.7 0zm25.3 5c-254.7 0-509.4 0-765.1 0 129 223.3 257.4 445.5 386.2 668.6 128.9-223.1 257.4-445.5 386.2-668.6-2.8 0-4.6 0-7.3 0z"/><path fill-rule="evenodd" class="c" d="m825.8 100.7c2.2 0 4 0 6.8 0-128.8 223.1-257.3 445.5-386.2 668.6-128.8-223.1-257.2-445.3-386.2-668.6 255.7 0 510.4 0 765.6 0zm-523.5 309c9.1 5.8 18 11.9 27.4 17.2 39.6 22.3 81.8 31.2 127.1 26.4 32.8-3.5 63.2-14 91.4-30.7 5.5-3.3 10.5-7.7 14.8-12.3 4.3-4.5 5.2-5 9.8-0.5 1.4 1.3 2.7 2.6 4.1 3.8 4.2 3.6 8.7 5.3 14.1 2.5 5.7-2.9 10.5-6.4 10.5-13.8 0-11.5-5.5-21-12.6-29.1-20.1-23.2-43.2-42.8-70.9-56.7-20.5-10.2-42.2-16.1-65-17.3-20.8-1.1-41.2 1.8-61 8-28.6 8.9-54.5 23-78.2 41.1-9.9 7.5-19.3 15.7-28.9 23.7q0.4 0.5 0.9 1.1c15.4-9.9 30.7-20 46.3-29.6 15.7-9.6 32.4-17.1 49.8-23.2-3.1 8.4-6.6 16.1-8.9 24.1-2.3 8.2-3.3 16.7-0.7 25.1 2.4 8.1 4.3 16.6 8.4 23.7 4.1 7.2 10 13.9 16.4 19.2 22.6 18.3 55.7 19.5 78.8 3.8 15.7-10.7 25.7-25.2 29.5-43.9 3.9-18.8-0.6-36-11.3-53.1 13.4 5.2 24.3 11.9 34.4 19.7 11.8 9.1 22.4 19.4 30.6 31.9 7.2 11 4.4 21.7-2.5 29-6.3 6.7-13.9 12.4-21.5 17.7-33 22.7-69.4 33.3-109.6 30.9-27.9-1.7-54.5-8.3-79.9-19.7-14.8-6.6-29-14.6-43.9-22.5q-5.5-3.5-11-6.9-0.4 0.7-0.8 1.4c4 2.8 8 5.6 12.4 9zm-20.7-47.6q-3.8 4.3-7.7 8.6 0.4 0.5 0.8 0.9c1.1-0.6 2.3-1 3.2-1.8 4.2-3.7 8.2-7.7 12.5-11.4 24.6-21.7 51.4-40.1 81.9-52.5 45.2-18.3 90.8-20.1 136.7-3.3 34 12.5 63.1 32.5 87.9 58.9 4.7 5 10.4 9.3 16.2 12.8 4.8 2.9 9 0.7 11.4-4.4 3.2-6.8 1.7-14-4.5-19.4-21.3-18.5-44.3-34.5-69.6-47.2-35.6-17.8-73.1-27.3-113.1-24.2-26.3 2-51.2 9.3-74.8 21-30.8 15.3-57.3 36.1-80.9 62zm6.4 36l-0.3 0.1c0.1 0.1 0.3-0.1 0.3-0.1z"/><path fill-rule="evenodd" class="d" d="m302.1 406.7c14.5 7.4 28.7 15.4 43.5 22 25.4 11.4 52 18 79.9 19.7 40.2 2.4 76.6-8.2 109.6-30.9 7.6-5.3 15.2-11 21.5-17.7 6.9-7.3 9.7-18 2.5-29-8.2-12.5-18.8-22.8-30.6-31.9-10.1-7.8-21-14.5-34.4-19.7 10.7 17.1 15.2 34.3 11.3 53.1-3.8 18.7-13.8 33.2-29.5 43.9-23.1 15.7-56.2 14.5-78.8-3.8-6.4-5.3-12.3-12-16.4-19.2-4.1-7.1-6-15.6-8.4-23.7-2.6-8.4-1.6-16.9 0.7-25.1 2.3-8 5.8-15.7 8.9-24.1-17.4 6.1-34.1 13.6-49.8 23.2-15.6 9.6-30.9 19.7-46.3 29.6q-0.5-0.6-0.9-1.1c9.6-8 19-16.2 28.9-23.7 23.7-18.1 49.6-32.2 78.2-41.1 19.8-6.2 40.2-9.1 61-8 22.8 1.2 44.5 7.1 65 17.3 27.7 13.9 50.8 33.5 70.9 56.7 7.1 8.1 12.6 17.6 12.6 29.1 0 7.4-4.8 10.9-10.5 13.8-5.4 2.8-9.9 1.1-14.1-2.5-1.4-1.2-2.7-2.5-4.1-3.8-4.6-4.5-5.5-4-9.8 0.5-4.3 4.6-9.3 9-14.8 12.3-28.2 16.7-58.6 27.2-91.4 30.7-45.3 4.8-87.5-4.1-127.1-26.4-9.4-5.3-18.3-11.4-27.6-17.9-0.1-1.2 0-1.8 0-2.3zm132.9-22.7c5.1-1 10.6-1 15.3-3.1 10.2-4.6 15-17.5 11.5-28.4-3.7-11.6-15-18.7-27.1-17.1-10.8 1.5-20.4 12.1-20.7 23-0.3 12.7 6.2 21 21 25.6zm-26.4-13.2c-1-4.5-2-9-3.1-14q-11.9-1.3-24.8-2.7c-1 11 0.4 20.9 5.7 30.5 7.3-3.5 14.3-6.8 21.2-10.3 0.7-0.3 0.8-1.8 1-3.5z"/><path class="e" d="m281.9 361.8c23.3-25.6 49.8-46.4 80.6-61.7 23.6-11.7 48.5-19 74.8-21 40-3.1 77.5 6.4 113.1 24.2 25.3 12.7 48.3 28.7 69.6 47.2 6.2 5.4 7.7 12.6 4.5 19.4-2.4 5.1-6.6 7.3-11.4 4.4-5.8-3.5-11.5-7.8-16.2-12.8-24.8-26.4-53.9-46.4-87.9-58.9-45.9-16.8-91.5-15-136.7 3.3-30.5 12.4-57.3 30.8-81.9 52.5-4.3 3.7-8.3 7.7-12.5 11.4-0.9 0.8-2.1 1.2-3.2 1.8q-0.4-0.4-0.8-0.9c2.6-2.9 5.2-5.7 8-8.9z"/><path class="f" d="m301.9 406.4c0.2 0.8 0.1 1.4 0 2.3-4-2.4-8-5.2-12-8q0.4-0.7 0.8-1.4c3.7 2.3 7.4 4.6 11.2 7.1z"/><path class="f" d="m287.7 398.3c0.1 0 0.3-0.2 0.3-0.2 0 0-0.3 0.1-0.3 0.2z"/><path class="g" d="m434.5 384c-14.3-4.6-20.8-12.9-20.5-25.6 0.3-10.9 9.9-21.5 20.7-23 12.1-1.6 23.4 5.5 27.1 17.1 3.5 10.9-1.3 23.8-11.5 28.4-4.7 2.1-10.2 2.1-15.8 3.1z"/><path class="h" d="m408.7 371.2c-0.3 1.3-0.4 2.8-1.1 3.1-6.9 3.5-13.9 6.8-21.2 10.3-5.3-9.6-6.7-19.5-5.7-30.5q12.9 1.4 24.8 2.7c1.1 5 2.1 9.5 3.2 14.4z"/></svg>