<svg xmlns="http://www.w3.org/2000/svg" xmlns:xlink="http://www.w3.org/1999/xlink" id="Layer_1" x="0px" y="0px" width="100%" viewBox="0 0 400 272" xml:space="preserve"><path fill="#000000" opacity="1.000000" stroke="none" d="M194.280853,155.283585  C185.470551,153.851837 182.642456,147.835800 181.348145,139.150558  C181.348145,143.957916 181.381104,147.519089 181.333084,151.079163  C181.311707,152.664185 180.979034,154.117355 178.902008,154.144699  C176.864731,154.171524 176.319656,152.719147 176.283463,151.173386  C176.159012,145.858749 176.373444,140.530991 176.104111,135.226242  C175.784393,128.929642 174.214890,127.178543 169.676941,127.146278  C164.750839,127.111252 161.487762,130.259476 161.233871,135.661530  C161.022919,140.149841 161.228073,144.656601 161.074600,149.149231  C161.006378,151.145828 161.695236,154.094910 158.435959,154.077621  C155.177872,154.060349 156.087891,151.098907 155.801224,149.112350  C155.707306,148.461380 155.727875,147.793915 155.654816,146.277130  C152.586761,152.109024 148.421768,155.238190 142.389511,155.292358  C136.569977,155.344604 132.194321,152.742172 129.115250,147.872269  C128.849472,148.052139 128.478165,148.163559 128.423859,148.361801  C127.871719,150.377350 129.457642,153.937378 126.047264,153.924164  C122.101112,153.908890 123.855217,150.151535 123.722313,148.029572  C123.441711,143.549423 123.680389,139.038956 123.622009,134.542007  C123.576530,131.037994 123.100479,127.686371 118.637062,127.211861  C114.310890,126.751945 111.743591,128.998672 110.393333,132.913361  C108.828339,137.450577 109.846909,142.191940 109.278374,146.781342  C108.969742,149.272614 111.726662,154.006012 107.037247,153.887192  C102.928391,153.783112 105.018074,149.100494 104.781212,146.466660  C104.424561,142.500626 104.637970,138.478378 104.697678,134.481339  C104.752037,130.842194 104.148560,127.670372 99.703247,127.256432  C95.365723,126.852524 92.542046,129.081787 91.677925,133.128586  C91.026741,136.178177 91.216805,139.415710 91.117027,142.572266  C91.027596,145.401398 91.107628,148.236084 91.007523,151.064606  C90.951973,152.634247 90.542023,154.162689 88.526833,154.139297  C86.564598,154.116531 86.042305,152.634186 86.005196,151.052856  C85.907501,146.890549 85.919518,142.725464 85.907036,138.561417  C85.895546,134.730133 85.880783,130.898438 85.925606,127.067619  C85.943298,125.556030 86.401199,123.057503 87.837318,123.637703  C92.895439,125.681190 97.262573,121.530571 102.143448,122.654182  C104.556114,123.209595 106.305519,124.603142 108.133125,125.938293  C120.081352,120.579514 124.400124,121.471275 128.450516,130.476013  C131.892563,125.569046 136.073181,122.486092 142.336151,122.553818  C148.633408,122.621910 152.576447,125.686493 155.631012,131.498535  C155.736282,129.247849 155.770264,127.654686 155.895126,126.068680  C156.056076,124.024658 157.632111,122.451881 159.141312,123.525208  C161.834366,125.440475 163.670334,123.875023 165.945831,123.140182  C173.800125,120.603745 179.598312,124.301598 181.867569,133.125092  C186.756866,122.815567 192.486420,120.447266 203.025665,124.389252  C203.490219,124.563011 204.112030,125.129486 204.346008,124.989014  C212.904724,119.850960 209.326218,128.674240 211.412476,130.908234  C217.748367,120.510559 230.364899,119.176453 238.495789,129.597092  C248.670395,120.097076 255.883789,119.865730 265.083252,129.353378  C267.881927,122.517738 273.623444,122.105972 279.660461,122.808525  C283.533081,123.259186 286.599884,125.173454 287.942322,129.078644  C288.437561,130.519257 288.687653,132.162430 286.812805,132.885483  C285.354126,133.448044 284.225861,132.782608 283.579346,131.370789  C281.929962,127.768883 278.922913,126.921959 275.305634,127.223732  C272.923950,127.422424 270.985596,128.330475 270.590668,130.855331  C270.209198,133.294189 272.020386,134.517548 273.979156,135.166855  C278.211731,136.569901 282.511688,137.769638 286.872772,139.079163  C288.296997,137.445984 287.965790,135.304886 288.546448,133.465637  C291.022919,125.621346 296.040009,122.109100 304.282318,122.692154  C310.672302,123.144180 314.967407,127.859985 316.118134,135.453308  C316.635559,138.867676 315.548218,140.447922 311.923645,140.345215  C306.930664,140.203720 301.929596,140.375595 296.932831,140.327148  C293.594452,140.294769 292.898438,141.789932 293.933533,144.757812  C296.044403,150.810211 303.358154,152.838196 308.181183,148.584305  C309.038910,147.827774 309.743896,146.854935 310.365417,145.883453  C311.403473,144.261002 312.886414,143.288605 314.525879,144.389084  C316.422729,145.662354 315.102478,147.390259 314.324707,148.797348  C310.357697,155.974045 299.684814,157.628632 292.979614,152.111221  C291.845581,151.178085 290.838104,150.091125 289.762726,149.066254  C282.669556,157.656616 270.997101,157.530045 264.751221,148.658340  C261.225464,152.609985 257.240814,155.575333 251.565964,155.345551  C246.093704,155.123962 242.146271,152.523560 238.866730,147.755203  C234.938721,152.138290 230.776215,155.734039 224.481720,155.344666  C218.408752,154.968994 214.433167,151.689285 211.499908,146.437927  C210.127930,149.162048 210.551712,151.700104 210.399414,154.152710  C210.026230,160.162354 207.151428,164.539429 202.043610,165.919037  C195.828964,167.597565 189.726669,167.530243 184.873367,162.465698  C183.636383,161.174881 181.665222,159.157150 183.915253,157.372238  C185.682373,155.970398 187.146637,157.540192 188.443878,159.064514  C191.520325,162.679459 195.481644,163.298691 199.749741,161.602676  C203.437149,160.137421 205.477814,157.399536 205.471664,152.787094  C201.713745,153.992630 198.462677,155.932098 194.280853,155.283585 M132.429184,141.009018  C132.771271,142.290115 132.953568,143.642288 133.485840,144.838776  C134.992737,148.226151 137.331512,150.577744 141.340851,150.754211  C145.489883,150.936798 148.400467,149.059708 150.090408,145.417740  C152.237198,140.791336 152.298157,136.121643 149.743134,131.560608  C147.277435,127.159019 141.469208,125.570877 137.275604,128.363281  C133.067215,131.165543 132.297531,135.547119 132.429184,141.009018 M244.078827,131.732956  C242.418915,135.480057 241.803452,139.246078 243.062622,143.324112  C245.251053,150.411636 251.987732,153.164139 257.326630,148.973007  C260.995300,146.092987 262.481171,139.727386 260.812347,134.340714  C259.779755,131.007751 258.236847,128.102203 254.475739,127.395142  C250.477325,126.643463 246.832199,127.224716 244.078827,131.732956 M225.414291,150.738907  C230.579880,150.506302 233.207245,147.371246 234.193604,142.699936  C235.265442,137.623749 235.019485,132.730377 230.864014,128.867798  C229.732971,127.816475 228.321274,127.389175 226.779892,127.210457  C221.234299,126.567451 217.242188,129.616089 216.217117,135.354553  C214.725250,143.706070 217.764832,149.258911 225.414291,150.738907 M203.917175,146.237991  C204.442886,145.024170 205.159042,143.856033 205.462891,142.589005  C207.228119,135.228165 203.884201,128.301743 198.166458,127.285172  C190.870621,125.988029 186.362747,131.619751 187.186676,140.942215  C187.564926,145.221970 189.226227,148.775116 193.425797,150.289566  C197.489731,151.755096 200.885574,150.214218 203.917175,146.237991 M276.657562,140.979736  C273.401245,140.012589 270.144928,139.045425 266.857605,138.069061  C266.259766,142.613037 270.925293,149.616776 274.986603,150.582291  C279.168304,151.576416 283.850891,149.818726 284.155121,146.823227  C284.605316,142.390976 280.747131,142.280487 277.905914,141.259109  C277.752289,141.203888 277.580994,141.197662 276.657562,140.979736 M300.919525,127.246315  C296.442444,128.108932 294.429016,130.996002 293.636993,135.240784  C294.681152,135.593918 295.142456,135.876892 295.609955,135.887497  C298.761505,135.959030 301.922821,136.124878 305.063629,135.949326  C307.002197,135.840958 309.962128,137.050308 310.419922,133.957062  C310.816467,131.277863 308.815826,129.412247 306.533386,128.094589  C305.028687,127.225952 303.378967,127.154205 300.919525,127.246315 z"/></svg>