<svg version="1.2" xmlns="http://www.w3.org/2000/svg" viewBox="0 0 266 256" width="100" height="96"><style>.a{fill:#e0234e}</style><path fill-rule="evenodd" class="a" d="m154.3 4.2c-1.8 0-3.5 0.4-5 0.9 3.3 2.2 5.1 5.1 6 8.4 0.1 0.5 0.2 0.8 0.3 1.3 0 0.4 0.1 0.7 0.1 1.1 0.3 5.7-1.5 6.4-2.7 9.8-1.9 4.3-1.4 9 0.9 12.7 0.2 0.5 0.4 1 0.8 1.4-2.5-16.3 11.1-18.8 13.7-23.9 0.2-4.4-3.5-7.4-6.4-9.5-2.8-1.6-5.3-2.2-7.7-2.2zm20.6 3.7c-0.3 1.5-0.1 1.1-0.1 1.9-0.1 0.5-0.1 1.2-0.2 1.7-0.1 0.5-0.2 1-0.4 1.5-0.2 0.5-0.3 1.1-0.5 1.6-0.3 0.5-0.5 0.9-0.8 1.5-0.1 0.2-0.3 0.5-0.5 0.7q-0.2 0.3-0.4 0.6c-0.3 0.5-0.6 0.9-0.9 1.3-0.4 0.4-0.7 0.9-1.2 1.2-0.4 0.4-0.8 0.8-1.2 1.1-1.4 1-2.9 1.8-4.3 2.8-0.5 0.3-1 0.5-1.3 0.9-0.5 0.3-0.9 0.7-1.3 1.1-0.4 0.3-0.7 0.7-1.1 1.2-0.4 0.4-0.7 0.8-1 1.3-0.3 0.4-0.6 0.9-0.9 1.3-0.3 0.6-0.5 1-0.7 1.5-0.2 0.5-0.4 1-0.5 1.5-0.2 0.6-0.4 1.1-0.5 1.6 0 0.3 0 0.6-0.1 0.9-0.1 0.2-0.1 0.5-0.1 0.7 0 0.6-0.1 1.1-0.1 1.7 0 0.3 0 0.7 0.1 1.1 0 0.5 0 1.1 0.2 1.6 0 0.6 0.1 1.1 0.3 1.6 0.2 0.5 0.3 1 0.5 1.5 0.1 0.4 0.3 0.7 0.4 0.9l-14.8-5.7c-2.5-0.7-5-1.4-7.5-2q-2-0.4-4.1-0.9c-3.9-0.8-7.8-1.4-11.7-1.8-0.2 0-0.2 0-0.4 0-3.8-0.4-7.7-0.6-11.5-0.6-2.9 0-5.7 0.1-8.5 0.3-3.9 0.3-7.9 0.8-11.8 1.4-1 0.2-2 0.4-2.9 0.6-2 0.3-4 0.8-5.8 1.2q-1.5 0.4-3 0.8c-0.9 0.4-1.8 0.9-2.7 1.2q-1.1 0.5-2.2 1c-0.1 0.1-0.2 0.1-0.3 0.1-0.6 0.4-1.2 0.6-1.8 0.9-0.2 0.1-0.3 0.2-0.5 0.2-0.7 0.4-1.4 0.8-2 1.1-0.4 0.2-0.9 0.4-1.2 0.6-0.2 0.2-0.5 0.3-0.6 0.3-0.6 0.4-1.2 0.7-1.7 1q-0.9 0.5-1.6 1c-0.4 0.3-0.9 0.6-1.3 0.9 0 0.1-0.1 0.1-0.1 0.1-0.4 0.3-0.9 0.6-1.3 0.9 0 0 0 0.1-0.1 0.2q-0.5 0.3-1 0.7c-0.1 0.1-0.2 0.2-0.4 0.3-0.3 0.2-0.6 0.6-0.9 0.8-0.1 0.2-0.2 0.2-0.3 0.3-0.4 0.4-0.8 0.7-1.2 1.1 0 0 0 0-0.1 0.1-0.4 0.3-0.8 0.7-1.1 1.1-0.1 0.1-0.1 0.1-0.2 0.1-0.3 0.4-0.6 0.7-0.9 1.1-0.2 0.1-0.4 0.2-0.5 0.4-0.3 0.4-0.7 0.7-1.1 1.1-0.1 0.2-0.2 0.2-0.3 0.3-0.5 0.6-0.9 1.1-1.4 1.6q-0.1 0.1-0.2 0.2c-1.1 1.1-2.2 2.2-3.3 3.2-1.2 1-2.4 2-3.6 2.8-1.3 0.9-2.6 1.7-3.9 2.5q-2 1-4.1 1.9c-1.4 0.6-2.8 1.1-4.2 1.5-2.7 0.6-5.5 1.7-7.9 1.9-0.5 0-1.1 0.2-1.6 0.2-0.6 0.1-1.1 0.3-1.6 0.4q-0.8 0.3-1.6 0.6c-0.5 0.2-1 0.4-1.5 0.7-0.5 0.3-1 0.6-1.4 0.9-0.5 0.3-0.9 0.7-1.3 1.1-0.5 0.3-0.9 0.8-1.3 1.2-0.4 0.4-0.8 0.8-1.1 1.3-0.3 0.5-0.7 0.9-1 1.4-0.3 0.5-0.6 1-0.9 1.5-0.2 0.6-0.5 1.1-0.7 1.7-0.2 0.5-0.4 1.1-0.6 1.7-0.1 0.5-0.2 1-0.3 1.5 0 0.1-0.1 0.2-0.1 0.2-0.1 0.6-0.1 1.4-0.2 1.8 0 0.4-0.1 0.8-0.1 1.3 0 0.2 0 0.6 0.1 0.8 0 0.5 0.1 0.8 0.2 1.2 0.2 0.4 0.3 0.8 0.5 1.2v0.1c0.2 0.4 0.4 0.7 0.7 1.1 0.3 0.4 0.5 0.8 0.8 1.2 0.4 0.3 0.7 0.7 1.1 1 0.4 0.4 0.8 0.7 1.3 1.1 1.5 1.3 1.9 1.8 3.9 2.8 0.3 0.2 0.6 0.3 1 0.5 0.1 0 0.2 0.1 0.2 0.1 0 0.1 0 0.2 0.1 0.3 0.1 0.5 0.2 1 0.3 1.6 0.1 0.5 0.3 1.1 0.5 1.5 0.2 0.4 0.4 0.8 0.6 1.2 0 0.1 0.1 0.2 0.1 0.3 0.3 0.5 0.6 1 0.8 1.4q0.5 0.7 1 1.4c0.3 0.4 0.7 0.8 1.1 1.2 0.4 0.4 0.8 0.7 1.2 1.1 0 0 0.1 0.1 0.1 0.1 0.4 0.3 0.8 0.6 1.2 0.9 0.5 0.3 0.9 0.6 1.4 0.8 0.5 0.3 1 0.5 1.5 0.7 0.4 0.2 0.9 0.3 1.3 0.5 0.1 0 0.1 0 0.3 0.1 0.2 0.1 0.5 0.1 0.8 0.2-0.2 3.5-0.3 6.8 0.3 7.9 0.5 1.3 3.4-2.6 6.2-7.1-0.4 4.4-0.6 9.7 0 11.2 0.7 1.6 4.6-3.4 8-9 45.8-10.6 87.6 21.1 92 65.8-0.8-7-9.4-10.8-13.4-9.9-1.9 4.8-5.2 10.9-10.5 14.8 0.4-4.3 0.2-8.7-0.7-13-1.4 6-4.2 11.5-8 16.3-6.1 0.5-12.2-2.5-15.5-7-0.2-0.2-0.3-0.5-0.5-0.8-0.2-0.4-0.4-0.9-0.5-1.4q-0.3-0.6-0.4-1.3c-0.1-0.5-0.1-0.9-0.1-1.4q0-0.5 0-1c0.1-0.5 0.2-0.9 0.4-1.4 0.1-0.4 0.2-0.9 0.4-1.3 0.3-0.5 0.5-0.9 0.8-1.4 1.1-3.1 1.1-5.6-0.9-7.1-0.4-0.2-0.8-0.4-1.2-0.6-0.3-0.1-0.6-0.2-0.9-0.3-0.2 0-0.3-0.1-0.5-0.2-0.5-0.1-0.9-0.2-1.4-0.3q-0.6-0.2-1.3-0.2c-0.5-0.1-1-0.1-1.4-0.1-0.4 0-0.7 0-1 0-0.5 0-1 0.1-1.4 0.2-0.5 0.1-0.9 0.2-1.4 0.3-0.4 0.1-0.9 0.3-1.3 0.4-0.5 0.2-0.9 0.4-1.3 0.6-0.4 0.2-0.8 0.5-1.3 0.7-15 9.8-6 32.8 4.2 39.5-3.8 0.7-7.8 1.5-8.9 2.3 0 0.1-0.1 0.2-0.1 0.2 2.8 1.7 5.7 3.1 8.7 4.3 4.1 1.4 8.5 2.6 10.5 3.1v0.1q8 1.6 16.3 1.1c28.6-2 52.1-23.7 56.3-52.4 0.1 0.5 0.3 1.1 0.4 1.6 0.2 1.2 0.5 2.4 0.6 3.7 0.1 0.6 0.2 1.2 0.2 1.7v0.3c0.1 0.5 0.2 1.1 0.2 1.6 0 0.8 0.1 1.5 0.1 2.2v1c0 0.3 0.1 0.7 0.1 1 0 0.4-0.1 0.8-0.1 1.2v0.9c0 0.5-0.1 0.9-0.1 1.3 0 0.3 0 0.5 0 0.8 0 0.5-0.1 1-0.1 1.5-0.1 0.2-0.1 0.4-0.1 0.5 0 0.6-0.1 1-0.2 1.5 0 0.2 0 0.4 0 0.6-0.1 0.7-0.2 1.2-0.3 1.9v0.1c-0.1 0.6-0.2 1.2-0.4 1.8v0.2q-0.2 0.9-0.4 1.8c0 0 0 0.2 0 0.2-0.1 0.6-0.3 1.2-0.5 1.8v0.2c-0.2 0.6-0.4 1.2-0.5 1.8 0 0 0 0.1 0 0.1q-0.3 1-0.6 1.9c-0.3 0.7-0.5 1.3-0.7 1.9-0.3 0.7-0.5 1.3-0.8 1.9-0.2 0.6-0.5 1.2-0.7 1.9h-0.1c-0.3 0.5-0.5 1.2-0.8 1.8-0.1 0.2-0.2 0.3-0.2 0.4-0.1 0.1-0.1 0.2-0.2 0.2-4.2 8.5-10.4 15.9-18.1 21.7-0.5 0.4-1 0.7-1.6 1.1-0.1 0.2-0.3 0.2-0.4 0.4-0.5 0.3-0.9 0.6-1.4 0.9l0.2 0.4q1.4-0.2 2.7-0.4h0.1c1.7-0.2 3.4-0.6 5-0.9 0.5 0 1-0.2 1.5-0.3 0.3-0.1 0.5-0.1 0.9-0.2 0.4-0.1 0.9-0.2 1.3-0.3 0.4-0.1 0.8-0.2 1.2-0.3 6.4-1.5 12.7-3.7 18.7-6.2-10.2 14-24 25.3-40.1 32.8 7.4-0.5 14.9-1.8 22-3.8 26.1-7.7 48-25.2 61.1-48.8-2.7 14.9-8.6 29.1-17.4 41.5q9.4-6.2 17.3-14.3c14.4-15.1 23.9-34.3 27.2-54.9 2.2 10.2 2.8 20.7 1.8 31.1 46.7-65.1 3.9-132.5-14-150.3 0-0.1-0.1-0.2-0.1-0.3-0.1 0-0.1 0-0.1 0.1 0-0.1 0-0.1 0-0.1 0 0.7-0.1 1.5-0.2 2.3-0.2 1.5-0.4 2.9-0.6 4.3-0.3 1.5-0.7 2.9-1.1 4.3-0.5 1.4-1 2.8-1.6 4.1-0.5 1.3-1.2 2.7-1.9 4-0.7 1.2-1.5 2.5-2.3 3.7-0.9 1.2-1.8 2.3-2.7 3.4-0.9 1.2-2 2.2-3 3.3-0.7 0.6-1.2 1.1-1.9 1.6-0.5 0.4-1 0.8-1.5 1.3-1.1 0.9-2.3 1.7-3.6 2.5-1.2 0.8-2.5 1.6-3.8 2.2-1.4 0.6-2.7 1.2-4.1 1.8-1.3 0.5-2.8 1-4.2 1.4-1.4 0.4-2.9 0.7-4.3 0.9-1.5 0.3-3 0.4-4.4 0.6-1 0-2.1 0.1-3.1 0.1-1.5 0-3-0.1-4.4-0.3-1.5-0.1-3-0.3-4.4-0.6-1.5-0.3-2.9-0.7-4.3-1.1h-0.1c1.4-0.1 2.9-0.3 4.3-0.5 1.5-0.3 2.9-0.6 4.3-1 1.4-0.4 2.9-0.8 4.2-1.4 1.4-0.5 2.8-1.1 4.1-1.8 1.3-0.6 2.6-1.3 3.9-2.1 1.2-0.8 2.4-1.7 3.6-2.6q1.7-1.3 3.3-2.9c1.1-1 2-2.1 3-3.2q1.5-1.7 2.7-3.5c0.2-0.1 0.3-0.4 0.4-0.6 0.7-1 1.3-2.1 1.9-3.1 0.7-1.3 1.3-2.6 1.9-3.9 0.6-1.4 1.1-2.8 1.6-4.2 0.4-1.3 0.8-2.8 1.1-4.2 0.2-1.5 0.5-2.9 0.6-4.3 0.2-1.5 0.3-3 0.3-4.4 0-1-0.1-2.1-0.1-3.1-0.2-1.5-0.4-2.9-0.6-4.3-0.2-1.5-0.5-2.9-0.9-4.4-0.5-1.3-0.9-2.7-1.5-4.1-0.5-1.4-1.1-2.7-1.8-4-0.7-1.3-1.4-2.6-2.2-3.8-0.8-1.2-1.6-2.4-2.5-3.6-1-1.1-2-2.2-3-3.3-0.5-0.5-1.1-1.1-1.7-1.6-2.9-2.2-5.9-4.4-9-6.3-0.4-0.3-0.8-0.5-1.3-0.7-2.1-1.3-4.1-2-6.1-2.7z"/></svg>