<svg xmlns="http://www.w3.org/2000/svg" xmlns:xlink="http://www.w3.org/1999/xlink" id="Layer_1" x="0px" y="0px" width="100%" viewBox="0 0 314 128" xml:space="preserve"><path fill="#015C0D" opacity="1.000000" stroke="none" d="M193.000000,129.000000  C128.666687,129.000000 64.833374,129.000000 1.000043,129.000000  C1.000029,86.333366 1.000029,43.666729 1.000014,1.000072  C105.666603,1.000048 210.333206,1.000048 314.999878,1.000024  C314.999908,43.666592 314.999908,86.333183 314.999939,128.999878  C274.500000,129.000000 234.000000,129.000000 193.000000,129.000000 M12.840356,69.794586  C13.198861,72.092079 13.645943,74.379967 13.896496,76.689178  C14.347568,80.846443 14.764346,85.011002 15.038501,89.182831  C15.283836,92.916115 17.125116,95.264465 20.488770,96.812546  C22.608915,97.788315 24.872845,98.931801 26.417873,100.604507  C47.119469,123.016739 83.108871,122.985214 103.815369,100.539207  C105.357567,98.867462 107.644203,97.759377 109.762146,96.768318  C113.770859,94.892509 115.444305,91.984604 114.912376,87.575584  C114.668762,85.556396 114.468582,83.324371 115.058998,81.443184  C124.478195,51.431908 106.992699,20.839483 76.362335,13.740380  C74.261192,13.253406 72.178627,12.038567 70.459358,10.688560  C67.045433,8.007874 63.018852,8.024251 59.572899,10.788207  C57.987755,12.059634 56.060024,13.216326 54.111156,13.674713  C27.832945,19.855560 11.279771,41.914062 12.840356,69.794586 M129.044540,44.217514  C129.016876,54.531590 128.727875,64.853516 129.037491,75.157463  C129.328094,84.829094 135.521790,90.172287 145.200653,90.266037  C151.863434,90.330566 156.942825,87.348427 161.644531,82.193558  C161.805710,83.384468 161.894363,83.955963 161.958923,84.530167  C162.371216,88.197357 164.242996,90.386925 168.101517,90.293953  C171.874771,90.203018 173.522018,87.575317 173.563797,84.369164  C173.732819,71.396286 173.623428,58.419724 173.595627,45.444565  C173.594589,44.959541 173.535583,44.294048 173.228912,44.019932  C171.394882,42.380569 169.510269,39.633930 167.584229,39.585602  C165.620972,39.536343 163.189850,41.859879 161.732681,43.740467  C160.789932,44.957180 161.110443,47.241722 161.069275,49.052410  C160.902969,56.368431 161.172699,63.715004 160.585999,70.994247  C160.123077,76.737923 154.998764,80.769341 149.675339,80.601761  C144.818237,80.448853 142.167847,77.693779 141.762390,71.018646  C141.268814,62.892639 141.408188,54.728218 141.271957,46.580444  C141.218155,43.362469 140.396271,40.590801 136.862381,39.614624  C133.236267,38.612965 130.738205,40.048229 129.044540,44.217514 M215.393906,51.093876  C216.278412,54.398445 217.748169,57.671467 217.928314,61.014000  C218.331024,68.486496 217.960876,75.997246 218.169098,83.485092  C218.269547,87.098053 219.816208,90.022697 224.012970,90.277901  C228.183838,90.531525 230.482132,87.988937 230.510605,84.284294  C230.594894,73.315994 230.684662,62.309097 229.851654,51.387512  C229.384918,45.268040 224.856750,41.456482 218.805618,39.945457  C210.638367,37.906010 203.886719,40.550430 197.980377,46.973194  C197.101105,42.452679 195.678635,38.617813 190.678070,39.432827  C185.564285,40.266296 185.850433,44.566093 185.855637,48.469585  C185.870316,59.459827 185.833771,70.450195 185.872025,81.440323  C185.893570,87.631615 187.857300,90.330040 192.145172,90.294632  C196.386932,90.259598 198.202927,87.659447 198.345840,81.341980  C198.507721,74.187492 198.652939,67.032585 198.784683,59.877480  C198.942230,51.320175 208.689713,46.129349 215.393906,51.093876 M278.189758,22.220415  C273.100983,22.132860 271.017975,24.945492 270.991852,29.711187  C270.972992,33.143169 270.988159,36.575340 270.988159,40.007427  C270.476654,39.696815 269.965118,39.386208 269.453613,39.075596  C267.568756,40.966061 263.849487,43.339607 264.192810,44.643303  C264.845306,47.121037 267.821899,48.986729 269.833313,51.106598  C270.235016,50.826355 270.636749,50.546108 271.038452,50.265862  C271.038452,59.422489 270.958466,68.580116 271.072754,77.735321  C271.128540,82.203789 272.018860,86.687500 276.546539,88.724747  C282.415710,91.365623 288.657837,91.164154 294.447235,88.530983  C295.965576,87.840385 297.478119,84.667381 297.110016,83.067833  C296.806915,81.750671 293.797089,80.814552 291.832642,80.213593  C290.680847,79.861252 288.987579,81.025192 287.965210,80.562607  C286.400452,79.854584 284.077026,78.372292 284.032257,77.147148  C283.700195,68.063240 283.852264,58.961632 283.852264,51.718483  C287.818085,49.089149 292.937561,47.410656 293.165771,45.222176  C293.852020,38.640511 287.017853,41.394051 283.333099,39.494354  C283.333099,35.980125 283.880096,32.374699 283.149170,29.050240  C282.623535,26.659491 280.392639,24.643658 278.189758,22.220415 M255.878265,58.509499  C255.853027,54.181957 256.054871,49.837486 255.733932,45.531986  C255.454224,41.779415 253.235641,39.246300 249.265274,39.320961  C245.524643,39.391304 243.318405,41.895206 243.271774,45.432919  C243.100693,58.412552 243.087387,71.398445 243.321793,84.376442  C243.384186,87.831841 245.506897,90.320671 249.414719,90.320122  C253.269043,90.319580 255.072998,87.939430 255.691132,84.465355  C255.922043,83.167610 255.868149,81.811684 255.871063,80.482124  C255.886353,73.490189 255.878235,66.498199 255.878265,58.509499 M255.827423,26.671741  C254.910812,22.331457 252.149612,20.403727 247.919434,21.402924  C244.717606,22.159218 242.353180,24.753637 243.396774,27.947712  C244.097153,30.091358 246.666519,32.544777 248.841080,33.085964  C252.807983,34.073223 255.330505,31.610641 255.827423,26.671741 z"/><path fill="#F7FAF7" opacity="1.000000" stroke="none" d="M12.818666,69.359589  C11.279771,41.914062 27.832945,19.855560 54.111156,13.674713  C56.060024,13.216326 57.987755,12.059634 59.572899,10.788207  C63.018852,8.024251 67.045433,8.007874 70.459358,10.688560  C72.178627,12.038567 74.261192,13.253406 76.362335,13.740380  C106.992699,20.839483 124.478195,51.431908 115.058998,81.443184  C114.468582,83.324371 114.668762,85.556396 114.912376,87.575584  C115.444305,91.984604 113.770859,94.892509 109.762146,96.768318  C107.644203,97.759377 105.357567,98.867462 103.815369,100.539207  C83.108871,122.985214 47.119469,123.016739 26.417873,100.604507  C24.872845,98.931801 22.608915,97.788315 20.488770,96.812546  C17.125116,95.264465 15.283836,92.916115 15.038501,89.182831  C14.764346,85.011002 14.347568,80.846443 13.896496,76.689178  C13.645943,74.379967 13.198861,72.092079 12.818666,69.359589 M102.799843,83.260353  C104.892441,81.723755 108.173210,80.611481 108.896591,78.585907  C117.555862,54.338474 101.079544,25.405132 75.849106,20.273291  C74.242523,19.946514 71.984230,20.598934 70.644417,21.610657  C66.909332,24.431099 63.590443,24.590887 59.743217,21.789791  C58.270355,20.717424 55.829372,19.982738 54.122108,20.373232  C28.833403,26.157364 13.353878,53.001984 20.967457,77.860085  C21.468847,79.497108 23.283249,81.190025 24.909119,81.932922  C28.751314,83.688499 31.157866,86.443062 30.089804,90.463608  C29.173513,93.912842 30.577616,95.721100 32.644131,97.754074  C50.595516,115.414146 79.520844,115.444946 97.507599,97.773270  C99.488518,95.827034 101.349823,94.116882 100.146828,90.517845  C99.541489,88.706863 101.436958,86.059952 102.799843,83.260353 z"/><path fill="#F9FBF9" opacity="1.000000" stroke="none" d="M129.126495,43.798935  C130.738205,40.048229 133.236267,38.612965 136.862381,39.614624  C140.396271,40.590801 141.218155,43.362469 141.271957,46.580444  C141.408188,54.728218 141.268814,62.892639 141.762390,71.018646  C142.167847,77.693779 144.818237,80.448853 149.675339,80.601761  C154.998764,80.769341 160.123077,76.737923 160.585999,70.994247  C161.172699,63.715004 160.902969,56.368431 161.069275,49.052410  C161.110443,47.241722 160.789932,44.957180 161.732681,43.740467  C163.189850,41.859879 165.620972,39.536343 167.584229,39.585602  C169.510269,39.633930 171.394882,42.380569 173.228912,44.019932  C173.535583,44.294048 173.594589,44.959541 173.595627,45.444565  C173.623428,58.419724 173.732819,71.396286 173.563797,84.369164  C173.522018,87.575317 171.874771,90.203018 168.101517,90.293953  C164.242996,90.386925 162.371216,88.197357 161.958923,84.530167  C161.894363,83.955963 161.805710,83.384468 161.644531,82.193558  C156.942825,87.348427 151.863434,90.330566 145.200653,90.266037  C135.521790,90.172287 129.328094,84.829094 129.037491,75.157463  C128.727875,64.853516 129.016876,54.531590 129.126495,43.798935 z"/><path fill="#F9FBF9" opacity="1.000000" stroke="none" d="M215.098328,50.823658  C208.689713,46.129349 198.942230,51.320175 198.784683,59.877480  C198.652939,67.032585 198.507721,74.187492 198.345840,81.341980  C198.202927,87.659447 196.386932,90.259598 192.145172,90.294632  C187.857300,90.330040 185.893570,87.631615 185.872025,81.440323  C185.833771,70.450195 185.870316,59.459827 185.855637,48.469585  C185.850433,44.566093 185.564285,40.266296 190.678070,39.432827  C195.678635,38.617813 197.101105,42.452679 197.980377,46.973194  C203.886719,40.550430 210.638367,37.906010 218.805618,39.945457  C224.856750,41.456482 229.384918,45.268040 229.851654,51.387512  C230.684662,62.309097 230.594894,73.315994 230.510605,84.284294  C230.482132,87.988937 228.183838,90.531525 224.012970,90.277901  C219.816208,90.022697 218.269547,87.098053 218.169098,83.485092  C217.960876,75.997246 218.331024,68.486496 217.928314,61.014000  C217.748169,57.671467 216.278412,54.398445 215.098328,50.823658 z"/><path fill="#F7FAF7" opacity="1.000000" stroke="none" d="M278.556091,22.340500  C280.392639,24.643658 282.623535,26.659491 283.149170,29.050240  C283.880096,32.374699 283.333099,35.980125 283.333099,39.494354  C287.017853,41.394051 293.852020,38.640511 293.165771,45.222176  C292.937561,47.410656 287.818085,49.089149 283.852264,51.718483  C283.852264,58.961632 283.700195,68.063240 284.032257,77.147148  C284.077026,78.372292 286.400452,79.854584 287.965210,80.562607  C288.987579,81.025192 290.680847,79.861252 291.832642,80.213593  C293.797089,80.814552 296.806915,81.750671 297.110016,83.067833  C297.478119,84.667381 295.965576,87.840385 294.447235,88.530983  C288.657837,91.164154 282.415710,91.365623 276.546539,88.724747  C272.018860,86.687500 271.128540,82.203789 271.072754,77.735321  C270.958466,68.580116 271.038452,59.422489 271.038452,50.265862  C270.636749,50.546108 270.235016,50.826355 269.833313,51.106598  C267.821899,48.986729 264.845306,47.121037 264.192810,44.643303  C263.849487,43.339607 267.568756,40.966061 269.453613,39.075596  C269.965118,39.386208 270.476654,39.696815 270.988159,40.007427  C270.988159,36.575340 270.972992,33.143169 270.991852,29.711187  C271.017975,24.945492 273.100983,22.132860 278.556091,22.340500 z"/><path fill="#F6F9F7" opacity="1.000000" stroke="none" d="M255.878265,59.007866  C255.878235,66.498199 255.886353,73.490189 255.871063,80.482124  C255.868149,81.811684 255.922043,83.167610 255.691132,84.465355  C255.072998,87.939430 253.269043,90.319580 249.414719,90.320122  C245.506897,90.320671 243.384186,87.831841 243.321793,84.376442  C243.087387,71.398445 243.100693,58.412552 243.271774,45.432919  C243.318405,41.895206 245.524643,39.391304 249.265274,39.320961  C253.235641,39.246300 255.454224,41.779415 255.733932,45.531986  C256.054871,49.837486 255.853027,54.181957 255.878265,59.007866 z"/><path fill="#F3F7F4" opacity="1.000000" stroke="none" d="M255.835419,27.057110  C255.330505,31.610641 252.807983,34.073223 248.841080,33.085964  C246.666519,32.544777 244.097153,30.091358 243.396774,27.947712  C242.353180,24.753637 244.717606,22.159218 247.919434,21.402924  C252.149612,20.403727 254.910812,22.331457 255.835419,27.057110 z"/><path fill="#045E10" opacity="1.000000" stroke="none" d="M102.500702,83.525696  C101.436958,86.059952 99.541489,88.706863 100.146828,90.517845  C101.349823,94.116882 99.488518,95.827034 97.507599,97.773270  C79.520844,115.444946 50.595516,115.414146 32.644131,97.754074  C30.577616,95.721100 29.173513,93.912842 30.089804,90.463608  C31.157866,86.443062 28.751314,83.688499 24.909119,81.932922  C23.283249,81.190025 21.468847,79.497108 20.967457,77.860085  C13.353878,53.001984 28.833403,26.157364 54.122108,20.373232  C55.829372,19.982738 58.270355,20.717424 59.743217,21.789791  C63.590443,24.590887 66.909332,24.431099 70.644417,21.610657  C71.984230,20.598934 74.242523,19.946514 75.849106,20.273291  C101.079544,25.405132 117.555862,54.338474 108.896591,78.585907  C108.173210,80.611481 104.892441,81.723755 102.500702,83.525696 M46.163528,89.748344  C52.600922,90.811813 54.960789,89.042877 55.159794,82.781570  C55.402828,75.134956 55.234131,67.464279 55.772316,59.841343  C56.236057,53.272789 61.015316,49.008881 66.718643,49.210190  C72.086334,49.399651 74.648804,52.624771 74.872627,60.192741  C75.089035,67.509972 74.908287,74.838135 74.977875,82.160774  C75.029251,87.567650 77.010147,90.170288 80.984497,90.294914  C85.012207,90.421219 87.236267,87.891907 87.287888,82.525620  C87.374321,73.540085 87.435028,64.545776 87.138756,55.567303  C86.792000,45.058769 80.048492,38.669636 69.593552,39.938084  C64.396591,40.568607 59.491322,43.603310 54.462231,45.547264  C54.069782,42.506668 52.617023,39.195541 47.799294,39.782257  C42.757526,40.396255 42.851528,44.364861 42.848484,48.118622  C42.839443,59.270069 42.683590,70.425598 42.964985,81.569939  C43.030060,84.147125 44.609047,86.686073 46.163528,89.748344 z"/><path fill="#FCFDFC" opacity="1.000000" stroke="none" d="M45.827461,89.495483  C44.609047,86.686073 43.030060,84.147125 42.964985,81.569939  C42.683590,70.425598 42.839443,59.270069 42.848484,48.118622  C42.851528,44.364861 42.757526,40.396255 47.799294,39.782257  C52.617023,39.195541 54.069782,42.506668 54.462231,45.547264  C59.491322,43.603310 64.396591,40.568607 69.593552,39.938084  C80.048492,38.669636 86.792000,45.058769 87.138756,55.567303  C87.435028,64.545776 87.374321,73.540085 87.287888,82.525620  C87.236267,87.891907 85.012207,90.421219 80.984497,90.294914  C77.010147,90.170288 75.029251,87.567650 74.977875,82.160774  C74.908287,74.838135 75.089035,67.509972 74.872627,60.192741  C74.648804,52.624771 72.086334,49.399651 66.718643,49.210190  C61.015316,49.008881 56.236057,53.272789 55.772316,59.841343  C55.234131,67.464279 55.402828,75.134956 55.159794,82.781570  C54.960789,89.042877 52.600922,90.811813 45.827461,89.495483 z"/></svg>