<svg version="1.2" xmlns="http://www.w3.org/2000/svg" viewBox="0 0 180 180" width="100" height="100"><style>.a{fill:#ff2419}.b{fill:#faf8f8}.c{fill:#ff251a}.d{fill:#070707}.e{fill:#040404}.f{fill:#050505}.g{fill:#060606}.h{fill:#ececec}</style><path class="a" d="m31 181q-15 0-30 0c0-59.9 0-119.8 0-180 45.4 0 90.7 0 136.4 0.3-29.7 28.7-59.7 57.1-89.5 85.7-3.3 3.2-6 7.1-8.4 11-2.5 4.1-4.4 8.5-6.6 12.8-5.9 11.3-8.6 24.5 2.8 35.3-1.8 2.1-3.7 4.2-5.6 6.2-2 2.2-4.2 4.3-6.2 6.6-4.5 5.2-4.3 10 0.5 15 2.3 2.3 4.4 4.7 6.6 7.1z"/><path fill-rule="evenodd" class="b" d="m31.5 181c-2.7-2.4-4.8-4.8-7.1-7.1-4.8-5-5-9.8-0.5-15 2-2.3 4.2-4.4 6.2-6.6 1.9-2 3.8-4.1 5.6-6.2-11.4-10.8-8.7-24-2.8-35.3 2.2-4.3 4.1-8.7 6.6-12.8 2.4-3.9 5.1-7.8 8.4-11 29.8-28.6 59.8-57 89.9-85.7 6.9-0.3 13.6-0.3 20.6 0-29.4 35.4-59.2 70.4-89.1 105.3-3 3.5-7 6-10.3 9.3-2.8 2.8-5.7 5.8-7.6 9.2-1.9 3.3 0 5.5 3.6 4.4 4.7-1.5 10-2.9 13.4-6.1 9.8-9 18.8-18.9 27.9-28.5 0.6-0.7 0.5-2.5 0.1-3.5-2-4.2-1.1-7.8 1.8-11 3.1-3.7 6.4-7.2 9.9-10.6 4.2-4 8.9-4.1 13.5-0.5 1.3 1 2.4 2.3 3.7 3.4q27.8 26.2 55.7 52.3c0 7.4 0 14.7-0.3 22.5-5.7 5.9-10.5 12.8-19.3 6.3-2.7 2.9-5 5.5-7.3 8.1q-8.6 9.5-17.1 19.1c-4 0-8 0-12.4-0.3 1.1-1.9 2.5-3.4 4.1-5.1-20.4-11.9-40.3-23.5-60.5-35.2 3.3-3.2 6.1-4.4 10.2-1.6 5.8 3.9 12 7.1 18.1 10.6 12.2 7.1 24.4 14.2 36.8 21.4 2.7-2.9 5.2-5.5 7.9-8.5-19.2-11.1-38.1-22.2-57.1-33.2q0.3-1.1 0.5-2.1c2.1 0.1 4.4-0.2 6 0.6 7.2 3.9 14.2 8.1 21.2 12.2 10.9 6.3 21.8 12.6 32.8 19 2.7-2.9 5.2-5.5 7.9-8.5-20.7-12-41-23.8-61.5-35.7-2.8 3-5.2 5.7-7.8 8.3-7.7 7.6-16.1 13.9-27.1 15.8-6.2 1.2-12.8-2.2-14.3-7.2-2-6.5 4.4-19.6 10.5-22.6 3.1-1.4 6.2-3.5 8.4-6 18.8-21.8 37.4-43.8 56-65.8 0.7-0.8 1-1.8 1.4-2.7-1.7 0.1-2.7 0.7-3.6 1.6-20.6 19.6-41.3 39.2-61.9 58.9-2.1 2-3.8 4.6-5.2 7.2-2.3 3.9-4.2 8.1-6.2 12.2-1.2 2.6-2.5 5.1-3.4 7.8-3.6 10.4 1.4 19.3 12.4 21 4.4 0.6 9.1-0.3 14.1-0.5-1.6 1.9-3.1 3.7-4.8 5.7 1.8 1.1 3.3 2 4.8 2.9q25.4 14.9 50.7 29.8c-4.7 0-9.4 0-14.2-0.3-6.1-3.9-11.9-7.6-17.9-11.1-9.3-5.6-18.8-11-28.3-16.5-1.8 2.1-3.4 3.8-5.6 6.2 5.7 4.6 11.1 9.1 16.8 13.3 4.2 3.1 8.8 5.6 13.2 8.4-4 0-8 0-12.2-0.2-8.4-9.2-16.7-18.1-25.3-27.4-5 5.3-8.6 9.1-12.3 13 5.2 5.1 10 9.9 14.8 14.6-4 0-8 0-12.5 0zm101.9-87.9c-6.2-5.8-12.3-11.5-18.6-17.4-3.8 4.1-7.3 7.8-10.9 11.6 21.4 20.3 42.7 40.3 64 60.5 3.9-4.1 7.3-7.7 11-11.6-15.1-14.3-30-28.4-45.5-43.1zm-2.3 37.3q13.1 7.6 26.2 15.2 0.5-0.7 1-1.4c-16.7-15.8-33.4-31.6-50.3-47.5-4.3 4.5-8.2 8.7-12.4 13.1 11.9 6.9 23.4 13.6 35.5 20.6z"/><path class="c" d="m181 124.5c-18.6-16.9-37.2-34.3-55.7-51.8-1.3-1.1-2.4-2.4-3.7-3.4-4.6-3.6-9.3-3.5-13.5 0.5-3.5 3.4-6.8 6.9-9.9 10.6-2.9 3.2-3.8 6.8-1.8 11 0.4 1 0.5 2.8-0.1 3.5-9.1 9.6-18.1 19.5-27.9 28.5-3.4 3.2-8.7 4.6-13.4 6.1-3.6 1.1-5.5-1.1-3.6-4.4 1.9-3.4 4.8-6.4 7.6-9.2 3.3-3.3 7.3-5.8 10.3-9.3 29.9-34.9 59.7-69.9 89.6-105.3 7.4-0.3 14.7-0.3 22.1-0.3 0 41 0 82 0 123.5z"/><path fill-rule="evenodd" class="d" d="m115.4 181c-17.3-9.9-34.2-19.8-51.1-29.8-1.5-0.9-3-1.8-4.8-2.9 1.7-2 3.2-3.8 4.8-5.7-5 0.2-9.7 1.1-14.1 0.5-11-1.7-16-10.6-12.4-21 0.9-2.7 2.2-5.2 3.4-7.8 2-4.1 3.9-8.3 6.2-12.2 1.4-2.6 3.1-5.2 5.2-7.2 20.6-19.7 41.3-39.3 61.9-58.9 0.9-0.9 1.9-1.5 3.6-1.6-0.4 0.9-0.7 1.9-1.4 2.7-18.6 22-37.2 44-56 65.8-2.2 2.5-5.3 4.6-8.4 6-6.1 3-12.5 16.1-10.5 22.6 1.5 5 8.1 8.4 14.3 7.2 11-1.9 19.4-8.2 27.1-15.8 2.6-2.6 5-5.3 7.8-8.3 20.5 11.9 40.8 23.7 61.5 35.7-2.7 3-5.2 5.6-7.9 8.5-11-6.4-21.9-12.7-32.8-19-7-4.1-14-8.3-21.2-12.2-1.6-0.8-3.9-0.5-6-0.6q-0.2 1-0.5 2.1c19 11 37.9 22.1 57.1 33.2-2.7 3-5.2 5.6-7.9 8.5-12.4-7.2-24.6-14.3-36.8-21.4-6.1-3.5-12.3-6.7-18.1-10.6-4.1-2.8-6.9-1.6-10.2 1.6 20.2 11.7 40.1 23.3 60.5 35.2-1.6 1.7-3 3.2-4.6 5.1-2.8 0.3-5.5 0.3-8.7 0.3zm-61.2-83.1c-4 3 1.5 3.7 1.4 6 1.7-1.6 3.2-3.3 4.4-5.2 0.5-0.8 0.2-2.1 0.3-3.1-1 0-2.1-0.1-3.1 0.2-0.9 0.3-1.6 1.1-3 2.1z"/><path class="c" d="m137.5 181c5.2-6.4 10.9-12.8 16.6-19.1 2.3-2.6 4.6-5.2 7.3-8.1 8.8 6.5 13.6-0.4 19.3-5.8 0.3 10.9 0.3 21.9 0.3 33-14.4 0-28.7 0-43.5 0z"/><path class="d" d="m79.5 181c-4.9-2.8-9.5-5.3-13.7-8.4-5.7-4.2-11.1-8.7-16.8-13.3 2.2-2.4 3.8-4.1 5.6-6.2 9.5 5.5 19 10.9 28.3 16.5 6 3.5 11.8 7.2 17.4 11.1-7 0.3-13.7 0.3-20.8 0.3z"/><path class="e" d="m44.5 181c-5.3-4.7-10.1-9.5-15.3-14.6 3.7-3.9 7.3-7.7 12.3-13 8.6 9.3 16.9 18.2 24.9 27.4-7.4 0.2-14.4 0.2-21.9 0.2z"/><path class="f" d="m133.6 93.4c15.3 14.4 30.2 28.5 45.3 42.8-3.7 3.9-7.1 7.5-11 11.6-21.3-20.2-42.6-40.2-64-60.5 3.6-3.8 7.1-7.5 10.9-11.6 6.3 5.9 12.4 11.6 18.8 17.7z"/><path class="g" d="m130.8 130.2c-11.8-6.8-23.3-13.5-35.2-20.4 4.2-4.4 8.1-8.6 12.4-13.1 16.9 15.9 33.6 31.7 50.3 47.5q-0.5 0.7-1 1.4c-8.7-5.1-17.5-10.1-26.5-15.4z"/><path class="h" d="m54.5 97.7c1.1-0.8 1.8-1.6 2.7-1.9 1-0.3 2.1-0.2 3.1-0.2-0.1 1 0.2 2.3-0.3 3.1-1.2 1.9-2.7 3.6-4.4 5.2 0.1-2.3-5.4-3-1.1-6.2z"/></svg>