<svg version="1.2" xmlns="http://www.w3.org/2000/svg" viewBox="0 0 280 280" width="100" height="100"><style>.a{fill:#1a3948}.b{fill:#fefefe}.c{fill:#8c9ca4}.d{fill:#84e92d}.e{fill:#183847}.f{fill:#1a3b46}</style><path fill-rule="evenodd" class="a" d="m125 1c10 0 20 0 30.7 0.4 2.8 0.6 5 0.7 7.1 1.1 24 4.4 46 13.5 65.1 28.9 24.3 19.5 40.5 44.4 48.5 74.6 1.8 6.6 3.1 13.3 4.6 20 0 0.8 0 1.5-0.3 2.7-0.1 1.5 0.1 2.4 0.3 3.3 0 8 0 16-0.4 24.7-4.8 31.7-17.2 59-39.3 81.7-18.2 18.7-40 31.4-65.3 38.1-6.6 1.7-13.3 3-20 4.5-10.4 0-20.7 0-31.7-0.4-26.6-4.5-50.4-13.7-70.9-30.5-23.6-19.1-39.5-43.4-47.5-72.7-1.8-6.4-3.3-12.9-4.9-19.4 0-11.4 0-22.7 0.4-34.7 4.5-25.8 13.7-49 29.8-69.1q28.9-36.1 73.4-48.3c6.7-1.9 13.6-3.3 20.4-4.9zm-71.3 48.2c-17.1 16.6-29.1 36.2-35.2 59.3-5.4 20.1-5.5 40.3-0.9 60.7 5.5 24.1 17 44.7 34.4 61.9 17.6 17.5 38.8 28.8 63.3 33.8 32.5 6.6 63.1 1.5 91.2-15.6 33-20.2 53-49.9 59.5-88 4.7-27.4 0.1-53.8-12.7-78.5-10.4-20.2-25.3-36.4-44.6-48.7-13.6-8.6-28.3-14.4-44.2-17.4-21.2-4.1-42.1-2.7-62.6 3.9-18 5.7-33.8 15.3-48.2 28.6z"/><path class="b" d="m281 125.5c-1.5-6.2-2.8-12.9-4.6-19.5-8-30.2-24.2-55.1-48.5-74.6-19.1-15.4-41.1-24.5-65.1-28.9-2.1-0.4-4.3-0.5-6.6-1.1 41.4-0.4 83-0.4 124.8-0.4 0 41.4 0 82.7 0 124.5z"/><path class="b" d="m156.5 281c6.2-1.5 12.9-2.8 19.5-4.5 25.3-6.7 47.1-19.4 65.3-38.1 22.1-22.7 34.5-50 39.3-81.2 0.4 41.1 0.4 82.3 0.4 123.8-41.4 0-82.7 0-124.5 0z"/><path class="b" d="m1 158.5c1.6 6 3.1 12.5 4.9 18.9 8 29.3 23.9 53.6 47.5 72.7 20.5 16.8 44.3 26 70.4 30.5-40.7 0.4-81.7 0.4-122.8 0.4 0-40.7 0-81.4 0-122.5z"/><path class="b" d="m124.5 1c-6.3 1.6-13.2 3-19.9 4.9q-44.5 12.2-73.4 48.3c-16.1 20.1-25.3 43.3-29.8 68.7-0.4-40.5-0.4-81.1-0.4-121.9 41 0 82 0 123.5 0z"/><path class="c" d="m281 131.6c-0.2-0.5-0.4-1.4-0.3-2.5 0.3 0.7 0.3 1.4 0.3 2.5z"/><path fill-rule="evenodd" class="d" d="m54 49c14.1-13.1 29.9-22.7 47.9-28.4 20.5-6.6 41.4-8 62.6-3.9 15.9 3 30.6 8.8 44.2 17.4 19.3 12.3 34.2 28.5 44.6 48.7 12.8 24.7 17.4 51.1 12.7 78.5-6.5 38.1-26.5 67.8-59.5 88-28.1 17.1-58.7 22.2-91.2 15.6-24.5-5-45.7-16.3-63.3-33.8-17.4-17.2-28.9-37.8-34.4-61.9-4.6-20.4-4.5-40.6 0.9-60.7 6.1-23.1 18.1-42.7 35.5-59.5zm36.7 144.4c-0.6-7.4-1.3-14.8-1.7-22.3-0.6-11.5-2.6-22.4-12.3-29.5 3-4.1 6.9-7.6 8.2-11.9 2.2-7.2 3.1-14.8 4-22.4 0.7-5.2 0.2-10.6 0.8-15.9 0.5-4.1 3.1-6.5 7.5-6.4 2.1 0.1 4.2 0 6.5 0 0-5.4 0-10.1 0-14.9-5 0-9.7-0.4-14.3 0.1-9.3 1-15.2 7.8-16.4 19.1-1 9.9-1.2 19.9-2 29.9-0.8 8.7-3.4 11.2-11.8 12.8-1.1 0.3-3 1.5-3 2.3-0.3 5.1-0.2 10.2-0.2 15.1 12 1.7 14.2 3.8 15.2 14.9 0.6 7.6 0.4 15.3 0.9 22.9 0.4 6.7 1.2 13.4 6 18.7 7.1 7.8 16.4 6.5 25.7 5.9 0-5.1 0-9.7 0-13.4-4.6-1.5-8.6-2.9-13.1-5zm121.5-68.4c-0.5-2.5-1.2-4.9-1.3-7.4-0.6-9.1-0.7-18.3-1.5-27.4-1.3-13.4-8.5-19.9-21.9-20.3-9.9-0.4-9.9-0.4-9.8 9.3 0 1.8 0.1 3.6 0.2 5.6 1.9 0.1 3.3 0.2 4.8 0.2 7.5 0.2 9.1 1.6 9.7 8.9 0.6 6.8 1.2 13.6 1.5 20.4 0.5 10.5 2.4 20.2 12.3 26.6-9.1 7-12.5 16.2-12.6 26.8-0.1 6.5-0.4 13-0.7 19.5-0.2 7.2-2.6 9.5-9.7 9.8-1.6 0.1-3.2 0.3-4.9 0.4 0 5 0 9.7 0 14.4 22.1 2.5 30.4-4.4 31.6-26 0.4-7.8 0.6-15.6 1.1-23.4 0.5-7.6 3.9-11.2 11.3-12.3 1.1-0.2 2.2-0.4 3.3-0.6 0-5.9 0-11.5 0-17.3-5.6 0-10.7-0.9-13.4-7.2zm-111.5 8c-0.7 0.6-1.4 1-1.9 1.7-2.9 3.9-2.6 10 0.6 13.2 3.4 3.3 10.2 3.8 13.8 1 4-3.1 4.7-8.7 1.8-13.4-2.7-4.2-7.2-5.2-14.3-2.5zm66.3 13.4c3.9 4.7 10.1 5.9 14.4 2.6 4-3 5.2-9.2 2.5-13.3-2.8-4.3-9-5.7-13.7-3.2-4.6 2.5-6 7.8-3.2 13.9zm-35.8-5c1.3 6.8 3.5 9.1 9.5 9.3 4.3 0.2 7.9-1.1 9.4-5.8 2-6.2-0.7-11.9-6.5-13.4-6.6-1.6-11.1 1.7-12.4 9.9z"/><path class="e" d="m90.9 193.8c4.3 1.7 8.3 3.1 12.9 4.6 0 3.7 0 8.3 0 13.4-9.3 0.6-18.6 1.9-25.7-5.9-4.8-5.3-5.6-12-6-18.7-0.5-7.6-0.3-15.3-0.9-22.9-1-11.1-3.2-13.2-15.2-14.9 0-4.9-0.1-10 0.2-15.1 0-0.8 1.9-2 3-2.3 8.4-1.6 11-4.1 11.8-12.8 0.8-10 1-20 2-29.9 1.2-11.3 7.1-18.1 16.4-19.1 4.6-0.5 9.3-0.1 14.3-0.1 0 4.8 0 9.5 0 14.9-2.3 0-4.4 0.1-6.5 0-4.4-0.1-7 2.3-7.5 6.4-0.6 5.3-0.1 10.7-0.8 15.9-0.9 7.6-1.8 15.2-4 22.4-1.3 4.3-5.2 7.8-8.2 11.9 9.7 7.1 11.7 18 12.3 29.5 0.4 7.5 1.1 14.9 1.9 22.7z"/><path class="e" d="m212.3 125.4c2.6 5.9 7.7 6.8 13.3 6.8 0 5.8 0 11.4 0 17.3-1.1 0.2-2.2 0.4-3.3 0.6-7.4 1.1-10.8 4.7-11.3 12.3-0.5 7.8-0.7 15.6-1.1 23.4-1.2 21.6-9.5 28.5-31.6 26 0-4.7 0-9.4 0-14.4 1.7-0.1 3.3-0.3 4.9-0.4 7.1-0.3 9.5-2.6 9.7-9.8 0.3-6.5 0.6-13 0.7-19.5 0.1-10.6 3.5-19.8 12.6-26.8-9.9-6.4-11.8-16.1-12.3-26.6-0.3-6.8-0.9-13.6-1.5-20.4-0.6-7.3-2.2-8.7-9.7-8.9-1.5 0-2.9-0.1-4.8-0.2-0.1-2-0.2-3.8-0.2-5.6-0.1-9.7-0.1-9.7 9.8-9.3 13.4 0.4 20.6 6.9 21.9 20.3 0.8 9.1 0.9 18.3 1.5 27.4 0.1 2.5 0.8 4.9 1.4 7.8z"/><path class="f" d="m101 132.8c6.8-2.5 11.3-1.5 14 2.7 2.9 4.7 2.2 10.3-1.8 13.4-3.6 2.8-10.4 2.3-13.8-1-3.2-3.2-3.5-9.3-0.6-13.2 0.5-0.7 1.2-1.1 2.2-1.9z"/><path class="f" d="m166.8 146c-2.6-5.7-1.2-11 3.4-13.5 4.7-2.5 10.9-1.1 13.7 3.2 2.7 4.1 1.5 10.3-2.5 13.3-4.3 3.3-10.5 2.1-14.6-3z"/><path class="f" d="m131.2 141c1.3-7.8 5.8-11.1 12.4-9.5 5.8 1.5 8.5 7.2 6.5 13.4-1.5 4.7-5.1 6-9.4 5.8-6-0.2-8.2-2.5-9.5-9.7z"/></svg>