<svg version="1.2" xmlns="http://www.w3.org/2000/svg" viewBox="0 0 256 233" width="100" height="91"><style>.a{fill:#8e8f8f}.b{fill:#fe0902}.c{fill:#ffab00}</style><path fill-rule="evenodd" class="a" d="m138.6 32.2c3.1 0 5.6 2.5 5.7 5.6v0.1 64.8c0 3.1-2.5 5.6-5.5 5.7h-0.2-52.8c-3.1 0-5.6-2.5-5.7-5.5v-0.2-64.8c0-3.1 2.4-5.6 5.5-5.7h0.2zm0 2.6h-52.9c-1.7 0-3.1 1.3-3.2 3v0.1 64.8c0 1.7 1.4 3.1 3.1 3.2h0.1 52.9c1.7 0 3-1.4 3.1-3v-0.2-64.8c0-1.7-1.4-3.1-3.1-3.1zm-45.4 57.9v3.7h-3.7v-3.7zm42.1 0v3.7h-40.3v-3.7zm-42.1-16.4v3.8h-3.8v-3.8zm42.2 0v3.8h-40.3v-3.8zm-42.2-15.7v3.7h-3.8v-3.7zm42.2 0v3.7h-40.3v-3.7zm0-14.5v3.8h-45.9v-3.8z"/><path fill-rule="evenodd" class="a" d="m138.6 121.6v0.1c3.1 0 5.6 2.4 5.7 5.4v0.2 64.8c0 3.1-2.5 5.6-5.5 5.7h-0.2-52.8c-1.5 0-3-0.6-4.1-1.7-1-1-1.6-2.4-1.6-3.8v-0.2-64.8c0-3.1 2.4-5.6 5.5-5.7h0.2zm0 2.5h-52.9c-1.7 0-3.1 1.4-3.2 3.1v0.1 64.8c0 1.7 1.4 3.1 3.1 3.2h0.1 52.9c1.6 0 3-1.4 3.1-3v-0.1-64.9c0-1.7-1.3-3.1-3-3.1h-0.1zm-45.4 57.9v3.8h-3.7v-3.8zm42.1 0v3.7h-40.3v-3.7zm-42.1-16.4v3.8h-3.8v-3.8zm42.2 0.1v3.7h-40.3v-3.7zm-42.2-15.8v3.8h-3.8v-3.8zm42.2 0v3.7h-40.3v-3.7zm0-14.5v3.8h-45.9v-3.8z"/><path class="a" d="m153.9 70.3v3.2h18.9v85.5h-18.9v3.1h18.9 3.1v-3.1-85.5-3.2h-3.1z"/><path class="b" d="m19.3 14.8c3.8-6.1 9.9-9.7 16.1-11.7l0.8-0.3 0.9-0.3q0.6-0.2 1.2-0.3l0.9-0.2q0.2-0.1 0.4-0.1l0.8-0.2q0.2-0.1 0.4-0.1l0.9-0.2 0.8-0.1 0.8-0.2 0.7-0.1 0.8-0.1 0.8-0.1 0.7-0.1 0.7-0.1 0.8-0.1h1l1-0.1 0.9-0.1h1 0.9 0.6l0.5-0.1h0.4l0.7 0.1h0.3 0.6 0.3v15.1c-13.3-1.3-19.3 2.8-21.9 7.1l-0.3 0.4q-0.5 0.9-0.8 1.8l-0.2 0.4q0 0.1 0 0.2l-0.2 0.4-0.1 0.4-0.1 0.3q0 0.1 0 0.2l-0.1 0.4q0 0.1 0 0.2l-0.1 0.3v0.4l-0.1 0.3v0.5 0.4l-0.1 0.3v0.4 0.3 0.2l0.1 0.2v0.3 0.4 5.5 11.3l-0.1 8.2v6.9l-0.1 5.8v4.6l-0.1 4.4v3.8l-0.1 4-0.1 2.1v2l-0.1 2.2v0.7 1.3 0.8 0.5 0.8l-0.1 0.8v0.4 0.5l-0.1 0.5v0.7l-0.1 0.5v0.4l-0.1 0.5q0 0.1-0.1 0.3v0.4q-0.1 0.1-0.1 0.3l-0.1 0.4-0.1 0.5-0.1 0.5q-0.1 0.2-0.2 0.5l-0.1 0.4-0.2 0.5-0.1 0.5c-2 5-6.3 9.4-16.3 11.5 9.7 2 14.1 6.2 16.1 11.1l0.2 0.4q0.3 0.7 0.5 1.4l0.1 0.5q0.1 0.5 0.2 1l0.1 0.4q0 0.2 0.1 0.3l0.1 0.5v0.4l0.1 0.5 0.1 0.5v0.5 0.4l0.1 0.5v0.7 0.5l0.1 0.8v0.5 0.5 0.8 1.3l0.1 2.2v2.3l0.1 2.5v2.7l0.1 3.2 0.1 5.4v4.6 2.5l0.1 6.6 0.1 9.7v10.5 9.3 0.1 0.2 0.2l-0.1 0.3v0.3 0.3 0.3l0.1 0.4v0.4 0.3l0.1 0.5v0.3l0.1 0.4 0.1 0.3q0 0.1 0 0.2l0.1 0.4q0 0 0 0.1l0.1 0.4 0.2 0.4q0 0.1 0 0.2l0.2 0.4q0 0.2 0.1 0.4l0.2 0.4c2.1 4.7 7.6 9.8 21.9 8.6l0.8-0.1v15.2h-0.4-0.7-0.6-0.8-0.5-0.6-0.6l-0.8-0.1h-0.6-0.6l-0.7-0.1h-0.6l-0.7-0.1-0.7-0.1h-0.7l-0.7-0.1-0.7-0.1q-0.2 0-0.4-0.1l-0.7-0.1q-0.2 0-0.4 0l-0.8-0.2q-0.2 0-0.4 0l-0.8-0.2q-0.2 0-0.4-0.1l-0.8-0.1-0.8-0.2q-0.4-0.1-0.8-0.2l-0.8-0.2c-7.5-2.1-15.4-6.1-19.4-14 0.9-9.8 4.9-18 12.1-23.2q0.5-0.4 1-0.7l0.4-0.2q-0.8 0.4-1.5 0.9c-7.1 5.2-11.1 13.4-12 23.1-1.8-3.6-2.7-7.6-2.8-11.7l-0.1-4.1-0.1-5.1-0.1-5.9-0.2-7.5-0.2-6.6-0.2-8.5-0.3-9.2-0.5-14.4-0.1-3.4c-0.3-7.5-3.3-11.2-6.5-13l-0.4-0.2q-0.1-0.1-0.2-0.1l-0.3-0.2q-0.2-0.1-0.4-0.1l-0.4-0.2q-0.2-0.1-0.3-0.1l-0.4-0.1q-0.2-0.1-0.4-0.1l-0.2-0.1-0.3-0.1h-0.3l-0.3-0.1-0.4-0.1h-0.2-0.3l-0.3-0.1h-0.3-0.7q-0.4 0-1 0h-0.3v-17.7c0.8 0.1 1.6 0 2.3 0h0.3l0.3-0.1h0.2l0.4-0.1h0.3l0.3-0.1 0.3-0.1h0.2l0.4-0.1 0.4-0.2 0.3-0.1c3.7-1.4 7.8-4.9 8.2-13.8l0.4-12.8 0.3-10.5 0.2-5.9 0.3-9.5 0.2-6.7 0.1-5 0.2-6.8 0.1-4.2v-3.3c0.1-5.2 1.4-9.5 3.5-13l0.1-0.2zm180.7 0.4v-15.1l0.4-0.1h0.5 0.4 0.7 0.5 0.5 0.8l1.1 0.1h0.6 0.5l1 0.1h0.6l0.7 0.1 0.7 0.1 0.7 0.1h0.7l0.7 0.1 0.8 0.2 0.7 0.1q0.2 0 0.4 0l0.8 0.2 0.8 0.1 0.8 0.2 0.8 0.2 0.8 0.2q0.6 0.1 1.2 0.3l0.8 0.2c7.6 2.2 15.4 6.6 19.1 15 1.4 3.3 2.1 6.9 2.2 10.5l0.1 4.1 0.1 5.1 0.1 3.4 0.1 5 0.2 6.7 0.1 4.9 0.3 8.5 0.2 9.2 0.5 14.4 0.1 3.4c0.3 7.7 3.4 11.3 6.7 13.1l0.3 0.2q0.1 0 0.2 0.1l0.4 0.1 0.4 0.2q0.1 0 0.1 0.1l0.4 0.1q0.1 0 0.2 0.1l0.4 0.1q0 0 0.1 0l0.6 0.2h0.3l0.3 0.1h0.4l0.2 0.1h0.3l0.3 0.1q0.9 0 2 0h0.3v17.7c-0.8 0-1.6 0-2.3 0h-0.2l-0.3 0.1h-0.3l-0.4 0.1-0.3 0.1h-0.3l-0.3 0.1-0.2 0.1h-0.2l-0.4 0.1q-0.1 0-0.2 0.1l-0.3 0.1q-0.1 0-0.2 0.1l-0.4 0.1c-3.5 1.5-7.3 5.2-7.6 13.6l-0.4 12.8-0.3 10.5-0.2 5.9-0.3 9.6-0.2 6.6-0.1 5-0.2 6.8-0.1 4.2v3.3c-0.1 3.1-0.6 6.2-1.7 9.1l-0.1 0.4c-3.8 9.8-12.9 14.3-21.3 16.5l-0.8 0.2q-0.2 0-0.4 0.1l-0.8 0.1q-0.3 0.1-0.5 0.1l-0.8 0.2q-0.2 0-0.4 0.1l-0.7 0.1q-0.2 0-0.4 0.1l-0.8 0.1-0.8 0.1-0.7 0.1-0.7 0.1h-0.7l-0.7 0.1-1 0.1h-0.7l-0.9 0.1h-0.9l-1 0.1h-0.6-0.6-0.5-0.4-0.4l-0.5-0.1h-0.4-0.1v-15.1c14 1.3 19.9-3.1 22.3-7.7l0.2-0.4q0.1-0.2 0.2-0.4l0.2-0.4q0.1-0.2 0.1-0.4l0.2-0.4 0.1-0.4q0-0.1 0.1-0.2l0.1-0.3 0.1-0.4v-0.4l0.1-0.3 0.1-0.4v-0.3l0.1-0.4v-0.4-0.3l0.1-0.5v-0.3-0.3-0.3-0.2l-0.1-0.2v-0.3-0.1-8.3-7.7l0.1-8v-6.7l0.1-6.9v-6.1l0.1-3.6v-2.9l0.1-3.3v-2.1l0.1-1.9v-1.9l0.1-2.2v-1.3-0.7-0.5-0.6l0.1-0.8v-0.5-0.5-0.5l0.1-0.4v-0.5l0.1-0.5 0.1-0.5q0-0.1 0-0.2l0.1-0.5 0.1-0.5 0.1-0.5 0.1-0.4q0.2-0.9 0.4-1.7l0.2-0.5q0.3-0.9 0.8-1.8l0.2-0.5c2.3-4.2 6.7-7.8 15.4-9.6-10.9-2.2-15.1-7.4-16.8-12.9l-0.1-0.5q-0.1-0.5-0.2-0.9l-0.1-0.5q0-0.1-0.1-0.3l-0.1-0.4v-0.5l-0.1-0.5-0.1-0.5v-0.5-0.4l-0.1-0.5v-0.7-0.5l-0.1-0.8v-0.5-0.5-0.8-1.2-1.5l-0.1-1.9-0.1-2.4v-2.6l-0.1-2.7v-3.8l-0.1-5.4v-5.1l-0.1-5.9v-10.5l-0.1-11.4q1.3-0.7 2.5-1.5c4-2.9 7-6.8 9.1-11.3l0.1-0.3c-2 4.7-5.1 8.7-9.2 11.6q-1 0.7-2.1 1.3l-0.4 0.2v-8.4-0.1-0.2-0.2l0.1-0.3v-0.3-0.3-0.3l-0.1-0.3v-0.3-0.5l-0.1-0.5v-0.3l-0.1-0.3-0.1-0.4q0-0.1 0-0.2l-0.1-0.3q0-0.1 0-0.2l-0.1-0.4-0.2-0.4q0-0.1 0-0.2l-0.2-0.4q0-0.2-0.1-0.4l-0.2-0.4c-2.1-4.7-7.6-9.8-21.9-8.6z"/><path class="c" d="m31.2 36.1q0.2 0.2 0.4 0.3l0.5 0.3v-5.5-0.2-0.2-0.2l-0.1-0.3v-0.2-0.3-0.4l0.1-0.3v-0.3-0.3-0.3l0.1-0.3v-0.4l0.1-0.3 0.1-0.4q0-0.1 0-0.2l0.1-0.3 0.1-0.4q0-0.1 0-0.2l0.2-0.4q0-0.1 0-0.2l0.2-0.4q0.3-0.9 0.8-1.8l0.3-0.4c2.6-4.3 8.6-8.4 21.9-7.1v-15.1h-0.3-0.4-0.4l-0.8-0.1h-0.4l-0.5 0.1h-0.9-0.8-0.8l-0.9 0.1-1 0.1h-0.7l-1.1 0.1-0.7 0.1-0.7 0.1-0.8 0.1-0.8 0.1-0.7 0.1-0.8 0.2-0.8 0.1-0.9 0.2q-0.2 0-0.4 0.1l-0.8 0.2q-0.2 0-0.4 0.1l-0.9 0.2q-0.6 0.1-1.2 0.3l-0.9 0.3-0.8 0.3c-6.2 2-12.3 5.6-16.1 11.7 1.2 8.9 5.2 16.5 11.9 21.3zm24.8 196v-15.2c-14.6 1.4-20.4-3.5-22.6-8.2l-0.2-0.4q-0.1-0.3-0.2-0.6l-0.2-0.4q0-0.1 0-0.2l-0.1-0.4-0.2-0.4-0.1-0.4v-0.4l-0.1-0.3-0.1-0.4v-0.3l-0.1-0.3v-0.5-0.4l-0.1-0.4v-0.3-0.3-0.3l0.1-0.2v-0.2-0.3-0.1-9.3q-0.8 0.5-1.5 1c-7.2 5.2-11.2 13.4-12.1 23.2 4 7.9 11.9 11.9 19.4 14l0.8 0.2q0.4 0.1 0.8 0.2l0.8 0.2 0.8 0.1 0.8 0.2q0.2 0 0.4 0.1l0.8 0.1q0.2 0 0.4 0.1l0.7 0.1q0.2 0 0.4 0l0.8 0.1q0.1 0.1 0.3 0.1l0.7 0.1h0.7l0.7 0.1 0.7 0.1h0.6l0.7 0.1h0.6 0.8l0.6 0.1h0.6 0.6 0.5 0.8 0.6 0.5zm182.1-214.7c-4-9-12.6-13.4-20.6-15.5l-0.8-0.2-0.8-0.2q-0.2 0-0.4 0l-0.8-0.2q-0.2-0.1-0.4-0.1l-0.8-0.1-0.7-0.2-0.8-0.1-0.7-0.1-0.8-0.1-0.7-0.1-0.7-0.1-0.7-0.1h-0.6l-1-0.1-0.9-0.1h-0.9-0.8l-0.5-0.1h-0.6-0.6-0.5-0.5-0.4l-0.5 0.1h-0.4-0.3v15.1c14.6-1.4 20.4 3.6 22.6 8.3l0.2 0.4q0.2 0.3 0.3 0.6l0.1 0.4q0 0.1 0.1 0.2l0.1 0.4 0.1 0.3 0.1 0.4 0.1 0.4v0.3l0.1 0.4 0.1 0.3v0.4 0.4l0.1 0.5v0.3 0.3 0.3 0.3 0.2 0.3l-0.1 0.3v8.5q1.3-0.7 2.5-1.6c6.5-4.6 10.4-11.9 11.8-20.4zm-11.1 177.2q-1.5-1-3.1-1.9v8.3 0.1 0.2 0.2 0.3 0.3 0.3 0.3 0.5 0.3l-0.1 0.5v0.3l-0.1 0.3v0.4l-0.1 0.3-0.1 0.4-0.1 0.4-0.1 0.4q0 0.1-0.1 0.2l-0.1 0.3-0.1 0.4q-0.1 0.2-0.2 0.4l-0.2 0.4q0 0.2-0.1 0.4l-0.3 0.5c-2.4 4.5-8.3 9-22.3 7.6v15.1l0.3 0.1h0.6 0.8 0.5 0.8 0.6 0.7l0.8-0.1h0.8l0.6-0.1h1l0.6-0.1 0.7-0.1h0.7l0.7-0.1 0.7-0.1 0.8-0.1 0.7-0.1q0.2-0.1 0.4-0.1l0.8-0.1 0.8-0.2q0.2 0 0.4-0.1l0.7-0.1q0.2-0.1 0.4-0.1l0.8-0.2c8.6-2.1 18-6.6 21.9-16.6-1.6-7.9-5.4-14.6-11.5-19z"/></svg>