<svg xmlns="http://www.w3.org/2000/svg" xmlns:xlink="http://www.w3.org/1999/xlink" id="Layer_1" x="0px" y="0px" width="100%" viewBox="0 0 896 576" xml:space="preserve"><path fill="#000000" opacity="1.000000" stroke="none" d="M651.285400,509.285400  C637.829651,522.714722 624.515747,535.788391 611.478638,549.132446  C608.359619,552.324890 606.578674,552.209167 603.487305,549.116699  C555.305237,500.918396 507.005646,452.837585 458.740570,404.722260  C450.945099,396.951019 450.990631,396.963837 443.358490,404.583038  C395.009186,452.850342 346.619690,501.077515 298.348999,549.423218  C295.291077,552.485901 293.550232,552.083008 290.722931,549.248596  C260.010162,518.458313 229.245865,487.718475 198.303604,457.159302  C194.535736,453.438110 195.139816,451.505981 198.588913,448.088257  C247.234070,399.885712 295.738434,351.541046 344.269928,303.223846  C350.155548,297.364197 350.185913,296.771057 344.264465,290.862366  C295.906189,242.608124 247.525909,194.376007 199.159409,146.130005  C194.182281,141.165283 194.199219,141.139038 199.180420,136.170242  C229.380966,106.044952 259.579071,75.917236 289.790680,45.803078  C294.505585,41.103352 294.550110,41.118984 299.402893,45.954639  C347.677948,94.059364 395.947876,142.169266 444.219269,190.277679  C445.045471,191.101105 445.930664,191.873947 446.687500,192.756805  C449.620941,196.178772 452.248749,195.938110 455.394958,192.732544  C465.665222,182.268600 476.132446,171.998047 486.515259,161.644470  C525.569092,122.700706 564.642334,83.776321 603.623779,44.760246  C606.452759,41.928787 608.263000,41.575264 611.295105,44.617939  C641.871948,75.301666 672.592102,105.842529 703.256226,136.439392  C707.865356,141.038467 707.842224,141.090637 703.260132,145.664078  C655.495178,193.339554 607.725098,241.009872 559.957458,288.682709  C558.778015,289.859802 557.683960,291.134033 556.425110,292.217804  C552.643921,295.472992 553.003540,298.430969 556.477966,301.813110  C564.714661,309.830933 572.740051,318.065399 580.877869,326.185211  C622.042908,367.259125 663.183533,408.357605 704.456604,449.322662  C707.418152,452.262115 706.987122,453.898346 704.336670,456.514709  C686.669739,473.954285 669.117981,491.510529 651.285400,509.285400 M566.200928,168.701569  C530.000183,204.852829 493.819092,241.023743 457.582275,277.138763  C450.315521,284.381104 452.008484,284.685760 444.356964,277.070526  C390.853424,223.820847 337.328094,170.592850 283.966156,117.201561  C280.283966,113.517326 278.096558,113.797768 274.697327,117.159889  C265.795502,125.964470 265.688324,125.862320 274.694122,134.824417  C327.132416,187.008224 379.574280,239.188446 432.008698,291.376160  C437.670013,297.010773 437.667908,297.046173 431.821960,302.863831  C379.378723,355.052826 326.927521,407.233765 274.488678,459.427155  C272.600647,461.306366 270.841064,463.313904 268.978699,465.219757  C266.249969,468.012299 267.985535,470.379486 270.153717,471.923676  C273.747253,474.482971 275.049622,480.965637 281.438110,478.860046  C282.164398,478.620667 282.722290,477.821960 283.317139,477.240570  C286.534363,474.096252 289.757599,470.957672 292.944702,467.782990  C343.945862,416.981293 394.937866,366.170410 445.945251,315.374969  C451.020752,310.320587 451.079895,310.342285 456.331818,315.572205  C509.113403,368.132538 561.849792,420.738403 614.703308,473.226318  C623.465820,481.928223 620.816467,483.075867 630.821777,473.170349  C635.860474,468.181976 635.806458,467.788818 630.837280,462.838135  C577.241333,409.441986 523.640442,356.050842 470.032104,302.667206  C464.367950,297.026764 464.328522,297.039246 470.211700,291.181305  C522.522461,239.094818 574.884033,187.059265 627.114685,134.892502  C637.717102,124.303017 637.088928,127.771049 627.040405,116.968979  C623.693359,113.370949 621.460449,113.860611 618.172180,117.167656  C601.136841,134.300034 583.881897,151.214020 566.200928,168.701569 z"/></svg>