<?xml version="1.0" standalone="no"?>
<!DOCTYPE svg PUBLIC "-//W3C//DTD SVG 20010904//EN"
 "http://www.w3.org/TR/2001/REC-SVG-20010904/DTD/svg10.dtd">
<svg version="1.0" xmlns="http://www.w3.org/2000/svg"
 width="700.000000pt" height="700.000000pt" viewBox="0 0 700.000000 700.000000"
 preserveAspectRatio="xMidYMid meet">
<metadata>
Created by potrace 1.14, written by Peter Selinger 2001-2017
</metadata>
<g transform="translate(0.000000,700.000000) scale(0.100000,-0.100000)"
fill="#000000" stroke="none">
<path d="M5155 6988 c-6 -20 -92 -386 -99 -423 -2 -11 -9 -38 -15 -60 -5 -22
-13 -55 -16 -74 -3 -19 -8 -37 -10 -41 -2 -3 -6 -17 -9 -31 -11 -54 -16 -77
-32 -139 -9 -36 -18 -76 -21 -90 -2 -14 -19 -88 -38 -165 -18 -77 -37 -156
-41 -175 -4 -19 -9 -39 -10 -45 -23 -95 -147 -627 -150 -645 -3 -14 -10 -43
-16 -65 -6 -22 -13 -49 -15 -60 -2 -11 -16 -76 -33 -145 -16 -69 -63 -271
-105 -450 -42 -179 -89 -380 -105 -448 -17 -68 -32 -137 -35 -153 -3 -16 -12
-55 -20 -87 -9 -31 -18 -73 -21 -92 -3 -19 -8 -38 -9 -41 -2 -3 -16 -57 -30
-120 -15 -63 -28 -121 -30 -129 -2 -8 -12 -53 -23 -100 -11 -47 -43 -184 -72
-305 -28 -121 -54 -229 -56 -240 -3 -11 -7 -31 -10 -45 -3 -14 -27 -117 -54
-230 -26 -113 -65 -277 -85 -365 -20 -88 -48 -203 -61 -255 -12 -52 -19 -97
-14 -100 6 -4 1761 -5 1821 -1 11 1 22 32 43 124 15 67 39 167 52 222 25 104
29 120 39 170 3 17 11 48 17 70 5 22 11 47 13 55 2 8 15 67 30 130 15 63 28
122 30 130 2 8 9 38 15 65 6 28 13 57 15 65 2 8 11 47 20 85 9 39 18 77 20 85
21 92 81 347 101 430 15 58 28 115 30 127 2 12 16 71 30 130 14 60 27 115 29
123 2 8 11 47 20 85 9 39 19 79 21 90 3 11 7 31 10 45 3 14 11 50 19 80 8 30
16 66 18 80 3 14 16 72 30 130 29 117 136 573 143 607 2 12 16 71 30 130 14
60 27 115 29 123 12 54 78 341 112 479 8 36 16 72 18 80 2 9 11 48 20 86 9 39
18 77 20 85 2 8 8 38 15 65 13 59 40 175 70 300 12 50 23 97 25 105 2 8 13 53
24 100 11 47 22 97 25 110 4 22 27 122 71 305 35 148 46 191 50 213 l4 22
-920 0 c-727 0 -920 -3 -924 -12z"/>
<path d="M793 5887 c-4 -7 -58 -226 -78 -317 -2 -8 -26 -113 -55 -232 -28
-120 -53 -226 -55 -236 -2 -10 -17 -74 -34 -143 -26 -106 -67 -282 -217 -919
-14 -58 -32 -134 -40 -169 -9 -36 -17 -72 -19 -80 -4 -19 -43 -185 -52 -221
-3 -14 -7 -32 -9 -40 -3 -11 -200 -848 -229 -968 l-5 -22 922 2 922 3 32 135
c18 74 35 146 38 160 2 14 14 63 25 110 18 71 34 139 96 400 2 8 21 92 43 185
22 94 59 249 82 345 23 96 43 184 46 195 2 11 24 106 49 210 26 105 48 201 51
214 3 14 18 79 34 145 42 174 161 678 165 696 2 8 9 38 15 65 6 28 13 57 15
65 2 8 24 104 50 213 26 109 45 201 42 203 -9 9 -1829 9 -1834 1z"/>
<path d="M2725 5325 c-7 -5 -18 -37 -25 -70 -16 -73 -13 -60 -40 -170 -12 -49
-24 -101 -26 -115 -3 -14 -12 -51 -20 -82 -11 -45 -96 -409 -119 -513 -10 -45
-300 -1283 -310 -1325 -2 -8 -10 -44 -18 -80 -8 -36 -33 -144 -56 -240 -23
-96 -53 -224 -67 -285 -25 -110 -49 -211 -98 -421 -15 -61 -28 -119 -31 -130
-6 -31 -74 -322 -96 -414 -12 -47 -23 -96 -26 -110 -2 -14 -11 -52 -20 -85 -8
-33 -17 -69 -19 -80 -2 -11 -8 -38 -13 -60 -12 -47 -51 -211 -57 -240 -2 -11
-22 -96 -44 -190 -22 -93 -47 -199 -55 -235 -8 -36 -36 -158 -63 -272 l-48
-208 923 0 c508 0 923 3 923 6 0 9 64 288 104 454 19 80 37 156 40 170 2 14
18 82 35 152 17 69 33 137 35 150 3 13 15 64 27 113 11 50 22 97 24 105 17 75
30 130 51 220 14 58 28 116 30 129 4 19 26 115 39 171 28 114 88 371 91 390 3
14 8 34 11 45 4 11 8 22 8 25 1 3 7 32 14 65 7 33 30 132 51 220 34 141 49
206 56 240 1 6 6 28 12 50 6 22 13 51 16 65 3 14 7 34 10 45 51 214 138 587
142 610 3 17 7 36 10 44 3 8 14 55 25 105 11 50 22 98 25 106 5 20 58 249 79
340 1 8 8 33 13 55 6 22 13 51 16 65 3 14 7 34 10 45 2 11 14 63 26 115 11 52
32 138 45 190 13 52 26 106 29 120 7 37 12 56 36 155 12 50 24 101 26 115 3
13 14 63 25 110 11 47 22 92 24 100 2 8 15 64 29 125 14 60 23 112 20 114 -10
10 -1817 6 -1829 -4z"/>
</g>
</svg>
