<svg xmlns="http://www.w3.org/2000/svg" width="122" height="151" viewBox="0 0 122 151" fill="none"><path d="M105.948 130.913H114.859L111.526 123.64L114.859 116.367H102.336L105.948 119.83V130.913Z" fill="#0460B5"></path><path d="M15.3314 130.913H6.4209L9.7533 123.64L6.4209 116.367H18.9433L15.3314 119.83V130.913Z" fill="#0460B5"></path><path d="M104.342 120.523H16.8555V135.069H104.342V120.523Z" fill="#0460B5"></path><path d="M28.6032 125.749C29.0409 125.938 29.4058 126.253 29.6247 126.568C29.8435 126.946 29.9895 127.387 29.9895 127.765C29.9895 128.205 29.8435 128.583 29.6247 128.961C29.4058 129.338 29.0409 129.591 28.6032 129.78C28.1653 129.968 27.6545 130.094 27.1438 130.094H24.8818V125.372H27.1438C27.6545 125.435 28.1653 125.498 28.6032 125.749ZM28.0924 129.15C28.3842 129.024 28.6032 128.835 28.7491 128.583C29.0409 128.079 29.0409 127.45 28.7491 126.946C28.6032 126.694 28.3842 126.505 28.0924 126.379C27.8005 126.253 27.5086 126.19 27.1438 126.19H25.9033V129.338H27.1438C27.4356 129.338 27.8005 129.275 28.0924 129.15Z" fill="white"></path><path d="M30.8652 125.435H34.8784V126.19H31.9598V127.386H34.5866V128.142H31.9598V129.338H35.0244V130.094H30.8652V125.435Z" fill="white"></path><path d="M38.6724 126.316C38.4536 126.253 38.1616 126.19 37.8698 126.19C37.6509 126.19 37.432 126.253 37.2861 126.316C37.1401 126.379 37.0672 126.505 37.0672 126.631C37.0672 126.757 37.1401 126.883 37.2131 126.946C37.2861 127.009 37.432 127.134 37.578 127.134C37.7968 127.197 38.0157 127.26 38.2346 127.323C38.5265 127.386 38.8184 127.513 39.1102 127.576C39.3292 127.702 39.548 127.827 39.694 128.016C39.8399 128.205 39.9859 128.457 39.9128 128.772C39.9128 129.024 39.8399 129.338 39.621 129.527C39.4021 129.717 39.1832 129.905 38.8913 130.031C38.5265 130.157 38.1616 130.22 37.7968 130.22C37.359 130.22 36.9213 130.157 36.5564 130.031C36.1916 129.905 35.8267 129.717 35.4619 129.464L35.8997 128.709C36.1916 128.898 36.4834 129.087 36.8483 129.212C37.1401 129.338 37.5049 129.401 37.7968 129.401C38.0157 129.401 38.3076 129.338 38.4536 129.275C38.7454 129.149 38.7454 128.835 38.5995 128.583L38.5265 128.52C38.3806 128.457 38.3076 128.331 38.1616 128.331C38.0157 128.268 37.7968 128.205 37.5049 128.142C37.2131 128.079 36.9213 127.953 36.6293 127.89C36.4105 127.827 36.1916 127.639 36.0457 127.513C35.8997 127.323 35.7537 127.071 35.8267 126.82C35.8267 126.568 35.8997 126.316 36.0457 126.127C36.2645 125.938 36.4834 125.749 36.7753 125.624C37.1401 125.498 37.5049 125.435 37.8698 125.435C38.2346 125.435 38.5995 125.498 38.8913 125.561C39.1832 125.624 39.548 125.749 39.8399 125.938L39.4021 126.694C39.2562 126.505 38.9643 126.379 38.6724 126.316Z" fill="white"></path><path d="M41.0078 125.435H42.0293V130.157H41.0078V125.435Z" fill="white"></path><path d="M47.0635 127.765H47.939V129.591C47.6471 129.78 47.2823 129.905 46.9175 130.031C46.5527 130.157 46.1878 130.22 45.75 130.22C45.2392 130.22 44.7285 130.094 44.2907 129.905C43.8529 129.717 43.4881 129.401 43.2692 129.024C42.9773 128.646 42.9043 128.205 42.9043 127.765C42.9043 127.324 43.0503 126.883 43.2692 126.568C43.561 126.19 43.9259 125.875 44.3636 125.687C44.8015 125.498 45.3122 125.372 45.823 125.372C46.1878 125.372 46.6256 125.435 46.9904 125.561C47.3553 125.687 47.7201 125.812 47.939 126.064L47.3553 126.757C47.1364 126.568 46.9175 126.442 46.6256 126.379C46.3338 126.316 46.1148 126.253 45.823 126.253C45.4582 126.253 45.1663 126.316 44.8744 126.442C43.9988 126.883 43.7069 127.89 44.2177 128.646C44.5825 129.15 45.1663 129.465 45.823 129.465C46.0419 129.465 46.1878 129.465 46.4067 129.401C46.6256 129.338 46.8445 129.275 46.9904 129.15L47.0635 127.765Z" fill="white"></path><path d="M53.0472 125.435H54.0687V130.157H53.1202L50.2744 126.883V130.157H49.2529V125.435H50.2744L53.1202 128.709L53.0472 125.435Z" fill="white"></path><path d="M58.8113 130.157L57.8628 128.772H56.4034V130.157H55.3818V125.435H57.6438C58.2276 125.372 58.8113 125.561 59.322 125.812C59.6869 126.127 59.9058 126.568 59.9058 127.009C59.9058 127.323 59.8328 127.639 59.614 127.953C59.395 128.205 59.1032 128.394 58.8113 128.52L60.0517 130.094L58.8113 130.157ZM56.4034 127.953H57.6438C58.0087 127.953 58.3005 127.89 58.5924 127.702C58.8113 127.513 58.8843 127.323 58.8843 127.072C58.8843 126.82 58.8113 126.568 58.5924 126.442C58.3005 126.316 58.0087 126.19 57.7168 126.253H56.4034V127.953Z" fill="white"></path><path d="M62.3138 129.087C62.6057 129.275 62.9705 129.401 63.2624 129.401C63.6272 129.401 63.9921 129.275 64.2109 129.087C64.4298 128.835 64.5757 128.52 64.5757 128.205V125.435H65.5973V128.205C65.5973 128.583 65.5243 128.961 65.3054 129.275C65.0865 129.591 64.7947 129.842 64.5028 129.968C64.138 130.157 63.7001 130.22 63.2624 130.22C62.8246 130.22 62.3868 130.157 61.949 129.968C61.5842 129.842 61.2922 129.591 61.1463 129.275C60.9275 128.961 60.8545 128.583 60.8545 128.205V125.435H61.876V128.205C61.949 128.52 62.0949 128.835 62.3138 129.087Z" fill="white"></path><path d="M69.5377 126.316C69.3188 126.253 69.0269 126.19 68.735 126.19C68.5162 126.19 68.2972 126.253 68.1513 126.316C68.0054 126.379 67.9324 126.505 67.9324 126.631C67.9324 126.757 68.0054 126.883 68.0783 126.946C68.1513 127.009 68.2972 127.134 68.4432 127.134C68.6621 127.197 68.881 127.26 69.0998 127.323C69.3918 127.386 69.6836 127.513 69.9755 127.576C70.1944 127.702 70.4133 127.827 70.5592 128.016C70.7051 128.205 70.8511 128.457 70.7781 128.772C70.7781 129.024 70.7051 129.338 70.4862 129.527C70.2673 129.717 70.0485 129.905 69.7566 130.031C69.3918 130.157 69.0269 130.22 68.6621 130.22C68.2243 130.22 67.7865 130.157 67.4216 130.031C67.0568 129.905 66.6919 129.717 66.3271 129.464L66.765 128.709C67.0568 128.898 67.3487 129.087 67.7135 129.212C68.0054 129.338 68.3702 129.401 68.6621 129.401C68.881 129.401 69.1729 129.338 69.3188 129.275C69.6106 129.149 69.6106 128.835 69.4647 128.583L69.3918 128.52C69.2458 128.457 69.1729 128.331 69.0269 128.331C68.881 128.268 68.6621 128.205 68.3702 128.142C68.0783 128.079 67.7865 127.953 67.4946 127.89C67.2757 127.827 67.0568 127.639 66.9109 127.513C66.765 127.323 66.619 127.071 66.6919 126.82C66.6919 126.568 66.765 126.316 66.9109 126.127C67.1298 125.938 67.3487 125.749 67.6406 125.624C68.0054 125.498 68.3702 125.435 68.735 125.435C69.0998 125.435 69.4647 125.498 69.7566 125.561C70.0485 125.624 70.4133 125.749 70.7051 125.938L70.2673 126.694C70.1214 126.505 69.8295 126.379 69.5377 126.316Z" fill="white"></path><path d="M71.8721 125.435H72.8936V127.45H75.5933V125.435H76.6149V130.157H75.5933V128.268H72.8936V130.157H71.8721V125.435Z" fill="white"></path><path d="M78.5855 129.339C78.6585 129.402 78.7315 129.527 78.7315 129.717C78.7315 129.843 78.6585 129.969 78.5855 130.095C78.5126 130.158 78.3667 130.22 78.2208 130.22C78.0748 130.22 77.9288 130.158 77.8559 130.095C77.7829 129.969 77.71 129.843 77.71 129.717C77.71 129.591 77.7829 129.465 77.8559 129.339C77.9288 129.276 78.0748 129.213 78.2208 129.213C78.3667 129.213 78.5126 129.276 78.5855 129.339Z" fill="white"></path><path d="M81.5035 127.261C81.2121 127.261 80.9199 127.387 80.7008 127.576C80.4825 127.765 80.4095 128.079 80.4095 128.331C80.4095 128.647 80.4825 128.898 80.7008 129.087C80.9199 129.276 81.2121 129.402 81.5035 129.402C81.9417 129.402 82.3791 129.276 82.5982 128.961L83.2548 129.402C83.0357 129.654 82.8174 129.843 82.5252 129.969C82.1608 130.095 81.7956 130.157 81.4304 130.157C81.066 130.157 80.7008 130.095 80.3364 129.906C80.0444 129.78 79.7525 129.528 79.6066 129.276C79.2418 128.71 79.2418 127.954 79.6066 127.387C79.7525 127.135 80.0444 126.883 80.3364 126.757C80.7008 126.632 81.066 126.505 81.4304 126.505C81.7956 126.505 82.1608 126.569 82.4522 126.694C82.7443 126.82 82.9635 126.946 83.1818 127.198L82.5982 127.702C82.3791 127.45 81.9417 127.261 81.5035 127.261Z" fill="white"></path><path d="M86.9765 126.757C87.2687 126.883 87.56 127.135 87.7791 127.387C87.9983 127.702 88.0713 128.017 88.0713 128.331C88.0713 128.647 87.9983 129.024 87.7791 129.276C87.56 129.528 87.3417 129.78 86.9765 129.906C86.6113 130.032 86.2469 130.157 85.8087 130.157C85.3713 130.157 85.0061 130.095 84.6417 129.906C84.3495 129.78 84.0582 129.528 83.839 129.276C83.6199 128.961 83.5469 128.647 83.5469 128.331C83.5469 128.017 83.6199 127.639 83.839 127.387C84.0582 127.135 84.2765 126.883 84.6417 126.757C85.0061 126.569 85.3713 126.505 85.8087 126.505C86.2469 126.505 86.6113 126.569 86.9765 126.757ZM85.0061 127.576C84.5686 128.017 84.5686 128.71 85.0061 129.15C85.2252 129.339 85.5173 129.465 85.8817 129.465C86.1739 129.465 86.5391 129.339 86.7574 129.15C87.1956 128.71 87.1956 128.017 86.7574 127.576C86.5391 127.387 86.2469 127.261 85.8817 127.261C85.5173 127.261 85.2252 127.324 85.0061 127.576Z" fill="white"></path><path d="M95.5136 126.882C95.8058 127.134 95.9519 127.512 95.9519 127.89V130.157H94.9301V128.142C94.9301 127.89 94.8571 127.701 94.711 127.512C94.5657 127.387 94.2736 127.261 94.0544 127.261C93.7631 127.261 93.4709 127.387 93.2518 127.575C93.0327 127.764 92.9605 128.016 92.9605 128.331V130.094H91.9387V128.142C91.9387 127.89 91.8657 127.701 91.7196 127.512C91.5735 127.387 91.2822 127.261 91.063 127.261C90.7709 127.261 90.4795 127.387 90.2604 127.575C90.0413 127.764 89.9682 128.079 90.0413 128.331V130.094H89.0195V126.505H90.0413V127.197C90.5526 126.505 91.6465 126.316 92.4492 126.694C92.6683 126.819 92.8874 127.071 92.9605 127.324C93.1788 126.756 93.8353 126.442 94.4927 126.442C94.8571 126.442 95.2223 126.631 95.5136 126.882Z" fill="white"></path><path d="M53.0905 90.0458V83.7953H55.6846V82.6538H48.9939V83.7953H51.588V90.0458H53.0905ZM60.6385 90.1788C63.1941 90.1788 65.0177 88.5608 65.0177 86.3553C65.0177 84.1499 63.1941 82.5319 60.6385 82.5319C58.0701 82.5319 56.2594 84.1499 56.2594 86.3553C56.2594 88.5608 58.0701 90.1788 60.6385 90.1788ZM60.6385 89.0262C58.9048 89.0262 57.8004 87.8737 57.8004 86.3553C57.8004 84.8259 58.9048 83.6844 60.6385 83.6844C62.3594 83.6844 63.4766 84.8259 63.4766 86.3553C63.4766 87.8737 62.3594 89.0262 60.6385 89.0262ZM67.954 90.0458V87.2752H70.2271C72.0121 87.2752 73.0138 86.2224 73.0138 84.97C73.0138 83.7066 72.0249 82.6538 70.2271 82.6538H66.4515V90.0458H67.954ZM70.0216 86.1337H67.954V83.7953H70.0216C70.8692 83.7953 71.4728 84.2607 71.4728 84.97C71.4728 85.6682 70.8692 86.1337 70.0216 86.1337ZM9.17291 102.514L11.6258 95.1217H9.94344L8.27396 100.807L6.50176 95.1217H5.30744L3.53523 100.807L1.86576 95.1217H0.196289L2.63629 102.514H4.24155L5.91102 97.05L7.56766 102.514H9.17291ZM18.4875 102.514V101.372H14.1212V99.3109H18.3976V98.1694H14.1212V96.2632H18.4875V95.1217H12.6187V102.514H18.4875ZM24.3583 102.514C25.9764 102.514 26.8497 101.66 26.8497 100.508C26.8497 99.6101 26.1177 98.8232 25.193 98.7013C25.9892 98.5573 26.6827 97.9256 26.6827 97.0057C26.6827 95.9639 25.8223 95.1217 24.2427 95.1217H20.0305V102.514H24.3583ZM23.9473 98.1694H21.533V96.2632H23.9473C24.705 96.2632 25.1417 96.6732 25.1417 97.2163C25.1417 97.7815 24.705 98.1694 23.9473 98.1694ZM24.0116 101.372H21.533V99.3109H24.0116C24.8591 99.3109 25.3086 99.7874 25.3086 100.342C25.3086 100.984 24.8206 101.372 24.0116 101.372ZM34.8789 102.514C37.55 102.514 39.3479 100.995 39.3479 98.8122C39.3479 96.6511 37.55 95.1217 34.866 95.1217H31.6812V102.514H34.8789ZM34.866 101.372H33.1837V96.2632H34.8789C36.7795 96.2632 37.8069 97.3936 37.8069 98.8122C37.8069 100.22 36.7281 101.372 34.866 101.372ZM46.6674 102.514V101.372H42.3011V99.3109H46.5775V98.1694H42.3011V96.2632H46.6674V95.1217H40.7986V102.514H46.6674ZM52.5639 102.514L55.9285 95.1217H54.2205L51.6264 101.095L49.0323 95.1217H47.3243L50.6889 102.514H52.5639ZM62.7201 102.514V101.372H58.3538V99.3109H62.6302V98.1694H58.3538V96.2632H62.7201V95.1217H56.8512V102.514H62.7201ZM69.4384 102.514V101.372H65.6628V95.1217H64.1603V102.514H69.4384ZM74.3773 102.647C76.9329 102.647 78.7565 101.029 78.7565 98.8232C78.7565 96.6178 76.9329 94.9997 74.3773 94.9997C71.8089 94.9997 69.9982 96.6178 69.9982 98.8232C69.9982 101.029 71.8089 102.647 74.3773 102.647ZM74.3773 101.494C72.6436 101.494 71.5392 100.342 71.5392 98.8232C71.5392 97.2938 72.6436 96.1523 74.3773 96.1523C76.0982 96.1523 77.2154 97.2938 77.2154 98.8232C77.2154 100.342 76.0982 101.494 74.3773 101.494ZM81.6924 102.514V99.7431H83.9655C85.7505 99.7431 86.7522 98.6902 86.7522 97.4379C86.7522 96.1745 85.7634 95.1217 83.9655 95.1217H80.1902V102.514H81.6924ZM83.76 98.6016H81.6924V96.2632H83.76C84.6076 96.2632 85.2112 96.7286 85.2112 97.4379C85.2112 98.1361 84.6076 98.6016 83.76 98.6016ZM96.9151 102.514V95.1217H94.7962L92.4718 100.197L90.1345 95.1217H88.0156V102.514H89.5181V96.8062L92.1507 102.514H92.7928L95.4126 96.8062V102.514H96.9151ZM104.608 102.514V101.372H100.241V99.3109H104.518V98.1694H100.241V96.2632H104.608V95.1217H98.7387V102.514H104.608ZM113.573 102.514V95.1217H112.07V100.242L107.691 95.1217H106.15V102.514H107.653V97.2273L112.122 102.514H113.573ZM118.938 102.514V96.2632H121.532V95.1217H114.841V96.2632H117.435V102.514H118.938ZM29.8339 115.115C31.5548 115.115 32.6207 114.328 33.2756 113.441L31.9914 112.887C31.5805 113.497 30.7457 113.962 29.8339 113.962C28.1388 113.962 26.8802 112.832 26.8802 111.291C26.8802 109.728 28.1388 108.62 29.8339 108.62C30.7457 108.62 31.5805 109.075 31.9914 109.695L33.2628 109.119C32.6335 108.232 31.5548 107.468 29.8339 107.468C27.304 107.468 25.3392 109.008 25.3392 111.291C25.3392 113.563 27.304 115.115 29.8339 115.115ZM38.4721 115.115C41.0277 115.115 42.8512 113.497 42.8512 111.291C42.8512 109.086 41.0277 107.468 38.4721 107.468C35.9037 107.468 34.0929 109.086 34.0929 111.291C34.0929 113.497 35.9037 115.115 38.4721 115.115ZM38.4721 113.962C36.7384 113.962 35.634 112.809 35.634 111.291C35.634 109.762 36.7384 108.62 38.4721 108.62C40.1929 108.62 41.3102 109.762 41.3102 111.291C41.3102 112.809 40.1929 113.962 38.4721 113.962ZM53.1847 114.982V107.59H51.0657L48.7413 112.665L46.404 107.59H44.2851V114.982H45.7876V109.274L48.4202 114.982H49.0623L51.6821 109.274V114.982H53.1847ZM56.5102 114.982V112.211H58.7832C60.5683 112.211 61.57 111.158 61.57 109.906C61.57 108.642 60.5811 107.59 58.7832 107.59H55.0077V114.982H56.5102ZM58.5778 111.069H56.5102V108.731H58.5778C59.4254 108.731 60.0289 109.197 60.0289 109.906C60.0289 110.604 59.4254 111.069 58.5778 111.069ZM69.5858 114.982L66.2212 107.59H64.3462L60.9816 114.982H62.6896L63.3188 113.552H67.2485L67.8778 114.982H69.5858ZM66.8247 112.41H63.7426L65.2837 108.886L66.8247 112.41ZM77.9312 114.982V107.59H76.4287V112.71L72.0495 107.59H70.5085V114.982H72.011V109.695L76.4801 114.982H77.9312ZM81.2542 114.982V107.59H79.7514V114.982H81.2542ZM88.9434 114.982V113.84H84.5771V111.779H88.8535V110.637H84.5771V108.731H88.9434V107.59H83.0746V114.982H88.9434ZM93.4277 115.115C95.7264 115.115 96.741 114.051 96.741 112.821C96.741 110.072 91.7582 110.925 91.7582 109.54C91.7582 108.997 92.3233 108.62 93.1966 108.62C94.0955 108.62 95.0073 108.886 95.6879 109.474L96.5355 108.509C95.7521 107.844 94.6606 107.468 93.3378 107.468C91.45 107.468 90.2172 108.41 90.2172 109.64C90.2172 112.355 95.1999 111.391 95.1999 112.942C95.1999 113.441 94.7248 113.962 93.4919 113.962C92.2976 113.962 91.3601 113.474 90.7822 112.931L89.9347 113.94C90.7052 114.627 91.8481 115.115 93.4277 115.115Z" fill="black"></path><path d="M60.8111 47.5623C60.6606 47.4233 60.6606 47.5623 60.8111 47.5623L60.0583 47.1451L59.9077 47.006L42.1408 35.3241C42.1408 35.3241 41.9903 35.3241 41.9903 35.1851L41.6891 34.9069L41.5386 34.7678H41.2374L36.1182 31.4302L46.2061 32.8208C46.6578 32.8208 46.8084 32.9599 47.2601 33.099C47.4106 33.099 47.7118 33.2381 47.7118 33.2381C48.1635 33.3772 48.3141 33.5162 48.6152 33.6553C48.9164 33.7944 49.0669 33.9335 49.368 34.0725C49.5186 34.2116 49.8197 34.3506 49.8197 34.4897C49.9703 34.6288 50.1209 34.6288 50.2714 34.7678C50.5726 34.9069 50.7231 35.046 50.7231 35.1851C51.1748 35.6023 51.476 36.0195 51.9277 36.2976L59.9077 46.7279L60.0583 46.867L60.8111 47.5623Z" fill="#18AAD1"></path><path d="M60.8109 63.6946L60.0581 62.582L59.9075 62.4429L36.2686 31.4302L41.3878 34.7678L42.2913 35.3242L60.0581 47.0061H60.2086L60.8109 47.4233C60.8109 47.4233 60.9615 47.4233 60.9615 47.5624L61.7143 47.0061L85.6541 31.4302L61.5637 62.582L61.4132 62.7211L60.8109 63.6946Z" fill="#2AD2FF"></path><path d="M60.8117 42.2775L60.0588 41.1649L59.9083 41.0259L54.0361 33.516L59.9083 34.6286H60.0588L60.8117 34.7677L61.5645 34.6286L67.2861 33.377L61.5645 41.1649V41.304L60.8117 42.2775Z" fill="#18AAD1"></path><path d="M85.8055 31.2908L78.2773 32.2642L75.4164 32.6815C73.158 32.9596 71.0501 34.0722 69.695 35.8801L61.7149 46.4494L61.5643 46.5885L60.8115 47.5621L61.7149 46.7276L61.8655 46.5885L60.8115 47.5621L81.1382 34.2112L85.8055 31.2908Z" fill="#18AAD1"></path><path d="M64.5758 9.31774C64.5758 15.4368 53.1328 18.6354 53.1328 25.1717C52.9822 26.7015 53.4339 28.2313 54.1867 29.622C54.1867 29.622 49.8203 25.728 49.8203 21.5559C49.8203 17.3838 54.0361 11.1257 54.0361 11.1257C54.0361 13.907 55.2407 14.7415 56.4452 14.8805H56.5958C57.9509 14.8805 58.7038 13.907 58.7038 12.5163C58.7038 11.1257 57.0475 9.73493 57.0475 6.95355C57.0475 4.31118 60.6611 0 60.6611 0C63.2207 2.78141 64.5758 5.98002 64.5758 9.31774Z" fill="#2AD2FF"></path><path d="M61.4136 31.5689C57.8 31.5689 55.0898 28.9266 55.0898 25.7279V25.5889C55.0898 18.4963 65.78 17.8009 65.78 8.20508C66.0812 8.62227 68.9419 12.2381 68.9419 16.1321C68.9419 20.9996 63.9732 22.2512 63.9732 24.6154C63.9732 25.5889 64.4249 26.2843 65.9306 26.2843C66.0812 26.2843 66.2317 26.2843 66.3823 26.1452C69.2431 25.0326 71.2004 22.5294 71.351 19.6088C71.351 19.7479 72.8567 31.5689 61.4136 31.5689Z" fill="#2AD2FF"></path><path d="M66.081 26.2843C66.2316 26.2843 66.382 26.2843 66.5326 26.1452C65.027 26.5624 59.4561 27.814 59.4561 24.1982C59.4561 19.7479 67.7372 18.7745 67.7372 15.0195C67.7372 12.6554 67.1349 10.2912 65.7798 8.20508C66.081 8.62227 68.9417 12.2381 68.9417 16.1321C68.9417 20.9996 63.973 22.2512 63.973 24.6154C64.1236 25.5889 64.7258 26.2843 66.081 26.2843Z" fill="#18AAD1"></path><path d="M61.3038 11.821C61.3038 15.2978 56.4857 15.0197 56.1846 14.8806H56.6363C57.9914 14.8806 58.7442 13.9071 58.7442 12.5164C58.7442 11.1257 57.0879 9.73493 57.0879 6.95355C57.0879 4.31119 60.7015 0 60.7015 0C59.497 1.80792 58.8947 3.75491 58.7442 5.7019C58.7442 8.90055 61.3038 9.17865 61.3038 11.821Z" fill="#18AAD1"></path><path d="M58.7221 72.7431L55.2402 70.6042H59.5134L60.9378 66.7537L62.2039 70.6042H66.4771L62.9952 72.7431L64.2613 76.4509L60.7795 74.1693L57.1394 76.4509L58.7221 72.7431Z" fill="#2AD2FF"></path><path d="M77.3236 72.7431L73.8418 70.6042H78.1149L79.5394 66.7537L80.8054 70.6042H85.0786L81.5968 72.7431L82.8626 76.4509L79.3811 74.1693L75.741 76.4509L77.3236 72.7431Z" fill="#2AD2FF"></path><path d="M95.7845 72.7431L92.3027 70.6042H96.5759L98.0006 66.7537L99.2664 70.6042H103.54L100.058 72.7431L101.324 76.4509L97.8417 74.1693L94.2018 76.4509L95.7845 72.7431Z" fill="#2AD2FF"></path><path d="M39.6 72.7431L36.1182 70.6042H40.3913L41.8157 66.7537L43.0819 70.6042H47.355L43.8732 72.7431L45.1393 76.4509L41.6574 74.1693L38.1756 76.4509L39.6 72.7431Z" fill="#2AD2FF"></path><path d="M21.14 72.7431L17.6582 70.6042H21.9313L23.3558 66.7537L24.6219 70.6042H28.895L25.4132 72.7431L26.6793 76.4509L23.1975 74.1693L19.7157 76.4509L21.14 72.7431Z" fill="#2AD2FF"></path></svg>