<svg width="8" height="113" viewBox="0 0 8 113" fill="none" xmlns="http://www.w3.org/2000/svg">
<path d="M4 30L4 -5.96046e-07" stroke="#D5737C" stroke-width="0.5" stroke-dasharray="3 3"/>
<path d="M3.64645 112.354C3.84171 112.549 4.15829 112.549 4.35355 112.354L7.53553 109.172C7.7308 108.976 7.7308 108.66 7.53553 108.464C7.34027 108.269 7.02369 108.269 6.82843 108.464L4 111.293L1.17157 108.464C0.976311 108.269 0.659728 108.269 0.464466 108.464C0.269204 108.66 0.269204 108.976 0.464466 109.172L3.64645 112.354ZM4.5 112L4.5 80L3.5 80L3.5 112L4.5 112ZM4.5 80L4.5 48L3.5 48L3.5 80L4.5 80Z" fill="#D5737C"/>
</svg>
