<svg width="50" height="50" viewBox="0 0 50 50" fill="none" xmlns="http://www.w3.org/2000/svg">
<circle cx="25" cy="25" r="25" fill="#E93544"/>
<path d="M26.0007 17.9939V23.4277L30.5157 26.1364C30.7432 26.273 30.907 26.4944 30.9713 26.7518C31.0355 27.0091 30.9948 27.2815 30.8582 27.5089C30.7217 27.7364 30.5003 27.9002 30.2429 27.9644C29.9855 28.0287 29.7132 27.988 29.4857 27.8514L24.4857 24.8514C24.3378 24.7625 24.2153 24.6368 24.1303 24.4866C24.0453 24.3363 24.0007 24.1666 24.0007 23.9939V17.9939C24.0007 17.7287 24.1061 17.4744 24.2936 17.2868C24.4812 17.0993 24.7355 16.9939 25.0007 16.9939C25.266 16.9939 25.5203 17.0993 25.7079 17.2868C25.8954 17.4744 26.0007 17.7287 26.0007 17.9939ZM37.0007 14.9939C36.7355 14.9939 36.4812 15.0993 36.2936 15.2868C36.1061 15.4744 36.0007 15.7287 36.0007 15.9939V18.2439C35.207 17.3239 34.397 16.4377 33.4857 15.5152C31.8181 13.8473 29.6959 12.7079 27.3843 12.2393C25.0727 11.7706 22.6743 11.9936 20.4887 12.8803C18.3032 13.767 16.4273 15.2781 15.0957 17.2247C13.764 19.1714 13.0355 21.4674 13.0013 23.8257C12.967 26.1841 13.6285 28.5002 14.9031 30.4848C16.1776 32.4693 18.0088 34.0342 20.1677 34.984C22.3266 35.9338 24.7175 36.2263 27.0417 35.825C29.3659 35.4237 31.5203 34.3464 33.2357 32.7277C33.3313 32.6374 33.4081 32.5292 33.4618 32.4092C33.5155 32.2892 33.5451 32.1599 33.5488 32.0285C33.5525 31.8971 33.5303 31.7662 33.4835 31.6434C33.4366 31.5206 33.366 31.4082 33.2757 31.3127C33.1855 31.2172 33.0772 31.1403 32.9573 31.0866C32.8373 31.0329 32.7079 31.0033 32.5765 30.9996C32.4451 30.9959 32.3143 31.0181 32.1915 31.065C32.0687 31.1118 31.9563 31.1824 31.8607 31.2727C30.4308 32.6203 28.6355 33.5168 26.6992 33.8502C24.7628 34.1836 22.7711 33.9391 20.9728 33.1474C19.1745 32.3556 17.6493 31.0516 16.5876 29.3982C15.526 27.7448 14.975 25.8153 15.0034 23.8506C15.0318 21.8859 15.6384 19.9732 16.7473 18.3512C17.8563 16.7291 19.4186 15.4698 21.239 14.7303C23.0594 13.9909 25.0574 13.8041 26.9833 14.1933C28.9093 14.5826 30.6779 15.5306 32.0682 16.9189C33.0857 17.9489 33.977 18.9414 34.8757 19.9939H32.0007C31.7355 19.9939 31.4812 20.0993 31.2936 20.2868C31.1061 20.4744 31.0007 20.7287 31.0007 20.9939C31.0007 21.2592 31.1061 21.5135 31.2936 21.701C31.4812 21.8886 31.7355 21.9939 32.0007 21.9939H37.0007C37.266 21.9939 37.5203 21.8886 37.7079 21.701C37.8954 21.5135 38.0007 21.2592 38.0007 20.9939V15.9939C38.0007 15.7287 37.8954 15.4744 37.7079 15.2868C37.5203 15.0993 37.266 14.9939 37.0007 14.9939Z" fill="white"/>
</svg>
