<svg width="50" height="50" viewBox="0 0 50 50" fill="none" xmlns="http://www.w3.org/2000/svg">
<circle cx="25" cy="25" r="25" fill="#E93544"/>
<path d="M36 14H14C13.4696 14 12.9609 14.2107 12.5858 14.5858C12.2107 14.9609 12 15.4696 12 16V34C12 34.5304 12.2107 35.0391 12.5858 35.4142C12.9609 35.7893 13.4696 36 14 36H36C36.5304 36 37.0391 35.7893 37.4142 35.4142C37.7893 35.0391 38 34.5304 38 34V16C38 15.4696 37.7893 14.9609 37.4142 14.5858C37.0391 14.2107 36.5304 14 36 14ZM36 34H14V16H36V34ZM19 19.5C19 19.7967 18.912 20.0867 18.7472 20.3334C18.5824 20.58 18.3481 20.7723 18.074 20.8858C17.7999 20.9994 17.4983 21.0291 17.2074 20.9712C16.9164 20.9133 16.6491 20.7704 16.4393 20.5607C16.2296 20.3509 16.0867 20.0836 16.0288 19.7926C15.9709 19.5017 16.0006 19.2001 16.1142 18.926C16.2277 18.6519 16.42 18.4176 16.6666 18.2528C16.9133 18.088 17.2033 18 17.5 18C17.8978 18 18.2794 18.158 18.5607 18.4393C18.842 18.7206 19 19.1022 19 19.5ZM24 19.5C24 19.7967 23.912 20.0867 23.7472 20.3334C23.5824 20.58 23.3481 20.7723 23.074 20.8858C22.7999 20.9994 22.4983 21.0291 22.2074 20.9712C21.9164 20.9133 21.6491 20.7704 21.4393 20.5607C21.2296 20.3509 21.0867 20.0836 21.0288 19.7926C20.9709 19.5017 21.0006 19.2001 21.1142 18.926C21.2277 18.6519 21.42 18.4176 21.6666 18.2528C21.9133 18.088 22.2033 18 22.5 18C22.8978 18 23.2794 18.158 23.5607 18.4393C23.842 18.7206 24 19.1022 24 19.5Z" fill="white"/>
</svg>
