<svg width="50" height="50" viewBox="0 0 50 50" fill="none" xmlns="http://www.w3.org/2000/svg">
<circle cx="25" cy="25" r="25" fill="#E93544"/>
<path d="M12 21.9994H15V29.9994H13C12.7348 29.9994 12.4804 30.1047 12.2929 30.2923C12.1054 30.4798 12 30.7342 12 30.9994C12 31.2646 12.1054 31.5189 12.2929 31.7065C12.4804 31.894 12.7348 31.9994 13 31.9994H37C37.2652 31.9994 37.5196 31.894 37.7071 31.7065C37.8946 31.5189 38 31.2646 38 30.9994C38 30.7342 37.8946 30.4798 37.7071 30.2923C37.5196 30.1047 37.2652 29.9994 37 29.9994H35V21.9994H38C38.2176 21.9992 38.4292 21.928 38.6026 21.7966C38.7761 21.6653 38.902 21.481 38.9612 21.2716C39.0205 21.0622 39.0098 20.8393 38.9308 20.6365C38.8519 20.4338 38.709 20.2623 38.5238 20.1481L25.5238 12.1481C25.3662 12.0513 25.1849 12 25 12C24.8151 12 24.6338 12.0513 24.4762 12.1481L11.4762 20.1481C11.291 20.2623 11.1481 20.4338 11.0692 20.6365C10.9902 20.8393 10.9795 21.0622 11.0388 21.2716C11.098 21.481 11.2239 21.6653 11.3974 21.7966C11.5708 21.928 11.7824 21.9992 12 21.9994ZM17 21.9994H21V29.9994H17V21.9994ZM27 21.9994V29.9994H23V21.9994H27ZM33 29.9994H29V21.9994H33V29.9994ZM25 14.1731L34.4675 19.9994H15.5325L25 14.1731ZM40 34.9994C40 35.2646 39.8946 35.5189 39.7071 35.7065C39.5196 35.894 39.2652 35.9994 39 35.9994H11C10.7348 35.9994 10.4804 35.894 10.2929 35.7065C10.1054 35.5189 10 35.2646 10 34.9994C10 34.7342 10.1054 34.4798 10.2929 34.2923C10.4804 34.1047 10.7348 33.9994 11 33.9994H39C39.2652 33.9994 39.5196 34.1047 39.7071 34.2923C39.8946 34.4798 40 34.7342 40 34.9994Z" fill="white"/>
</svg>
