<svg width="17" height="112" viewBox="0 0 17 112" fill="none" xmlns="http://www.w3.org/2000/svg">
<line x1="16.5" y1="0.5" x2="4.5" y2="0.499999" stroke="#D5737C"/>
<path d="M3.64645 64.3536C3.84171 64.5488 4.15829 64.5488 4.35355 64.3536L7.53553 61.1716C7.7308 60.9763 7.7308 60.6597 7.53553 60.4645C7.34027 60.2692 7.02369 60.2692 6.82843 60.4645L4 63.2929L1.17157 60.4645C0.976311 60.2692 0.659728 60.2692 0.464466 60.4645C0.269204 60.6597 0.269204 60.9763 0.464466 61.1716L3.64645 64.3536ZM4.5 64L4.5 3.83655e-06L3.5 3.79284e-06L3.5 64L4.5 64Z" fill="#D5737C"/>
<path d="M4 112L4 82" stroke="#D5737C" stroke-width="0.5" stroke-dasharray="3 3"/>
</svg>
