<svg width="17" height="134" viewBox="0 0 17 134" fill="none" xmlns="http://www.w3.org/2000/svg">
<path d="M16.3536 130.354C16.5488 130.158 16.5488 129.842 16.3536 129.646L13.1716 126.464C12.9763 126.269 12.6597 126.269 12.4645 126.464C12.2692 126.66 12.2692 126.976 12.4645 127.172L15.2929 130L12.4645 132.828C12.2692 133.024 12.2692 133.34 12.4645 133.536C12.6597 133.731 12.9763 133.731 13.1716 133.536L16.3536 130.354ZM16 129.5L4 129.5L4 130.5L16 130.5L16 129.5Z" fill="#D5737C"/>
<path d="M4 116L4 86" stroke="#D5737C" stroke-width="0.5" stroke-dasharray="3 3"/>
<path d="M3.64645 64.3536C3.84171 64.5488 4.15829 64.5488 4.35355 64.3536L7.53553 61.1716C7.7308 60.9763 7.7308 60.6597 7.53553 60.4645C7.34027 60.2692 7.02369 60.2692 6.82843 60.4645L4 63.2929L1.17157 60.4645C0.976311 60.2692 0.659728 60.2692 0.464466 60.4645C0.269204 60.6597 0.269204 60.9763 0.464466 61.1716L3.64645 64.3536ZM4.5 64L4.5 3.83655e-06L3.5 3.79284e-06L3.5 64L4.5 64Z" fill="#D5737C"/>
</svg>
